<svg fill="none" xmlns="http://www.w3.org/2000/svg" viewBox="0 0 629 629">
  <path fill="#fff" d="M0 0h629v629H0z"/>
  <path d="M81.348 110.689c1.314 0 2.38-1.011 2.38-2.257 0-1.247-1.066-2.257-2.38-2.257-1.315 0-2.381 1.01-2.381 2.257 0 1.246 1.066 2.257 2.38 2.257zm0 18.691c1.314 0 2.38-1.011 2.38-2.258 0-1.246-1.066-2.257-2.38-2.257-1.315 0-2.381 1.011-2.381 2.257 0 1.247 1.066 2.258 2.38 2.258zm2.38 16.433c0 1.247-1.066 2.257-2.38 2.257-1.315 0-2.381-1.01-2.381-2.257 0-1.246 1.066-2.257 2.38-2.257 1.316 0 2.382 1.011 2.382 2.257zm-2.38 20.948c1.314 0 2.38-1.01 2.38-2.257s-1.066-2.257-2.38-2.257c-1.315 0-2.381 1.01-2.381 2.257s1.066 2.257 2.38 2.257zm2.38 16.434c0 1.247-1.066 2.257-2.38 2.257-1.315 0-2.381-1.01-2.381-2.257s1.066-2.257 2.38-2.257c1.316 0 2.382 1.01 2.382 2.257zm-2.38 20.948c1.314 0 2.38-1.011 2.38-2.257 0-1.247-1.066-2.258-2.38-2.258-1.315 0-2.381 1.011-2.381 2.258 0 1.246 1.066 2.257 2.38 2.257zm2.38 16.433c0 1.247-1.066 2.257-2.38 2.257-1.315 0-2.381-1.01-2.381-2.257 0-1.246 1.066-2.257 2.38-2.257 1.316 0 2.382 1.011 2.382 2.257zm-2.38 20.948c1.314 0 2.38-1.01 2.38-2.257 0-1.246-1.066-2.257-2.38-2.257-1.315 0-2.381 1.011-2.381 2.257 0 1.247 1.066 2.257 2.38 2.257zm2.38 16.434c0 1.246-1.066 2.257-2.38 2.257-1.315 0-2.381-1.011-2.381-2.257 0-1.247 1.066-2.257 2.38-2.257 1.316 0 2.382 1.01 2.382 2.257zm-2.38 20.948c1.314 0 2.38-1.011 2.38-2.257 0-1.247-1.066-2.258-2.38-2.258-1.315 0-2.381 1.011-2.381 2.258 0 1.246 1.066 2.257 2.38 2.257zm2.38 16.434c0 1.246-1.066 2.257-2.38 2.257-1.315 0-2.381-1.011-2.381-2.257 0-1.247 1.066-2.258 2.38-2.258 1.316 0 2.382 1.011 2.382 2.258zm-2.38 20.947c1.314 0 2.38-1.01 2.38-2.257 0-1.246-1.066-2.257-2.38-2.257-1.315 0-2.381 1.011-2.381 2.257 0 1.247 1.066 2.257 2.38 2.257zm2.38 16.668c0 1.247-1.066 2.257-2.38 2.257-1.315 0-2.381-1.01-2.381-2.257 0-1.246 1.066-2.257 2.38-2.257 1.316 0 2.382 1.011 2.382 2.257zm-2.38 20.948c1.314 0 2.38-1.011 2.38-2.257 0-1.247-1.066-2.257-2.38-2.257-1.315 0-2.381 1.01-2.381 2.257 0 1.246 1.066 2.257 2.38 2.257zm2.38 16.434c0 1.246-1.066 2.257-2.38 2.257-1.315 0-2.381-1.011-2.381-2.257 0-1.247 1.066-2.257 2.38-2.257 1.316 0 2.382 1.01 2.382 2.257zm-2.38 20.948c1.314 0 2.38-1.011 2.38-2.258 0-1.246-1.066-2.257-2.38-2.257-1.315 0-2.381 1.011-2.381 2.257 0 1.247 1.066 2.258 2.38 2.258zm2.38 16.433c0 1.247-1.066 2.257-2.38 2.257-1.315 0-2.381-1.01-2.381-2.257 0-1.246 1.066-2.257 2.38-2.257 1.316 0 2.382 1.011 2.382 2.257zm-2.38 20.376c1.314 0 2.38-1.01 2.38-2.257s-1.066-2.257-2.38-2.257c-1.315 0-2.381 1.01-2.381 2.257s1.066 2.257 2.38 2.257zm2.38 16.434c0 1.246-1.066 2.257-2.38 2.257-1.315 0-2.381-1.011-2.381-2.257 0-1.247 1.066-2.257 2.38-2.257 1.316 0 2.382 1.01 2.382 2.257zm-2.38 20.947c1.314 0 2.38-1.01 2.38-2.257 0-1.246-1.066-2.257-2.38-2.257-1.315 0-2.381 1.011-2.381 2.257 0 1.247 1.066 2.257 2.38 2.257zm2.38 16.434c0 1.247-1.066 2.257-2.38 2.257-1.315 0-2.381-1.01-2.381-2.257 0-1.246 1.066-2.257 2.38-2.257 1.316 0 2.382 1.011 2.382 2.257zm-2.38 20.948c1.314 0 2.38-1.01 2.38-2.257s-1.066-2.257-2.38-2.257c-1.315 0-2.381 1.01-2.381 2.257s1.066 2.257 2.38 2.257zm21.142-394.425c0 1.246-1.066 2.257-2.381 2.257-1.314 0-2.38-1.011-2.38-2.257 0-1.247 1.066-2.257 2.38-2.257 1.315 0 2.381 1.01 2.381 2.257zm0 18.69c0 1.247-1.066 2.258-2.381 2.258-1.314 0-2.38-1.011-2.38-2.258 0-1.246 1.066-2.257 2.38-2.257 1.315 0 2.381 1.011 2.381 2.257zm-2.381 20.948c1.315 0 2.381-1.01 2.381-2.257 0-1.246-1.066-2.257-2.381-2.257-1.314 0-2.38 1.011-2.38 2.257 0 1.247 1.066 2.257 2.38 2.257zm2.381 16.434c0 1.247-1.066 2.257-2.381 2.257-1.314 0-2.38-1.01-2.38-2.257s1.066-2.257 2.38-2.257c1.315 0 2.381 1.01 2.381 2.257zm-2.381 20.948c1.315 0 2.381-1.01 2.381-2.257s-1.066-2.257-2.381-2.257c-1.314 0-2.38 1.01-2.38 2.257s1.066 2.257 2.38 2.257zm2.381 16.434c0 1.246-1.066 2.257-2.381 2.257-1.314 0-2.38-1.011-2.38-2.257 0-1.247 1.066-2.258 2.38-2.258 1.315 0 2.381 1.011 2.381 2.258zm-2.381 20.947c1.315 0 2.381-1.01 2.381-2.257 0-1.246-1.066-2.257-2.381-2.257-1.314 0-2.38 1.011-2.38 2.257 0 1.247 1.066 2.257 2.38 2.257zm2.381 16.434c0 1.247-1.066 2.257-2.381 2.257-1.314 0-2.38-1.01-2.38-2.257 0-1.246 1.066-2.257 2.38-2.257 1.315 0 2.381 1.011 2.381 2.257zm-2.381 20.948c1.315 0 2.381-1.011 2.381-2.257 0-1.247-1.066-2.257-2.381-2.257-1.314 0-2.38 1.01-2.38 2.257 0 1.246 1.066 2.257 2.38 2.257zm2.381 16.434c0 1.246-1.066 2.257-2.381 2.257-1.314 0-2.38-1.011-2.38-2.257 0-1.247 1.066-2.258 2.38-2.258 1.315 0 2.381 1.011 2.381 2.258zm-2.381 20.948c1.315 0 2.381-1.011 2.381-2.257 0-1.247-1.066-2.258-2.381-2.258-1.314 0-2.38 1.011-2.38 2.258 0 1.246 1.066 2.257 2.38 2.257zm2.381 16.433c0 1.247-1.066 2.257-2.381 2.257-1.314 0-2.38-1.01-2.38-2.257 0-1.246 1.066-2.257 2.38-2.257 1.315 0 2.381 1.011 2.381 2.257zm-2.381 21.182c1.315 0 2.381-1.01 2.381-2.257 0-1.246-1.066-2.257-2.381-2.257-1.314 0-2.38 1.011-2.38 2.257 0 1.247 1.066 2.257 2.38 2.257zm2.381 16.434c0 1.246-1.066 2.257-2.381 2.257-1.314 0-2.38-1.011-2.38-2.257 0-1.247 1.066-2.257 2.38-2.257 1.315 0 2.381 1.01 2.381 2.257zm-2.381 20.948c1.315 0 2.381-1.011 2.381-2.257 0-1.247-1.066-2.257-2.381-2.257-1.314 0-2.38 1.01-2.38 2.257 0 1.246 1.066 2.257 2.38 2.257zm2.381 16.433c0 1.247-1.066 2.258-2.381 2.258-1.314 0-2.38-1.011-2.38-2.258 0-1.246 1.066-2.257 2.38-2.257 1.315 0 2.381 1.011 2.381 2.257zm-2.381 20.948c1.315 0 2.381-1.01 2.381-2.257 0-1.246-1.066-2.257-2.381-2.257-1.314 0-2.38 1.011-2.38 2.257 0 1.247 1.066 2.257 2.38 2.257zm2.381 15.862c0 1.247-1.066 2.257-2.381 2.257-1.314 0-2.38-1.01-2.38-2.257s1.066-2.257 2.38-2.257c1.315 0 2.381 1.01 2.381 2.257zm-2.381 20.948c1.315 0 2.381-1.011 2.381-2.257 0-1.247-1.066-2.257-2.381-2.257-1.314 0-2.38 1.01-2.38 2.257 0 1.246 1.066 2.257 2.38 2.257zm2.381 16.433c0 1.247-1.066 2.257-2.381 2.257-1.315 0-2.38-1.01-2.38-2.257 0-1.246 1.065-2.257 2.38-2.257s2.381 1.011 2.381 2.257zm-2.381 20.948c1.315 0 2.381-1.01 2.381-2.257 0-1.246-1.066-2.257-2.381-2.257-1.315 0-2.38 1.011-2.38 2.257 0 1.247 1.065 2.257 2.38 2.257zm2.381 16.434c0 1.247-1.066 2.257-2.381 2.257-1.315 0-2.38-1.01-2.38-2.257s1.065-2.257 2.38-2.257 2.381 1.01 2.381 2.257zm16.381-389.911c1.315 0 2.381-1.011 2.381-2.257 0-1.247-1.066-2.257-2.381-2.257-1.315 0-2.381 1.01-2.381 2.257 0 1.246 1.066 2.257 2.381 2.257zm0 18.691c1.315 0 2.381-1.011 2.381-2.258 0-1.246-1.066-2.257-2.381-2.257-1.315 0-2.381 1.011-2.381 2.257 0 1.247 1.066 2.258 2.381 2.258zm2.381 16.433c0 1.247-1.066 2.257-2.381 2.257-1.315 0-2.381-1.01-2.381-2.257 0-1.246 1.066-2.257 2.381-2.257 1.315 0 2.381 1.011 2.381 2.257zm-2.381 20.948c1.315 0 2.381-1.01 2.381-2.257s-1.066-2.257-2.381-2.257c-1.315 0-2.381 1.01-2.381 2.257s1.066 2.257 2.381 2.257zm2.381 16.434c0 1.247-1.066 2.257-2.381 2.257-1.315 0-2.381-1.01-2.381-2.257s1.066-2.257 2.381-2.257c1.315 0 2.381 1.01 2.381 2.257zm-2.381 20.948c1.315 0 2.381-1.011 2.381-2.257 0-1.247-1.066-2.258-2.381-2.258-1.315 0-2.381 1.011-2.381 2.258 0 1.246 1.066 2.257 2.381 2.257zm2.381 16.433c0 1.247-1.066 2.257-2.381 2.257-1.315 0-2.381-1.01-2.381-2.257 0-1.246 1.066-2.257 2.381-2.257 1.315 0 2.381 1.011 2.381 2.257zm-2.381 20.948c1.315 0 2.381-1.01 2.381-2.257 0-1.246-1.066-2.257-2.381-2.257-1.315 0-2.381 1.011-2.381 2.257 0 1.247 1.066 2.257 2.381 2.257zm2.381 16.434c0 1.246-1.066 2.257-2.381 2.257-1.315 0-2.381-1.011-2.381-2.257 0-1.247 1.066-2.257 2.381-2.257 1.315 0 2.381 1.01 2.381 2.257zm-2.381 20.948c1.315 0 2.381-1.011 2.381-2.257 0-1.247-1.066-2.258-2.381-2.258-1.315 0-2.381 1.011-2.381 2.258 0 1.246 1.066 2.257 2.381 2.257zm2.381 16.434c0 1.246-1.066 2.257-2.381 2.257-1.315 0-2.381-1.011-2.381-2.257 0-1.247 1.066-2.258 2.381-2.258 1.315 0 2.381 1.011 2.381 2.258zm-2.381 20.947c1.315 0 2.381-1.01 2.381-2.257 0-1.246-1.066-2.257-2.381-2.257-1.315 0-2.381 1.011-2.381 2.257 0 1.247 1.066 2.257 2.381 2.257zm2.381 16.668c0 1.247-1.066 2.257-2.381 2.257-1.315 0-2.381-1.01-2.381-2.257 0-1.246 1.066-2.257 2.381-2.257 1.315 0 2.381 1.011 2.381 2.257zm-2.381 20.948c1.315 0 2.381-1.011 2.381-2.257 0-1.247-1.066-2.257-2.381-2.257-1.315 0-2.381 1.01-2.381 2.257 0 1.246 1.066 2.257 2.381 2.257zm2.381 16.434c0 1.246-1.066 2.257-2.381 2.257-1.315 0-2.381-1.011-2.381-2.257 0-1.247 1.066-2.257 2.381-2.257 1.315 0 2.381 1.01 2.381 2.257zm-2.381 20.948c1.315 0 2.381-1.011 2.381-2.258 0-1.246-1.066-2.257-2.381-2.257-1.315 0-2.381 1.011-2.381 2.257 0 1.247 1.066 2.258 2.381 2.258zm2.381 16.433c0 1.247-1.066 2.257-2.381 2.257-1.315 0-2.381-1.01-2.381-2.257 0-1.246 1.066-2.257 2.381-2.257 1.315 0 2.381 1.011 2.381 2.257zm-2.381 20.376c1.315 0 2.381-1.01 2.381-2.257s-1.066-2.257-2.381-2.257c-1.315 0-2.381 1.01-2.381 2.257s1.066 2.257 2.381 2.257zm2.381 16.434c0 1.246-1.066 2.257-2.381 2.257-1.315 0-2.381-1.011-2.381-2.257 0-1.247 1.066-2.257 2.381-2.257 1.315 0 2.381 1.01 2.381 2.257zm-2.381 20.947c1.315 0 2.381-1.01 2.381-2.257 0-1.246-1.066-2.257-2.381-2.257-1.315 0-2.381 1.011-2.381 2.257 0 1.247 1.066 2.257 2.381 2.257zm2.381 16.434c0 1.247-1.066 2.257-2.381 2.257-1.315 0-2.381-1.01-2.381-2.257 0-1.246 1.066-2.257 2.381-2.257 1.315 0 2.381 1.011 2.381 2.257zm-2.381 20.948c1.315 0 2.381-1.01 2.381-2.257s-1.066-2.257-2.381-2.257c-1.315 0-2.381 1.01-2.381 2.257s1.066 2.257 2.381 2.257zm21.143-394.425c0 1.246-1.066 2.257-2.381 2.257-1.315 0-2.381-1.011-2.381-2.257 0-1.247 1.066-2.257 2.381-2.257 1.315 0 2.381 1.01 2.381 2.257zm0 18.69c0 1.247-1.066 2.258-2.381 2.258-1.315 0-2.381-1.011-2.381-2.258 0-1.246 1.066-2.257 2.381-2.257 1.315 0 2.381 1.011 2.381 2.257zm-2.381 20.948c1.315 0 2.381-1.01 2.381-2.257 0-1.246-1.066-2.257-2.381-2.257-1.315 0-2.381 1.011-2.381 2.257 0 1.247 1.066 2.257 2.381 2.257zm2.381 16.434c0 1.247-1.066 2.257-2.381 2.257-1.315 0-2.381-1.01-2.381-2.257s1.066-2.257 2.381-2.257c1.315 0 2.381 1.01 2.381 2.257zm-2.381 20.948c1.315 0 2.381-1.01 2.381-2.257s-1.066-2.257-2.381-2.257c-1.315 0-2.381 1.01-2.381 2.257s1.066 2.257 2.381 2.257zm2.381 16.434c0 1.246-1.066 2.257-2.381 2.257-1.315 0-2.381-1.011-2.381-2.257 0-1.247 1.066-2.258 2.381-2.258 1.315 0 2.381 1.011 2.381 2.258zm-2.381 20.947c1.315 0 2.381-1.01 2.381-2.257 0-1.246-1.066-2.257-2.381-2.257-1.315 0-2.381 1.011-2.381 2.257 0 1.247 1.066 2.257 2.381 2.257zm2.381 16.434c0 1.247-1.066 2.257-2.381 2.257-1.315 0-2.381-1.01-2.381-2.257 0-1.246 1.066-2.257 2.381-2.257 1.315 0 2.381 1.011 2.381 2.257zm-2.381 20.948c1.315 0 2.381-1.011 2.381-2.257 0-1.247-1.066-2.257-2.381-2.257-1.315 0-2.381 1.01-2.381 2.257 0 1.246 1.066 2.257 2.381 2.257zm2.381 16.434c0 1.246-1.066 2.257-2.381 2.257-1.315 0-2.381-1.011-2.381-2.257 0-1.247 1.066-2.258 2.381-2.258 1.315 0 2.381 1.011 2.381 2.258zm-2.381 20.948c1.315 0 2.381-1.011 2.381-2.257 0-1.247-1.066-2.258-2.381-2.258-1.315 0-2.381 1.011-2.381 2.258 0 1.246 1.066 2.257 2.381 2.257zm2.381 16.433c0 1.247-1.066 2.257-2.381 2.257-1.315 0-2.381-1.01-2.381-2.257 0-1.246 1.066-2.257 2.381-2.257 1.315 0 2.381 1.011 2.381 2.257zm-2.381 21.182c1.315 0 2.381-1.01 2.381-2.257 0-1.246-1.066-2.257-2.381-2.257-1.315 0-2.381 1.011-2.381 2.257 0 1.247 1.066 2.257 2.381 2.257zm2.381 16.434c0 1.246-1.066 2.257-2.381 2.257-1.315 0-2.381-1.011-2.381-2.257 0-1.247 1.066-2.257 2.381-2.257 1.315 0 2.381 1.01 2.381 2.257zm-2.381 20.948c1.315 0 2.381-1.011 2.381-2.257 0-1.247-1.066-2.257-2.381-2.257-1.315 0-2.381 1.01-2.381 2.257 0 1.246 1.066 2.257 2.381 2.257zm2.381 16.433c0 1.247-1.066 2.258-2.381 2.258-1.315 0-2.381-1.011-2.381-2.258 0-1.246 1.066-2.257 2.381-2.257 1.315 0 2.381 1.011 2.381 2.257zm-2.381 20.948c1.315 0 2.381-1.01 2.381-2.257 0-1.246-1.066-2.257-2.381-2.257-1.315 0-2.381 1.011-2.381 2.257 0 1.247 1.066 2.257 2.381 2.257zm2.381 15.862c0 1.247-1.066 2.257-2.381 2.257-1.315 0-2.381-1.01-2.381-2.257s1.066-2.257 2.381-2.257c1.315 0 2.381 1.01 2.381 2.257zm-2.381 20.948c1.315 0 2.381-1.011 2.381-2.257 0-1.247-1.066-2.257-2.381-2.257-1.315 0-2.381 1.01-2.381 2.257 0 1.246 1.066 2.257 2.381 2.257zm2.381 16.433c0 1.247-1.066 2.257-2.381 2.257-1.315 0-2.381-1.01-2.381-2.257 0-1.246 1.066-2.257 2.381-2.257 1.315 0 2.381 1.011 2.381 2.257zm-2.381 20.948c1.315 0 2.381-1.01 2.381-2.257 0-1.246-1.066-2.257-2.381-2.257-1.315 0-2.381 1.011-2.381 2.257 0 1.247 1.066 2.257 2.381 2.257zm2.381 16.434c0 1.247-1.066 2.257-2.381 2.257-1.315 0-2.381-1.01-2.381-2.257s1.066-2.257 2.381-2.257c1.315 0 2.381 1.01 2.381 2.257zm16.381-389.911c1.314 0 2.38-1.011 2.38-2.257 0-1.247-1.066-2.257-2.38-2.257-1.315 0-2.381 1.01-2.381 2.257 0 1.246 1.066 2.257 2.381 2.257zm0 18.691c1.314 0 2.38-1.011 2.38-2.258 0-1.246-1.066-2.257-2.38-2.257-1.315 0-2.381 1.011-2.381 2.257 0 1.247 1.066 2.258 2.381 2.258zm2.38 16.433c0 1.247-1.066 2.257-2.38 2.257-1.315 0-2.381-1.01-2.381-2.257 0-1.246 1.066-2.257 2.381-2.257 1.314 0 2.38 1.011 2.38 2.257zm-2.38 20.948c1.314 0 2.38-1.01 2.38-2.257s-1.066-2.257-2.38-2.257c-1.315 0-2.381 1.01-2.381 2.257s1.066 2.257 2.381 2.257zm2.38 16.434c0 1.247-1.066 2.257-2.38 2.257-1.315 0-2.381-1.01-2.381-2.257s1.066-2.257 2.381-2.257c1.314 0 2.38 1.01 2.38 2.257zm-2.38 20.948c1.314 0 2.38-1.011 2.38-2.257 0-1.247-1.066-2.258-2.38-2.258-1.315 0-2.381 1.011-2.381 2.258 0 1.246 1.066 2.257 2.381 2.257zm2.38 16.433c0 1.247-1.066 2.257-2.38 2.257-1.315 0-2.381-1.01-2.381-2.257 0-1.246 1.066-2.257 2.381-2.257 1.314 0 2.38 1.011 2.38 2.257zm-2.38 20.948c1.314 0 2.38-1.01 2.38-2.257 0-1.246-1.066-2.257-2.38-2.257-1.315 0-2.381 1.011-2.381 2.257 0 1.247 1.066 2.257 2.381 2.257zm2.38 16.434c0 1.246-1.066 2.257-2.38 2.257-1.315 0-2.381-1.011-2.381-2.257 0-1.247 1.066-2.257 2.381-2.257 1.314 0 2.38 1.01 2.38 2.257zm-2.38 20.948c1.314 0 2.38-1.011 2.38-2.257 0-1.247-1.066-2.258-2.38-2.258-1.315 0-2.381 1.011-2.381 2.258 0 1.246 1.066 2.257 2.381 2.257zm2.38 16.434c0 1.246-1.066 2.257-2.38 2.257-1.315 0-2.381-1.011-2.381-2.257 0-1.247 1.066-2.258 2.381-2.258 1.314 0 2.38 1.011 2.38 2.258zm-2.38 20.947c1.314 0 2.38-1.01 2.38-2.257 0-1.246-1.066-2.257-2.38-2.257-1.315 0-2.381 1.011-2.381 2.257 0 1.247 1.066 2.257 2.381 2.257zm2.38 16.668c0 1.247-1.066 2.257-2.38 2.257-1.315 0-2.381-1.01-2.381-2.257 0-1.246 1.066-2.257 2.381-2.257 1.314 0 2.38 1.011 2.38 2.257zm-2.38 20.948c1.314 0 2.38-1.011 2.38-2.257 0-1.247-1.066-2.257-2.38-2.257-1.315 0-2.381 1.01-2.381 2.257 0 1.246 1.066 2.257 2.381 2.257zm2.38 16.434c0 1.246-1.066 2.257-2.38 2.257-1.315 0-2.381-1.011-2.381-2.257 0-1.247 1.066-2.257 2.381-2.257 1.314 0 2.38 1.01 2.38 2.257zm-2.38 20.948c1.314 0 2.38-1.011 2.38-2.258 0-1.246-1.066-2.257-2.38-2.257-1.315 0-2.381 1.011-2.381 2.257 0 1.247 1.066 2.258 2.381 2.258zm2.38 16.433c0 1.247-1.066 2.257-2.38 2.257-1.315 0-2.381-1.01-2.381-2.257 0-1.246 1.066-2.257 2.381-2.257 1.314 0 2.38 1.011 2.38 2.257zm-2.38 20.376c1.314 0 2.38-1.01 2.38-2.257s-1.066-2.257-2.38-2.257c-1.315 0-2.381 1.01-2.381 2.257s1.066 2.257 2.381 2.257zm2.38 16.434c0 1.246-1.066 2.257-2.38 2.257-1.315 0-2.381-1.011-2.381-2.257 0-1.247 1.066-2.257 2.381-2.257 1.314 0 2.38 1.01 2.38 2.257zm-2.381 20.947c1.315 0 2.381-1.01 2.381-2.257 0-1.246-1.066-2.257-2.381-2.257-1.314 0-2.38 1.011-2.38 2.257 0 1.247 1.066 2.257 2.38 2.257zm2.381 16.434c0 1.247-1.066 2.257-2.381 2.257-1.314 0-2.38-1.01-2.38-2.257 0-1.246 1.066-2.257 2.38-2.257 1.315 0 2.381 1.011 2.381 2.257zm-2.381 20.948c1.315 0 2.381-1.01 2.381-2.257s-1.066-2.257-2.381-2.257c-1.314 0-2.38 1.01-2.38 2.257s1.066 2.257 2.38 2.257zm21.143-394.425c0 1.246-1.066 2.257-2.381 2.257-1.315 0-2.381-1.011-2.381-2.257 0-1.247 1.066-2.257 2.381-2.257 1.315 0 2.381 1.01 2.381 2.257zm0 18.69c0 1.247-1.066 2.258-2.381 2.258-1.315 0-2.381-1.011-2.381-2.258 0-1.246 1.066-2.257 2.381-2.257 1.315 0 2.381 1.011 2.381 2.257zm-2.381 20.948c1.315 0 2.381-1.01 2.381-2.257 0-1.246-1.066-2.257-2.381-2.257-1.315 0-2.381 1.011-2.381 2.257 0 1.247 1.066 2.257 2.381 2.257zm2.381 16.434c0 1.247-1.066 2.257-2.381 2.257-1.315 0-2.381-1.01-2.381-2.257s1.066-2.257 2.381-2.257c1.315 0 2.381 1.01 2.381 2.257zm-2.381 20.948c1.315 0 2.381-1.01 2.381-2.257s-1.066-2.257-2.381-2.257c-1.315 0-2.381 1.01-2.381 2.257s1.066 2.257 2.381 2.257zm2.381 16.434c0 1.246-1.066 2.257-2.381 2.257-1.315 0-2.381-1.011-2.381-2.257 0-1.247 1.066-2.257 2.381-2.257 1.315 0 2.381 1.01 2.381 2.257zm-2.381 20.947c1.315 0 2.381-1.01 2.381-2.257 0-1.246-1.066-2.257-2.381-2.257-1.315 0-2.381 1.011-2.381 2.257 0 1.247 1.066 2.257 2.381 2.257zm2.381 16.434c0 1.247-1.066 2.257-2.381 2.257-1.315 0-2.381-1.01-2.381-2.257 0-1.246 1.066-2.257 2.381-2.257 1.315 0 2.381 1.011 2.381 2.257zm-2.381 20.948c1.315 0 2.381-1.011 2.381-2.257 0-1.247-1.066-2.257-2.381-2.257-1.315 0-2.381 1.01-2.381 2.257 0 1.246 1.066 2.257 2.381 2.257zm2.381 16.434c0 1.246-1.066 2.257-2.381 2.257-1.315 0-2.381-1.011-2.381-2.257 0-1.247 1.066-2.258 2.381-2.258 1.315 0 2.381 1.011 2.381 2.258zm-2.381 20.948c1.315 0 2.381-1.011 2.381-2.257 0-1.247-1.066-2.258-2.381-2.258-1.315 0-2.381 1.011-2.381 2.258 0 1.246 1.066 2.257 2.381 2.257zm2.381 16.433c0 1.247-1.066 2.257-2.381 2.257-1.315 0-2.381-1.01-2.381-2.257 0-1.246 1.066-2.257 2.381-2.257 1.315 0 2.381 1.011 2.381 2.257zm-2.381 21.182c1.315 0 2.381-1.01 2.381-2.257 0-1.246-1.066-2.257-2.381-2.257-1.315 0-2.381 1.011-2.381 2.257 0 1.247 1.066 2.257 2.381 2.257zm2.381 16.434c0 1.246-1.066 2.257-2.381 2.257-1.315 0-2.381-1.011-2.381-2.257 0-1.247 1.066-2.257 2.381-2.257 1.315 0 2.381 1.01 2.381 2.257zm-2.381 20.948c1.315 0 2.381-1.011 2.381-2.257 0-1.247-1.066-2.257-2.381-2.257-1.315 0-2.381 1.01-2.381 2.257 0 1.246 1.066 2.257 2.381 2.257zm2.381 16.433c0 1.247-1.066 2.258-2.381 2.258-1.315 0-2.381-1.011-2.381-2.258 0-1.246 1.066-2.257 2.381-2.257 1.315 0 2.381 1.011 2.381 2.257zm-2.381 20.948c1.315 0 2.381-1.01 2.381-2.257 0-1.246-1.066-2.257-2.381-2.257-1.315 0-2.381 1.011-2.381 2.257 0 1.247 1.066 2.257 2.381 2.257zm2.381 15.862c0 1.247-1.066 2.257-2.381 2.257-1.315 0-2.381-1.01-2.381-2.257s1.066-2.257 2.381-2.257c1.315 0 2.381 1.01 2.381 2.257zm-2.381 20.948c1.315 0 2.381-1.011 2.381-2.257 0-1.247-1.066-2.257-2.381-2.257-1.315 0-2.381 1.01-2.381 2.257 0 1.246 1.066 2.257 2.381 2.257zm2.381 16.433c0 1.247-1.066 2.257-2.381 2.257-1.315 0-2.381-1.01-2.381-2.257 0-1.246 1.066-2.257 2.381-2.257 1.315 0 2.381 1.011 2.381 2.257zm-2.381 20.948c1.315 0 2.381-1.01 2.381-2.257 0-1.246-1.066-2.257-2.381-2.257-1.315 0-2.381 1.011-2.381 2.257 0 1.247 1.066 2.257 2.381 2.257zm2.381 16.434c0 1.247-1.066 2.257-2.381 2.257-1.315 0-2.381-1.01-2.381-2.257s1.066-2.257 2.381-2.257c1.315 0 2.381 1.01 2.381 2.257zm16.381-389.911c1.315 0 2.381-1.011 2.381-2.257 0-1.247-1.066-2.257-2.381-2.257-1.315 0-2.381 1.01-2.381 2.257 0 1.246 1.066 2.257 2.381 2.257zm0 18.691c1.315 0 2.381-1.011 2.381-2.258 0-1.246-1.066-2.257-2.381-2.257-1.315 0-2.381 1.011-2.381 2.257 0 1.247 1.066 2.258 2.381 2.258zm2.381 16.433c0 1.247-1.066 2.257-2.381 2.257-1.315 0-2.381-1.01-2.381-2.257 0-1.246 1.066-2.257 2.381-2.257 1.315 0 2.381 1.011 2.381 2.257zm-2.381 20.948c1.315 0 2.381-1.01 2.381-2.257s-1.066-2.257-2.381-2.257c-1.315 0-2.381 1.01-2.381 2.257s1.066 2.257 2.381 2.257zm2.381 16.434c0 1.247-1.066 2.257-2.381 2.257-1.315 0-2.381-1.01-2.381-2.257s1.066-2.257 2.381-2.257c1.315 0 2.381 1.01 2.381 2.257zm-2.381 20.948c1.315 0 2.381-1.011 2.381-2.257 0-1.247-1.066-2.257-2.381-2.257-1.315 0-2.381 1.01-2.381 2.257 0 1.246 1.066 2.257 2.381 2.257zm2.381 16.433c0 1.247-1.066 2.257-2.381 2.257-1.315 0-2.381-1.01-2.381-2.257 0-1.246 1.066-2.257 2.381-2.257 1.315 0 2.381 1.011 2.381 2.257zm-2.381 20.948c1.315 0 2.381-1.01 2.381-2.257 0-1.246-1.066-2.257-2.381-2.257-1.315 0-2.381 1.011-2.381 2.257 0 1.247 1.066 2.257 2.381 2.257zm2.381 16.434c0 1.246-1.066 2.257-2.381 2.257-1.315 0-2.381-1.011-2.381-2.257 0-1.247 1.066-2.257 2.381-2.257 1.315 0 2.381 1.01 2.381 2.257zm-2.381 20.948c1.315 0 2.381-1.011 2.381-2.257 0-1.247-1.066-2.258-2.381-2.258-1.315 0-2.381 1.011-2.381 2.258 0 1.246 1.066 2.257 2.381 2.257zm2.381 16.434c0 1.246-1.066 2.257-2.381 2.257-1.315 0-2.381-1.011-2.381-2.257 0-1.247 1.066-2.258 2.381-2.258 1.315 0 2.381 1.011 2.381 2.258zm-2.381 20.947c1.315 0 2.381-1.01 2.381-2.257 0-1.246-1.066-2.257-2.381-2.257-1.315 0-2.381 1.011-2.381 2.257 0 1.247 1.066 2.257 2.381 2.257zm2.381 16.668c0 1.247-1.066 2.257-2.381 2.257-1.315 0-2.381-1.01-2.381-2.257 0-1.246 1.066-2.257 2.381-2.257 1.315 0 2.381 1.011 2.381 2.257zm-2.381 20.948c1.315 0 2.381-1.011 2.381-2.257 0-1.247-1.066-2.257-2.381-2.257-1.315 0-2.381 1.01-2.381 2.257 0 1.246 1.066 2.257 2.381 2.257zm2.381 16.434c0 1.246-1.066 2.257-2.381 2.257-1.315 0-2.381-1.011-2.381-2.257 0-1.247 1.066-2.257 2.381-2.257 1.315 0 2.381 1.01 2.381 2.257zm-2.381 20.948c1.315 0 2.381-1.011 2.381-2.258 0-1.246-1.066-2.257-2.381-2.257-1.315 0-2.381 1.011-2.381 2.257 0 1.247 1.066 2.258 2.381 2.258zm2.381 16.433c0 1.247-1.066 2.257-2.381 2.257-1.315 0-2.381-1.01-2.381-2.257 0-1.246 1.066-2.257 2.381-2.257 1.315 0 2.381 1.011 2.381 2.257zm-2.381 20.376c1.315 0 2.381-1.01 2.381-2.257s-1.066-2.257-2.381-2.257c-1.315 0-2.381 1.01-2.381 2.257s1.066 2.257 2.381 2.257zm2.381 16.434c0 1.246-1.066 2.257-2.381 2.257-1.315 0-2.381-1.011-2.381-2.257 0-1.247 1.066-2.257 2.381-2.257 1.315 0 2.381 1.01 2.381 2.257zm-2.381 20.947c1.315 0 2.381-1.01 2.381-2.257 0-1.246-1.066-2.257-2.381-2.257-1.315 0-2.381 1.011-2.381 2.257 0 1.247 1.066 2.257 2.381 2.257zm2.381 16.434c0 1.247-1.066 2.257-2.381 2.257-1.315 0-2.381-1.01-2.381-2.257 0-1.246 1.066-2.257 2.381-2.257 1.315 0 2.381 1.011 2.381 2.257zm-2.381 20.948c1.315 0 2.381-1.01 2.381-2.257s-1.066-2.257-2.381-2.257c-1.315 0-2.381 1.01-2.381 2.257s1.066 2.257 2.381 2.257zm21.143-394.425c0 1.246-1.066 2.257-2.381 2.257-1.315 0-2.381-1.011-2.381-2.257 0-1.247 1.066-2.257 2.381-2.257 1.315 0 2.381 1.01 2.381 2.257zm0 18.69c0 1.247-1.066 2.258-2.381 2.258-1.315 0-2.381-1.011-2.381-2.258 0-1.246 1.066-2.257 2.381-2.257 1.315 0 2.381 1.011 2.381 2.257zm-2.381 20.948c1.315 0 2.381-1.01 2.381-2.257 0-1.246-1.066-2.257-2.381-2.257-1.315 0-2.381 1.011-2.381 2.257 0 1.247 1.066 2.257 2.381 2.257zm2.381 16.434c0 1.247-1.066 2.257-2.381 2.257-1.315 0-2.381-1.01-2.381-2.257s1.066-2.257 2.381-2.257c1.315 0 2.381 1.01 2.381 2.257zm-2.381 20.948c1.315 0 2.381-1.01 2.381-2.257s-1.066-2.257-2.381-2.257c-1.315 0-2.381 1.01-2.381 2.257s1.066 2.257 2.381 2.257zm2.381 16.434c0 1.246-1.066 2.257-2.381 2.257-1.315 0-2.381-1.011-2.381-2.257 0-1.247 1.066-2.258 2.381-2.258 1.315 0 2.381 1.011 2.381 2.258zm-2.381 20.947c1.315 0 2.381-1.01 2.381-2.257 0-1.246-1.066-2.257-2.381-2.257-1.315 0-2.381 1.011-2.381 2.257 0 1.247 1.066 2.257 2.381 2.257zm2.381 16.434c0 1.247-1.066 2.257-2.381 2.257-1.315 0-2.381-1.01-2.381-2.257 0-1.246 1.066-2.257 2.381-2.257 1.315 0 2.381 1.011 2.381 2.257zm-2.381 20.948c1.315 0 2.381-1.011 2.381-2.257 0-1.247-1.066-2.257-2.381-2.257-1.315 0-2.381 1.01-2.381 2.257 0 1.246 1.066 2.257 2.381 2.257zm2.381 16.434c0 1.246-1.066 2.257-2.381 2.257-1.315 0-2.381-1.011-2.381-2.257 0-1.247 1.066-2.258 2.381-2.258 1.315 0 2.381 1.011 2.381 2.258zm-2.381 20.948c1.315 0 2.381-1.011 2.381-2.257 0-1.247-1.066-2.258-2.381-2.258-1.315 0-2.381 1.011-2.381 2.258 0 1.246 1.066 2.257 2.381 2.257zm2.381 16.433c0 1.247-1.066 2.257-2.381 2.257-1.315 0-2.381-1.01-2.381-2.257 0-1.246 1.066-2.257 2.381-2.257 1.315 0 2.381 1.011 2.381 2.257zm-2.381 21.182c1.315 0 2.381-1.01 2.381-2.257 0-1.246-1.066-2.257-2.381-2.257-1.315 0-2.381 1.011-2.381 2.257 0 1.247 1.066 2.257 2.381 2.257zm2.381 16.434c0 1.246-1.066 2.257-2.381 2.257-1.315 0-2.381-1.011-2.381-2.257 0-1.247 1.066-2.257 2.381-2.257 1.315 0 2.381 1.01 2.381 2.257zm-2.381 20.948c1.315 0 2.381-1.011 2.381-2.257 0-1.247-1.066-2.257-2.381-2.257-1.315 0-2.381 1.01-2.381 2.257 0 1.246 1.066 2.257 2.381 2.257zm2.381 16.433c0 1.247-1.066 2.258-2.381 2.258-1.315 0-2.381-1.011-2.381-2.258 0-1.246 1.066-2.257 2.381-2.257 1.315 0 2.381 1.011 2.381 2.257zm-2.381 20.948c1.315 0 2.381-1.01 2.381-2.257 0-1.246-1.066-2.257-2.381-2.257-1.315 0-2.381 1.011-2.381 2.257 0 1.247 1.066 2.257 2.381 2.257zm2.381 15.862c0 1.247-1.066 2.257-2.381 2.257-1.315 0-2.381-1.01-2.381-2.257s1.066-2.257 2.381-2.257c1.315 0 2.381 1.01 2.381 2.257zm-2.381 20.948c1.315 0 2.381-1.011 2.381-2.257 0-1.247-1.066-2.257-2.381-2.257-1.315 0-2.381 1.01-2.381 2.257 0 1.246 1.066 2.257 2.381 2.257zm2.381 16.433c0 1.247-1.066 2.257-2.381 2.257-1.315 0-2.381-1.01-2.381-2.257 0-1.246 1.066-2.257 2.381-2.257 1.315 0 2.381 1.011 2.381 2.257zm-2.381 20.948c1.315 0 2.38-1.01 2.38-2.257 0-1.246-1.065-2.257-2.38-2.257s-2.381 1.011-2.381 2.257c0 1.247 1.066 2.257 2.381 2.257zm2.38 16.434c0 1.247-1.065 2.257-2.38 2.257s-2.381-1.01-2.381-2.257 1.066-2.257 2.381-2.257c1.315 0 2.38 1.01 2.38 2.257zm16.381-389.911c1.315 0 2.381-1.011 2.381-2.257 0-1.247-1.066-2.257-2.381-2.257-1.314 0-2.38 1.01-2.38 2.257 0 1.246 1.066 2.257 2.38 2.257zm0 18.691c1.315 0 2.381-1.011 2.381-2.258 0-1.246-1.066-2.257-2.381-2.257-1.314 0-2.38 1.011-2.38 2.257 0 1.247 1.066 2.258 2.38 2.258zm2.381 16.433c0 1.247-1.066 2.257-2.381 2.257-1.314 0-2.38-1.01-2.38-2.257 0-1.246 1.066-2.257 2.38-2.257 1.315 0 2.381 1.011 2.381 2.257zm-2.381 20.948c1.315 0 2.381-1.01 2.381-2.257s-1.066-2.257-2.381-2.257c-1.314 0-2.38 1.01-2.38 2.257s1.066 2.257 2.38 2.257zm2.381 16.434c0 1.247-1.066 2.257-2.381 2.257-1.314 0-2.38-1.01-2.38-2.257s1.066-2.257 2.38-2.257c1.315 0 2.381 1.01 2.381 2.257zm-2.381 20.948c1.315 0 2.381-1.011 2.381-2.257 0-1.247-1.066-2.258-2.381-2.258-1.314 0-2.38 1.011-2.38 2.258 0 1.246 1.066 2.257 2.38 2.257zm2.381 16.433c0 1.247-1.066 2.257-2.381 2.257-1.314 0-2.38-1.01-2.38-2.257 0-1.246 1.066-2.257 2.38-2.257 1.315 0 2.381 1.011 2.381 2.257zm-2.381 20.948c1.315 0 2.381-1.01 2.381-2.257 0-1.246-1.066-2.257-2.381-2.257-1.314 0-2.38 1.011-2.38 2.257 0 1.247 1.066 2.257 2.38 2.257zm2.381 16.434c0 1.246-1.066 2.257-2.381 2.257-1.314 0-2.38-1.011-2.38-2.257 0-1.247 1.066-2.257 2.38-2.257 1.315 0 2.381 1.01 2.381 2.257zm-2.381 20.948c1.315 0 2.381-1.011 2.381-2.257 0-1.247-1.066-2.258-2.381-2.258-1.314 0-2.38 1.011-2.38 2.258 0 1.246 1.066 2.257 2.38 2.257zm2.381 16.434c0 1.246-1.066 2.257-2.381 2.257-1.314 0-2.38-1.011-2.38-2.257 0-1.247 1.066-2.258 2.38-2.258 1.315 0 2.381 1.011 2.381 2.258zm-2.381 20.947c1.315 0 2.381-1.01 2.381-2.257 0-1.246-1.066-2.257-2.381-2.257-1.314 0-2.38 1.011-2.38 2.257 0 1.247 1.066 2.257 2.38 2.257zm2.381 16.668c0 1.247-1.066 2.257-2.381 2.257-1.314 0-2.38-1.01-2.38-2.257 0-1.246 1.066-2.257 2.38-2.257 1.315 0 2.381 1.011 2.381 2.257zm-2.381 20.948c1.315 0 2.381-1.011 2.381-2.257 0-1.247-1.066-2.257-2.381-2.257-1.314 0-2.38 1.01-2.38 2.257 0 1.246 1.066 2.257 2.38 2.257zm2.381 16.434c0 1.246-1.066 2.257-2.381 2.257-1.314 0-2.38-1.011-2.38-2.257 0-1.247 1.066-2.257 2.38-2.257 1.315 0 2.381 1.01 2.381 2.257zm-2.381 20.948c1.315 0 2.381-1.011 2.381-2.258 0-1.246-1.066-2.257-2.381-2.257-1.314 0-2.38 1.011-2.38 2.257 0 1.247 1.066 2.258 2.38 2.258zm2.381 16.433c0 1.247-1.066 2.257-2.381 2.257-1.314 0-2.38-1.01-2.38-2.257 0-1.246 1.066-2.257 2.38-2.257 1.315 0 2.381 1.011 2.381 2.257zm-2.381 20.376c1.315 0 2.381-1.01 2.381-2.257s-1.066-2.257-2.381-2.257c-1.314 0-2.38 1.01-2.38 2.257s1.066 2.257 2.38 2.257zm2.381 16.434c0 1.246-1.066 2.257-2.381 2.257-1.314 0-2.38-1.011-2.38-2.257 0-1.247 1.066-2.257 2.38-2.257 1.315 0 2.381 1.01 2.381 2.257zm-2.381 20.947c1.315 0 2.381-1.01 2.381-2.257 0-1.246-1.066-2.257-2.381-2.257-1.315 0-2.38 1.011-2.38 2.257 0 1.247 1.065 2.257 2.38 2.257zm2.381 16.434c0 1.247-1.066 2.257-2.381 2.257-1.315 0-2.38-1.01-2.38-2.257 0-1.246 1.065-2.257 2.38-2.257s2.381 1.011 2.381 2.257zm-2.381 20.948c1.315 0 2.381-1.01 2.381-2.257s-1.066-2.257-2.381-2.257c-1.315 0-2.38 1.01-2.38 2.257s1.065 2.257 2.38 2.257zm21.143-394.425c0 1.246-1.066 2.257-2.381 2.257-1.315 0-2.381-1.011-2.381-2.257 0-1.247 1.066-2.257 2.381-2.257 1.315 0 2.381 1.01 2.381 2.257zm0 18.69c0 1.247-1.066 2.258-2.381 2.258-1.315 0-2.381-1.011-2.381-2.258 0-1.246 1.066-2.257 2.381-2.257 1.315 0 2.381 1.011 2.381 2.257zm-2.381 20.948c1.315 0 2.381-1.01 2.381-2.257 0-1.246-1.066-2.257-2.381-2.257-1.315 0-2.381 1.011-2.381 2.257 0 1.247 1.066 2.257 2.381 2.257zm2.381 16.434c0 1.247-1.066 2.257-2.381 2.257-1.315 0-2.381-1.01-2.381-2.257s1.066-2.257 2.381-2.257c1.315 0 2.381 1.01 2.381 2.257zm-2.381 20.948c1.315 0 2.381-1.01 2.381-2.257s-1.066-2.257-2.381-2.257c-1.315 0-2.381 1.01-2.381 2.257s1.066 2.257 2.381 2.257zm2.381 16.434c0 1.246-1.066 2.257-2.381 2.257-1.315 0-2.381-1.011-2.381-2.257 0-1.247 1.066-2.258 2.381-2.258 1.315 0 2.381 1.011 2.381 2.258zm-2.381 20.947c1.315 0 2.381-1.01 2.381-2.257 0-1.246-1.066-2.257-2.381-2.257-1.315 0-2.381 1.011-2.381 2.257 0 1.247 1.066 2.257 2.381 2.257zm2.381 16.434c0 1.247-1.066 2.257-2.381 2.257-1.315 0-2.381-1.01-2.381-2.257 0-1.246 1.066-2.257 2.381-2.257 1.315 0 2.381 1.011 2.381 2.257zm-2.381 20.948c1.315 0 2.381-1.011 2.381-2.257 0-1.247-1.066-2.257-2.381-2.257-1.315 0-2.381 1.01-2.381 2.257 0 1.246 1.066 2.257 2.381 2.257zm2.381 16.434c0 1.246-1.066 2.257-2.381 2.257-1.315 0-2.381-1.011-2.381-2.257 0-1.247 1.066-2.258 2.381-2.258 1.315 0 2.381 1.011 2.381 2.258zm-2.381 20.948c1.315 0 2.381-1.011 2.381-2.257 0-1.247-1.066-2.258-2.381-2.258-1.315 0-2.381 1.011-2.381 2.258 0 1.246 1.066 2.257 2.381 2.257zm2.381 16.433c0 1.247-1.066 2.257-2.381 2.257-1.315 0-2.381-1.01-2.381-2.257 0-1.246 1.066-2.257 2.381-2.257 1.315 0 2.381 1.011 2.381 2.257zm-2.381 21.182c1.315 0 2.381-1.01 2.381-2.257 0-1.246-1.066-2.257-2.381-2.257-1.315 0-2.381 1.011-2.381 2.257 0 1.247 1.066 2.257 2.381 2.257zm2.381 16.434c0 1.246-1.066 2.257-2.381 2.257-1.315 0-2.381-1.011-2.381-2.257 0-1.247 1.066-2.257 2.381-2.257 1.315 0 2.381 1.01 2.381 2.257zm-2.381 20.948c1.315 0 2.381-1.011 2.381-2.257 0-1.247-1.066-2.257-2.381-2.257-1.315 0-2.381 1.01-2.381 2.257 0 1.246 1.066 2.257 2.381 2.257zm2.381 16.433c0 1.247-1.066 2.258-2.381 2.258-1.315 0-2.381-1.011-2.381-2.258 0-1.246 1.066-2.257 2.381-2.257 1.315 0 2.381 1.011 2.381 2.257zm-2.381 20.948c1.315 0 2.381-1.01 2.381-2.257 0-1.246-1.066-2.257-2.381-2.257-1.315 0-2.381 1.011-2.381 2.257 0 1.247 1.066 2.257 2.381 2.257zm2.381 15.862c0 1.247-1.066 2.257-2.381 2.257-1.315 0-2.381-1.01-2.381-2.257s1.066-2.257 2.381-2.257c1.315 0 2.381 1.01 2.381 2.257zm-2.381 20.948c1.315 0 2.381-1.011 2.381-2.257 0-1.247-1.066-2.257-2.381-2.257-1.315 0-2.381 1.01-2.381 2.257 0 1.246 1.066 2.257 2.381 2.257zm2.381 16.433c0 1.247-1.066 2.257-2.381 2.257-1.315 0-2.381-1.01-2.381-2.257 0-1.246 1.066-2.257 2.381-2.257 1.315 0 2.381 1.011 2.381 2.257zm-2.381 20.948c1.315 0 2.381-1.01 2.381-2.257 0-1.246-1.066-2.257-2.381-2.257-1.315 0-2.381 1.011-2.381 2.257 0 1.247 1.066 2.257 2.381 2.257zm2.381 16.434c0 1.247-1.066 2.257-2.381 2.257-1.315 0-2.381-1.01-2.381-2.257s1.066-2.257 2.381-2.257c1.315 0 2.381 1.01 2.381 2.257zm16.381-389.911c1.315 0 2.381-1.011 2.381-2.257 0-1.247-1.066-2.257-2.381-2.257-1.315 0-2.381 1.01-2.381 2.257 0 1.246 1.066 2.257 2.381 2.257zm0 18.691c1.315 0 2.381-1.011 2.381-2.258 0-1.246-1.066-2.257-2.381-2.257-1.315 0-2.381 1.011-2.381 2.257 0 1.247 1.066 2.258 2.381 2.258zm2.381 16.433c0 1.247-1.066 2.257-2.381 2.257-1.315 0-2.381-1.01-2.381-2.257 0-1.246 1.066-2.257 2.381-2.257 1.315 0 2.381 1.011 2.381 2.257zm-2.381 20.948c1.315 0 2.381-1.01 2.381-2.257s-1.066-2.257-2.381-2.257c-1.315 0-2.381 1.01-2.381 2.257s1.066 2.257 2.381 2.257zm2.381 16.434c0 1.247-1.066 2.257-2.381 2.257-1.315 0-2.381-1.01-2.381-2.257s1.066-2.257 2.381-2.257c1.315 0 2.381 1.01 2.381 2.257zm-2.381 20.948c1.315 0 2.381-1.011 2.381-2.257 0-1.247-1.066-2.257-2.381-2.257-1.315 0-2.381 1.01-2.381 2.257 0 1.246 1.066 2.257 2.381 2.257zm2.381 16.433c0 1.247-1.066 2.257-2.381 2.257-1.315 0-2.381-1.01-2.381-2.257 0-1.246 1.066-2.257 2.381-2.257 1.315 0 2.381 1.011 2.381 2.257zm-2.381 20.948c1.315 0 2.381-1.01 2.381-2.257 0-1.246-1.066-2.257-2.381-2.257-1.315 0-2.381 1.011-2.381 2.257 0 1.247 1.066 2.257 2.381 2.257zm2.381 16.434c0 1.246-1.066 2.257-2.381 2.257-1.315 0-2.381-1.011-2.381-2.257 0-1.247 1.066-2.257 2.381-2.257 1.315 0 2.381 1.01 2.381 2.257zm-2.381 20.948c1.315 0 2.381-1.011 2.381-2.257 0-1.247-1.066-2.258-2.381-2.258-1.315 0-2.381 1.011-2.381 2.258 0 1.246 1.066 2.257 2.381 2.257zm2.381 16.434c0 1.246-1.066 2.257-2.381 2.257-1.315 0-2.381-1.011-2.381-2.257 0-1.247 1.066-2.258 2.381-2.258 1.315 0 2.381 1.011 2.381 2.258zm-2.381 20.947c1.315 0 2.381-1.01 2.381-2.257 0-1.246-1.066-2.257-2.381-2.257-1.315 0-2.381 1.011-2.381 2.257 0 1.247 1.066 2.257 2.381 2.257zm2.381 16.668c0 1.247-1.066 2.257-2.381 2.257-1.315 0-2.381-1.01-2.381-2.257 0-1.246 1.066-2.257 2.381-2.257 1.315 0 2.381 1.011 2.381 2.257zm-2.381 20.948c1.315 0 2.381-1.011 2.381-2.257 0-1.247-1.066-2.257-2.381-2.257-1.315 0-2.381 1.01-2.381 2.257 0 1.246 1.066 2.257 2.381 2.257zm2.381 16.434c0 1.246-1.066 2.257-2.381 2.257-1.315 0-2.381-1.011-2.381-2.257 0-1.247 1.066-2.257 2.381-2.257 1.315 0 2.381 1.01 2.381 2.257zm-2.381 20.948c1.315 0 2.381-1.011 2.381-2.258 0-1.246-1.066-2.257-2.381-2.257-1.315 0-2.381 1.011-2.381 2.257 0 1.247 1.066 2.258 2.381 2.258zm2.381 16.433c0 1.247-1.066 2.257-2.381 2.257-1.315 0-2.381-1.01-2.381-2.257 0-1.246 1.066-2.257 2.381-2.257 1.315 0 2.381 1.011 2.381 2.257zm-2.381 20.376c1.315 0 2.381-1.01 2.381-2.257s-1.066-2.257-2.381-2.257c-1.315 0-2.381 1.01-2.381 2.257s1.066 2.257 2.381 2.257zm2.381 16.434c0 1.246-1.066 2.257-2.381 2.257-1.315 0-2.381-1.011-2.381-2.257 0-1.247 1.066-2.257 2.381-2.257 1.315 0 2.381 1.01 2.381 2.257zm-2.381 20.947c1.315 0 2.381-1.01 2.381-2.257 0-1.246-1.066-2.257-2.381-2.257-1.315 0-2.381 1.011-2.381 2.257 0 1.247 1.066 2.257 2.381 2.257zm2.381 16.434c0 1.247-1.066 2.257-2.381 2.257-1.315 0-2.381-1.01-2.381-2.257 0-1.246 1.066-2.257 2.381-2.257 1.315 0 2.381 1.011 2.381 2.257zm-2.381 20.948c1.315 0 2.381-1.01 2.381-2.257s-1.066-2.257-2.381-2.257c-1.315 0-2.381 1.01-2.381 2.257s1.066 2.257 2.381 2.257zm21.142-394.425c0 1.246-1.066 2.257-2.38 2.257-1.315 0-2.381-1.011-2.381-2.257 0-1.247 1.066-2.257 2.381-2.257 1.314 0 2.38 1.01 2.38 2.257zm0 18.69c0 1.247-1.066 2.258-2.38 2.258-1.315 0-2.381-1.011-2.381-2.258 0-1.246 1.066-2.257 2.381-2.257 1.314 0 2.38 1.011 2.38 2.257zm-2.38 20.948c1.314 0 2.38-1.01 2.38-2.257 0-1.246-1.066-2.257-2.38-2.257-1.315 0-2.381 1.011-2.381 2.257 0 1.247 1.066 2.257 2.381 2.257zm2.38 16.434c0 1.247-1.066 2.257-2.38 2.257-1.315 0-2.381-1.01-2.381-2.257s1.066-2.257 2.381-2.257c1.314 0 2.38 1.01 2.38 2.257zm-2.38 20.948c1.314 0 2.38-1.01 2.38-2.257s-1.066-2.257-2.38-2.257c-1.315 0-2.381 1.01-2.381 2.257s1.066 2.257 2.381 2.257zm2.38 16.434c0 1.246-1.066 2.257-2.38 2.257-1.315 0-2.381-1.011-2.381-2.257 0-1.247 1.066-2.257 2.381-2.257 1.314 0 2.38 1.01 2.38 2.257zm-2.38 20.947c1.314 0 2.38-1.01 2.38-2.257 0-1.246-1.066-2.257-2.38-2.257-1.315 0-2.381 1.011-2.381 2.257 0 1.247 1.066 2.257 2.381 2.257zm2.38 16.434c0 1.247-1.066 2.257-2.38 2.257-1.315 0-2.381-1.01-2.381-2.257 0-1.246 1.066-2.257 2.381-2.257 1.314 0 2.38 1.011 2.38 2.257zm-2.38 20.948c1.314 0 2.38-1.011 2.38-2.257 0-1.247-1.066-2.257-2.38-2.257-1.315 0-2.381 1.01-2.381 2.257 0 1.246 1.066 2.257 2.381 2.257zm2.38 16.434c0 1.246-1.066 2.257-2.38 2.257-1.315 0-2.381-1.011-2.381-2.257 0-1.247 1.066-2.258 2.381-2.258 1.314 0 2.38 1.011 2.38 2.258zm-2.38 20.948c1.314 0 2.38-1.011 2.38-2.257 0-1.247-1.066-2.258-2.38-2.258-1.315 0-2.381 1.011-2.381 2.258 0 1.246 1.066 2.257 2.381 2.257zm2.38 16.433c0 1.247-1.066 2.257-2.38 2.257-1.315 0-2.381-1.01-2.381-2.257 0-1.246 1.066-2.257 2.381-2.257 1.314 0 2.38 1.011 2.38 2.257zm-2.38 21.182c1.314 0 2.38-1.01 2.38-2.257 0-1.246-1.066-2.257-2.38-2.257-1.315 0-2.381 1.011-2.381 2.257 0 1.247 1.066 2.257 2.381 2.257zm2.38 16.434c0 1.246-1.066 2.257-2.38 2.257-1.315 0-2.381-1.011-2.381-2.257 0-1.247 1.066-2.257 2.381-2.257 1.314 0 2.38 1.01 2.38 2.257zm-2.38 20.948c1.314 0 2.38-1.011 2.38-2.257 0-1.247-1.066-2.257-2.38-2.257-1.315 0-2.381 1.01-2.381 2.257 0 1.246 1.066 2.257 2.381 2.257zm2.38 16.433c0 1.247-1.066 2.258-2.38 2.258-1.315 0-2.381-1.011-2.381-2.258 0-1.246 1.066-2.257 2.381-2.257 1.314 0 2.38 1.011 2.38 2.257zm-2.38 20.948c1.314 0 2.38-1.01 2.38-2.257 0-1.246-1.066-2.257-2.38-2.257-1.315 0-2.381 1.011-2.381 2.257 0 1.247 1.066 2.257 2.381 2.257zm2.38 15.862c0 1.247-1.066 2.257-2.38 2.257-1.315 0-2.381-1.01-2.381-2.257s1.066-2.257 2.381-2.257c1.314 0 2.38 1.01 2.38 2.257zm-2.38 20.948c1.314 0 2.38-1.011 2.38-2.257 0-1.247-1.066-2.257-2.38-2.257-1.315 0-2.381 1.01-2.381 2.257 0 1.246 1.066 2.257 2.381 2.257zm2.38 16.433c0 1.247-1.066 2.257-2.38 2.257-1.315 0-2.381-1.01-2.381-2.257 0-1.246 1.066-2.257 2.381-2.257 1.314 0 2.38 1.011 2.38 2.257zm-2.38 20.948c1.314 0 2.38-1.01 2.38-2.257 0-1.246-1.066-2.257-2.38-2.257-1.315 0-2.381 1.011-2.381 2.257 0 1.247 1.066 2.257 2.381 2.257zm2.38 16.434c0 1.247-1.066 2.257-2.38 2.257-1.315 0-2.381-1.01-2.381-2.257s1.066-2.257 2.381-2.257c1.314 0 2.38 1.01 2.38 2.257zm16.381-389.911c1.315 0 2.381-1.011 2.381-2.257 0-1.247-1.066-2.257-2.381-2.257-1.315 0-2.381 1.01-2.381 2.257 0 1.246 1.066 2.257 2.381 2.257zm0 18.691c1.315 0 2.381-1.011 2.381-2.258 0-1.246-1.066-2.257-2.381-2.257-1.315 0-2.381 1.011-2.381 2.257 0 1.247 1.066 2.258 2.381 2.258zm2.381 16.433c0 1.247-1.066 2.257-2.381 2.257-1.315 0-2.381-1.01-2.381-2.257 0-1.246 1.066-2.257 2.381-2.257 1.315 0 2.381 1.011 2.381 2.257zm-2.381 20.948c1.315 0 2.381-1.01 2.381-2.257s-1.066-2.257-2.381-2.257c-1.315 0-2.381 1.01-2.381 2.257s1.066 2.257 2.381 2.257zm2.381 16.434c0 1.247-1.066 2.257-2.381 2.257-1.315 0-2.381-1.01-2.381-2.257s1.066-2.257 2.381-2.257c1.315 0 2.381 1.01 2.381 2.257zm-2.381 20.948c1.315 0 2.381-1.011 2.381-2.257 0-1.247-1.066-2.257-2.381-2.257-1.315 0-2.381 1.01-2.381 2.257 0 1.246 1.066 2.257 2.381 2.257zm2.381 16.433c0 1.247-1.066 2.257-2.381 2.257-1.315 0-2.381-1.01-2.381-2.257 0-1.246 1.066-2.257 2.381-2.257 1.315 0 2.381 1.011 2.381 2.257zm-2.381 20.948c1.315 0 2.381-1.01 2.381-2.257 0-1.246-1.066-2.257-2.381-2.257-1.315 0-2.381 1.011-2.381 2.257 0 1.247 1.066 2.257 2.381 2.257zm2.381 16.434c0 1.246-1.066 2.257-2.381 2.257-1.315 0-2.381-1.011-2.381-2.257 0-1.247 1.066-2.257 2.381-2.257 1.315 0 2.381 1.01 2.381 2.257zm-2.381 20.948c1.315 0 2.381-1.011 2.381-2.257 0-1.247-1.066-2.258-2.381-2.258-1.315 0-2.381 1.011-2.381 2.258 0 1.246 1.066 2.257 2.381 2.257zm2.381 16.434c0 1.246-1.066 2.257-2.381 2.257-1.315 0-2.381-1.011-2.381-2.257 0-1.247 1.066-2.258 2.381-2.258 1.315 0 2.381 1.011 2.381 2.258zm-2.381 20.947c1.315 0 2.381-1.01 2.381-2.257 0-1.246-1.066-2.257-2.381-2.257-1.315 0-2.381 1.011-2.381 2.257 0 1.247 1.066 2.257 2.381 2.257zm2.381 16.668c0 1.247-1.066 2.257-2.381 2.257-1.315 0-2.381-1.01-2.381-2.257 0-1.246 1.066-2.257 2.381-2.257 1.315 0 2.381 1.011 2.381 2.257zm-2.381 20.948c1.315 0 2.381-1.011 2.381-2.257 0-1.247-1.066-2.257-2.381-2.257-1.315 0-2.381 1.01-2.381 2.257 0 1.246 1.066 2.257 2.381 2.257zm2.381 16.434c0 1.246-1.066 2.257-2.381 2.257-1.315 0-2.381-1.011-2.381-2.257 0-1.247 1.066-2.257 2.381-2.257 1.315 0 2.381 1.01 2.381 2.257zm-2.381 20.948c1.315 0 2.381-1.011 2.381-2.258 0-1.246-1.066-2.257-2.381-2.257-1.315 0-2.381 1.011-2.381 2.257 0 1.247 1.066 2.258 2.381 2.258zm2.381 16.433c0 1.247-1.066 2.257-2.381 2.257-1.315 0-2.381-1.01-2.381-2.257 0-1.246 1.066-2.257 2.381-2.257 1.315 0 2.381 1.011 2.381 2.257zm-2.381 20.376c1.315 0 2.381-1.01 2.381-2.257s-1.066-2.257-2.381-2.257c-1.315 0-2.381 1.01-2.381 2.257s1.066 2.257 2.381 2.257zm2.381 16.434c0 1.246-1.066 2.257-2.381 2.257-1.315 0-2.381-1.011-2.381-2.257 0-1.247 1.066-2.257 2.381-2.257 1.315 0 2.381 1.01 2.381 2.257zm-2.381 20.947c1.315 0 2.381-1.01 2.381-2.257 0-1.246-1.066-2.257-2.381-2.257-1.315 0-2.381 1.011-2.381 2.257 0 1.247 1.066 2.257 2.381 2.257zm2.381 16.434c0 1.247-1.066 2.257-2.381 2.257-1.315 0-2.381-1.01-2.381-2.257 0-1.246 1.066-2.257 2.381-2.257 1.315 0 2.381 1.011 2.381 2.257zm-2.381 20.948c1.315 0 2.381-1.01 2.381-2.257s-1.066-2.257-2.381-2.257c-1.315 0-2.381 1.01-2.381 2.257s1.066 2.257 2.381 2.257zm21.143-394.425c0 1.246-1.066 2.257-2.381 2.257-1.315 0-2.381-1.011-2.381-2.257 0-1.247 1.066-2.257 2.381-2.257 1.315 0 2.381 1.01 2.381 2.257zm0 18.69c0 1.247-1.066 2.258-2.381 2.258-1.315 0-2.381-1.011-2.381-2.258 0-1.246 1.066-2.257 2.381-2.257 1.315 0 2.381 1.011 2.381 2.257zm-2.381 20.948c1.315 0 2.381-1.01 2.381-2.257 0-1.246-1.066-2.257-2.381-2.257-1.315 0-2.381 1.011-2.381 2.257 0 1.247 1.066 2.257 2.381 2.257zm2.381 16.434c0 1.247-1.066 2.257-2.381 2.257-1.315 0-2.381-1.01-2.381-2.257s1.066-2.257 2.381-2.257c1.315 0 2.381 1.01 2.381 2.257zm-2.381 20.948c1.315 0 2.381-1.01 2.381-2.257s-1.066-2.257-2.381-2.257c-1.315 0-2.381 1.01-2.381 2.257s1.066 2.257 2.381 2.257zm2.381 16.434c0 1.246-1.066 2.257-2.381 2.257-1.315 0-2.381-1.011-2.381-2.257 0-1.247 1.066-2.257 2.381-2.257 1.315 0 2.381 1.01 2.381 2.257zm-2.381 20.947c1.315 0 2.381-1.01 2.381-2.257 0-1.246-1.066-2.257-2.381-2.257-1.315 0-2.381 1.011-2.381 2.257 0 1.247 1.066 2.257 2.381 2.257zm2.381 16.434c0 1.247-1.066 2.257-2.381 2.257-1.315 0-2.381-1.01-2.381-2.257 0-1.246 1.066-2.257 2.381-2.257 1.315 0 2.381 1.011 2.381 2.257zm-2.381 20.948c1.315 0 2.381-1.011 2.381-2.257 0-1.247-1.066-2.257-2.381-2.257-1.315 0-2.381 1.01-2.381 2.257 0 1.246 1.066 2.257 2.381 2.257zm2.381 16.434c0 1.246-1.066 2.257-2.381 2.257-1.315 0-2.381-1.011-2.381-2.257 0-1.247 1.066-2.258 2.381-2.258 1.315 0 2.381 1.011 2.381 2.258zm-2.381 20.948c1.315 0 2.381-1.011 2.381-2.257 0-1.247-1.066-2.258-2.381-2.258-1.315 0-2.381 1.011-2.381 2.258 0 1.246 1.066 2.257 2.381 2.257zm2.381 16.433c0 1.247-1.066 2.257-2.381 2.257-1.315 0-2.381-1.01-2.381-2.257 0-1.246 1.066-2.257 2.381-2.257 1.315 0 2.381 1.011 2.381 2.257zm-2.381 21.182c1.315 0 2.381-1.01 2.381-2.257 0-1.246-1.066-2.257-2.381-2.257-1.315 0-2.381 1.011-2.381 2.257 0 1.247 1.066 2.257 2.381 2.257zm2.381 16.434c0 1.246-1.066 2.257-2.381 2.257-1.315 0-2.381-1.011-2.381-2.257 0-1.247 1.066-2.257 2.381-2.257 1.315 0 2.381 1.01 2.381 2.257zm-2.381 20.948c1.315 0 2.381-1.011 2.381-2.257 0-1.247-1.066-2.257-2.381-2.257-1.315 0-2.381 1.01-2.381 2.257 0 1.246 1.066 2.257 2.381 2.257zm2.381 16.433c0 1.247-1.066 2.258-2.381 2.258-1.315 0-2.381-1.011-2.381-2.258 0-1.246 1.066-2.257 2.381-2.257 1.315 0 2.381 1.011 2.381 2.257zm-2.381 20.948c1.315 0 2.381-1.01 2.381-2.257 0-1.246-1.066-2.257-2.381-2.257-1.315 0-2.381 1.011-2.381 2.257 0 1.247 1.066 2.257 2.381 2.257zm2.381 15.862c0 1.247-1.066 2.257-2.381 2.257-1.315 0-2.381-1.01-2.381-2.257s1.066-2.257 2.381-2.257c1.315 0 2.381 1.01 2.381 2.257zm-2.381 20.948c1.315 0 2.381-1.011 2.381-2.257 0-1.247-1.066-2.257-2.381-2.257-1.315 0-2.381 1.01-2.381 2.257 0 1.246 1.066 2.257 2.381 2.257zm2.381 16.433c0 1.247-1.066 2.257-2.381 2.257-1.315 0-2.381-1.01-2.381-2.257 0-1.246 1.066-2.257 2.381-2.257 1.315 0 2.381 1.011 2.381 2.257zm-2.381 20.948c1.315 0 2.381-1.01 2.381-2.257 0-1.246-1.066-2.257-2.381-2.257-1.315 0-2.381 1.011-2.381 2.257 0 1.247 1.066 2.257 2.381 2.257zm2.381 16.434c0 1.247-1.066 2.257-2.381 2.257-1.315 0-2.381-1.01-2.381-2.257s1.066-2.257 2.381-2.257c1.315 0 2.381 1.01 2.381 2.257zm16.381-389.911c1.315 0 2.381-1.011 2.381-2.257 0-1.247-1.066-2.257-2.381-2.257-1.315 0-2.381 1.01-2.381 2.257 0 1.246 1.066 2.257 2.381 2.257zm0 18.691c1.315 0 2.381-1.011 2.381-2.258 0-1.246-1.066-2.257-2.381-2.257-1.315 0-2.381 1.011-2.381 2.257 0 1.247 1.066 2.258 2.381 2.258zm2.381 16.433c0 1.247-1.066 2.257-2.381 2.257-1.315 0-2.381-1.01-2.381-2.257 0-1.246 1.066-2.257 2.381-2.257 1.315 0 2.381 1.011 2.381 2.257zm-2.381 20.948c1.315 0 2.381-1.01 2.381-2.257s-1.066-2.257-2.381-2.257c-1.315 0-2.381 1.01-2.381 2.257s1.066 2.257 2.381 2.257zm2.381 16.434c0 1.247-1.066 2.257-2.381 2.257-1.315 0-2.381-1.01-2.381-2.257s1.066-2.257 2.381-2.257c1.315 0 2.381 1.01 2.381 2.257zm-2.381 20.948c1.315 0 2.381-1.011 2.381-2.257 0-1.247-1.066-2.257-2.381-2.257-1.315 0-2.381 1.01-2.381 2.257 0 1.246 1.066 2.257 2.381 2.257zm2.381 16.433c0 1.247-1.066 2.257-2.381 2.257-1.315 0-2.381-1.01-2.381-2.257 0-1.246 1.066-2.257 2.381-2.257 1.315 0 2.381 1.011 2.381 2.257zm-2.381 20.948c1.315 0 2.381-1.01 2.381-2.257 0-1.246-1.066-2.257-2.381-2.257-1.315 0-2.381 1.011-2.381 2.257 0 1.247 1.066 2.257 2.381 2.257zm2.381 16.434c0 1.246-1.066 2.257-2.381 2.257-1.315 0-2.381-1.011-2.381-2.257 0-1.247 1.066-2.257 2.381-2.257 1.315 0 2.381 1.01 2.381 2.257zm-2.381 20.948c1.315 0 2.381-1.011 2.381-2.257 0-1.247-1.066-2.258-2.381-2.258-1.315 0-2.381 1.011-2.381 2.258 0 1.246 1.066 2.257 2.381 2.257zm2.381 16.434c0 1.246-1.066 2.257-2.381 2.257-1.315 0-2.381-1.011-2.381-2.257 0-1.247 1.066-2.258 2.381-2.258 1.315 0 2.381 1.011 2.381 2.258zm-2.381 20.947c1.315 0 2.381-1.01 2.381-2.257 0-1.246-1.066-2.257-2.381-2.257-1.315 0-2.381 1.011-2.381 2.257 0 1.247 1.066 2.257 2.381 2.257zm2.381 16.668c0 1.247-1.066 2.257-2.381 2.257-1.315 0-2.381-1.01-2.381-2.257 0-1.246 1.066-2.257 2.381-2.257 1.315 0 2.381 1.011 2.381 2.257zm-2.381 20.948c1.315 0 2.381-1.011 2.381-2.257 0-1.247-1.066-2.257-2.381-2.257-1.315 0-2.381 1.01-2.381 2.257 0 1.246 1.066 2.257 2.381 2.257zm2.381 16.434c0 1.246-1.066 2.257-2.381 2.257-1.315 0-2.381-1.011-2.381-2.257 0-1.247 1.066-2.257 2.381-2.257 1.315 0 2.381 1.01 2.381 2.257zm-2.381 20.948c1.315 0 2.381-1.011 2.381-2.258 0-1.246-1.066-2.257-2.381-2.257-1.315 0-2.381 1.011-2.381 2.257 0 1.247 1.066 2.258 2.381 2.258zm2.381 16.433c0 1.247-1.066 2.257-2.381 2.257-1.315 0-2.381-1.01-2.381-2.257 0-1.246 1.066-2.257 2.381-2.257 1.315 0 2.381 1.011 2.381 2.257zm-2.381 20.376c1.315 0 2.381-1.01 2.381-2.257s-1.066-2.257-2.381-2.257c-1.315 0-2.381 1.01-2.381 2.257s1.066 2.257 2.381 2.257zm2.381 16.434c0 1.246-1.066 2.257-2.381 2.257-1.315 0-2.381-1.011-2.381-2.257 0-1.247 1.066-2.257 2.381-2.257 1.315 0 2.381 1.01 2.381 2.257zm-2.381 20.947c1.315 0 2.381-1.01 2.381-2.257 0-1.246-1.066-2.257-2.381-2.257-1.315 0-2.381 1.011-2.381 2.257 0 1.247 1.066 2.257 2.381 2.257zm2.381 16.434c0 1.247-1.066 2.257-2.381 2.257-1.315 0-2.381-1.01-2.381-2.257 0-1.246 1.066-2.257 2.381-2.257 1.315 0 2.381 1.011 2.381 2.257zm-2.381 20.948c1.315 0 2.381-1.01 2.381-2.257s-1.066-2.257-2.381-2.257c-1.315 0-2.381 1.01-2.381 2.257s1.066 2.257 2.381 2.257zm21.142-394.425c0 1.246-1.066 2.257-2.381 2.257-1.314 0-2.38-1.011-2.38-2.257 0-1.247 1.066-2.257 2.38-2.257 1.315 0 2.381 1.01 2.381 2.257zm0 18.69c0 1.247-1.066 2.258-2.381 2.258-1.314 0-2.38-1.011-2.38-2.258 0-1.246 1.066-2.257 2.38-2.257 1.315 0 2.381 1.011 2.381 2.257zm-2.381 20.948c1.315 0 2.381-1.01 2.381-2.257 0-1.246-1.066-2.257-2.381-2.257-1.314 0-2.38 1.011-2.38 2.257 0 1.247 1.066 2.257 2.38 2.257zm2.381 16.434c0 1.247-1.066 2.257-2.381 2.257-1.314 0-2.38-1.01-2.38-2.257s1.066-2.257 2.38-2.257c1.315 0 2.381 1.01 2.381 2.257zm-2.381 20.948c1.315 0 2.381-1.01 2.381-2.257s-1.066-2.257-2.381-2.257c-1.314 0-2.38 1.01-2.38 2.257s1.066 2.257 2.38 2.257zm2.381 16.434c0 1.246-1.066 2.257-2.381 2.257-1.314 0-2.38-1.011-2.38-2.257 0-1.247 1.066-2.257 2.38-2.257 1.315 0 2.381 1.01 2.381 2.257zm-2.381 20.947c1.315 0 2.381-1.01 2.381-2.257 0-1.246-1.066-2.257-2.381-2.257-1.314 0-2.38 1.011-2.38 2.257 0 1.247 1.066 2.257 2.38 2.257zm2.381 16.434c0 1.247-1.066 2.257-2.381 2.257-1.314 0-2.38-1.01-2.38-2.257 0-1.246 1.066-2.257 2.38-2.257 1.315 0 2.381 1.011 2.381 2.257zm-2.381 20.948c1.315 0 2.381-1.011 2.381-2.257 0-1.247-1.066-2.257-2.381-2.257-1.314 0-2.38 1.01-2.38 2.257 0 1.246 1.066 2.257 2.38 2.257zm2.381 16.434c0 1.246-1.066 2.257-2.381 2.257-1.314 0-2.38-1.011-2.38-2.257 0-1.247 1.066-2.258 2.38-2.258 1.315 0 2.381 1.011 2.381 2.258zm-2.381 20.948c1.315 0 2.381-1.011 2.381-2.257 0-1.247-1.066-2.258-2.381-2.258-1.314 0-2.38 1.011-2.38 2.258 0 1.246 1.066 2.257 2.38 2.257zm2.381 16.433c0 1.247-1.066 2.257-2.381 2.257-1.314 0-2.38-1.01-2.38-2.257 0-1.246 1.066-2.257 2.38-2.257 1.315 0 2.381 1.011 2.381 2.257zm-2.381 21.182c1.315 0 2.381-1.01 2.381-2.257 0-1.246-1.066-2.257-2.381-2.257-1.314 0-2.38 1.011-2.38 2.257 0 1.247 1.066 2.257 2.38 2.257zm2.381 16.434c0 1.246-1.066 2.257-2.381 2.257-1.314 0-2.38-1.011-2.38-2.257 0-1.247 1.066-2.257 2.38-2.257 1.315 0 2.381 1.01 2.381 2.257zm-2.381 20.948c1.315 0 2.381-1.011 2.381-2.257 0-1.247-1.066-2.257-2.381-2.257-1.314 0-2.38 1.01-2.38 2.257 0 1.246 1.066 2.257 2.38 2.257zm2.381 16.433c0 1.247-1.066 2.258-2.381 2.258-1.314 0-2.38-1.011-2.38-2.258 0-1.246 1.066-2.257 2.38-2.257 1.315 0 2.381 1.011 2.381 2.257zm-2.381 20.948c1.315 0 2.381-1.01 2.381-2.257 0-1.246-1.066-2.257-2.381-2.257-1.314 0-2.38 1.011-2.38 2.257 0 1.247 1.066 2.257 2.38 2.257zm2.381 15.862c0 1.247-1.066 2.257-2.381 2.257-1.314 0-2.38-1.01-2.38-2.257s1.066-2.257 2.38-2.257c1.315 0 2.381 1.01 2.381 2.257zm-2.381 20.948c1.315 0 2.381-1.011 2.381-2.257 0-1.247-1.066-2.257-2.381-2.257-1.314 0-2.38 1.01-2.38 2.257 0 1.246 1.066 2.257 2.38 2.257zm2.381 16.433c0 1.247-1.066 2.257-2.381 2.257-1.314 0-2.38-1.01-2.38-2.257 0-1.246 1.066-2.257 2.38-2.257 1.315 0 2.381 1.011 2.381 2.257zm-2.381 20.948c1.315 0 2.381-1.01 2.381-2.257 0-1.246-1.066-2.257-2.381-2.257-1.314 0-2.38 1.011-2.38 2.257 0 1.247 1.066 2.257 2.38 2.257zm2.381 16.434c0 1.247-1.066 2.257-2.381 2.257-1.314 0-2.38-1.01-2.38-2.257s1.066-2.257 2.38-2.257c1.315 0 2.381 1.01 2.381 2.257zm16.381-389.911c1.315 0 2.381-1.011 2.381-2.257 0-1.247-1.066-2.257-2.381-2.257-1.315 0-2.381 1.01-2.381 2.257 0 1.246 1.066 2.257 2.381 2.257zm0 18.691c1.315 0 2.381-1.011 2.381-2.258 0-1.246-1.066-2.257-2.381-2.257-1.315 0-2.381 1.011-2.381 2.257 0 1.247 1.066 2.258 2.381 2.258zm2.381 16.433c0 1.247-1.066 2.257-2.381 2.257-1.315 0-2.381-1.01-2.381-2.257 0-1.246 1.066-2.257 2.381-2.257 1.315 0 2.381 1.011 2.381 2.257zm-2.381 20.948c1.315 0 2.381-1.01 2.381-2.257s-1.066-2.257-2.381-2.257c-1.315 0-2.381 1.01-2.381 2.257s1.066 2.257 2.381 2.257zm2.381 16.434c0 1.247-1.066 2.257-2.381 2.257-1.315 0-2.381-1.01-2.381-2.257s1.066-2.257 2.381-2.257c1.315 0 2.381 1.01 2.381 2.257zm-2.381 20.948c1.315 0 2.381-1.011 2.381-2.257 0-1.247-1.066-2.257-2.381-2.257-1.315 0-2.381 1.01-2.381 2.257 0 1.246 1.066 2.257 2.381 2.257zm2.381 16.433c0 1.247-1.066 2.257-2.381 2.257-1.315 0-2.381-1.01-2.381-2.257 0-1.246 1.066-2.257 2.381-2.257 1.315 0 2.381 1.011 2.381 2.257zm-2.381 20.948c1.315 0 2.381-1.01 2.381-2.257 0-1.246-1.066-2.257-2.381-2.257-1.315 0-2.381 1.011-2.381 2.257 0 1.247 1.066 2.257 2.381 2.257zm2.381 16.434c0 1.246-1.066 2.257-2.381 2.257-1.315 0-2.381-1.011-2.381-2.257 0-1.247 1.066-2.257 2.381-2.257 1.315 0 2.381 1.01 2.381 2.257zm-2.381 20.948c1.315 0 2.381-1.011 2.381-2.257 0-1.247-1.066-2.258-2.381-2.258-1.315 0-2.381 1.011-2.381 2.258 0 1.246 1.066 2.257 2.381 2.257zm2.381 16.434c0 1.246-1.066 2.257-2.381 2.257-1.315 0-2.381-1.011-2.381-2.257 0-1.247 1.066-2.258 2.381-2.258 1.315 0 2.381 1.011 2.381 2.258zm-2.381 20.947c1.315 0 2.381-1.01 2.381-2.257 0-1.246-1.066-2.257-2.381-2.257-1.315 0-2.381 1.011-2.381 2.257 0 1.247 1.066 2.257 2.381 2.257zm2.381 16.668c0 1.247-1.066 2.257-2.381 2.257-1.315 0-2.381-1.01-2.381-2.257 0-1.246 1.066-2.257 2.381-2.257 1.315 0 2.381 1.011 2.381 2.257zm-2.381 20.948c1.315 0 2.381-1.011 2.381-2.257 0-1.247-1.066-2.257-2.381-2.257-1.315 0-2.381 1.01-2.381 2.257 0 1.246 1.066 2.257 2.381 2.257zm2.381 16.434c0 1.246-1.066 2.257-2.381 2.257-1.315 0-2.381-1.011-2.381-2.257 0-1.247 1.066-2.257 2.381-2.257 1.315 0 2.381 1.01 2.381 2.257zm-2.381 20.948c1.315 0 2.381-1.011 2.381-2.258 0-1.246-1.066-2.257-2.381-2.257-1.315 0-2.381 1.011-2.381 2.257 0 1.247 1.066 2.258 2.381 2.258zm2.381 16.433c0 1.247-1.066 2.257-2.381 2.257-1.315 0-2.381-1.01-2.381-2.257 0-1.246 1.066-2.257 2.381-2.257 1.315 0 2.381 1.011 2.381 2.257zm-2.381 20.376c1.315 0 2.381-1.01 2.381-2.257s-1.066-2.257-2.381-2.257c-1.315 0-2.381 1.01-2.381 2.257s1.066 2.257 2.381 2.257zm2.381 16.434c0 1.246-1.066 2.257-2.381 2.257-1.315 0-2.381-1.011-2.381-2.257 0-1.247 1.066-2.257 2.381-2.257 1.315 0 2.381 1.01 2.381 2.257zm-2.381 20.947c1.315 0 2.381-1.01 2.381-2.257 0-1.246-1.066-2.257-2.381-2.257-1.315 0-2.381 1.011-2.381 2.257 0 1.247 1.066 2.257 2.381 2.257zm2.381 16.434c0 1.247-1.066 2.257-2.381 2.257-1.315 0-2.381-1.01-2.381-2.257 0-1.246 1.066-2.257 2.381-2.257 1.315 0 2.381 1.011 2.381 2.257zm-2.381 20.948c1.315 0 2.381-1.01 2.381-2.257s-1.066-2.257-2.381-2.257c-1.315 0-2.381 1.01-2.381 2.257s1.066 2.257 2.381 2.257zm21.143-394.425c0 1.246-1.066 2.257-2.381 2.257-1.315 0-2.381-1.011-2.381-2.257 0-1.247 1.066-2.257 2.381-2.257 1.315 0 2.381 1.01 2.381 2.257zm0 18.69c0 1.247-1.066 2.258-2.381 2.258-1.315 0-2.381-1.011-2.381-2.258 0-1.246 1.066-2.257 2.381-2.257 1.315 0 2.381 1.011 2.381 2.257zm-2.381 20.948c1.315 0 2.381-1.01 2.381-2.257 0-1.246-1.066-2.257-2.381-2.257-1.315 0-2.381 1.011-2.381 2.257 0 1.247 1.066 2.257 2.381 2.257zm2.381 16.434c0 1.247-1.066 2.257-2.381 2.257-1.315 0-2.381-1.01-2.381-2.257s1.066-2.257 2.381-2.257c1.315 0 2.381 1.01 2.381 2.257zm-2.381 20.948c1.315 0 2.381-1.01 2.381-2.257s-1.066-2.257-2.381-2.257c-1.315 0-2.381 1.01-2.381 2.257s1.066 2.257 2.381 2.257zm2.381 16.434c0 1.246-1.066 2.257-2.381 2.257-1.315 0-2.381-1.011-2.381-2.257 0-1.247 1.066-2.257 2.381-2.257 1.315 0 2.381 1.01 2.381 2.257zm-2.381 20.947c1.315 0 2.381-1.01 2.381-2.257 0-1.246-1.066-2.257-2.381-2.257-1.315 0-2.381 1.011-2.381 2.257 0 1.247 1.066 2.257 2.381 2.257zm2.381 16.434c0 1.247-1.066 2.257-2.381 2.257-1.315 0-2.381-1.01-2.381-2.257 0-1.246 1.066-2.257 2.381-2.257 1.315 0 2.381 1.011 2.381 2.257zm-2.381 20.948c1.315 0 2.381-1.011 2.381-2.257 0-1.247-1.066-2.257-2.381-2.257-1.315 0-2.381 1.01-2.381 2.257 0 1.246 1.066 2.257 2.381 2.257zm2.381 16.434c0 1.246-1.066 2.257-2.381 2.257-1.315 0-2.381-1.011-2.381-2.257 0-1.247 1.066-2.258 2.381-2.258 1.315 0 2.381 1.011 2.381 2.258zm-2.381 20.948c1.315 0 2.381-1.011 2.381-2.257 0-1.247-1.066-2.258-2.381-2.258-1.315 0-2.381 1.011-2.381 2.258 0 1.246 1.066 2.257 2.381 2.257zm2.381 16.433c0 1.247-1.066 2.257-2.381 2.257-1.315 0-2.381-1.01-2.381-2.257 0-1.246 1.066-2.257 2.381-2.257 1.315 0 2.381 1.011 2.381 2.257zm-2.381 21.182c1.315 0 2.381-1.01 2.381-2.257 0-1.246-1.066-2.257-2.381-2.257-1.315 0-2.381 1.011-2.381 2.257 0 1.247 1.066 2.257 2.381 2.257zm2.381 16.434c0 1.246-1.066 2.257-2.381 2.257-1.315 0-2.381-1.011-2.381-2.257 0-1.247 1.066-2.257 2.381-2.257 1.315 0 2.381 1.01 2.381 2.257zm-2.381 20.948c1.315 0 2.381-1.011 2.381-2.257 0-1.247-1.066-2.257-2.381-2.257-1.315 0-2.381 1.01-2.381 2.257 0 1.246 1.066 2.257 2.381 2.257zm2.381 16.433c0 1.247-1.066 2.258-2.381 2.258-1.315 0-2.381-1.011-2.381-2.258 0-1.246 1.066-2.257 2.381-2.257 1.315 0 2.381 1.011 2.381 2.257zm-2.381 20.948c1.315 0 2.381-1.01 2.381-2.257 0-1.246-1.066-2.257-2.381-2.257-1.315 0-2.381 1.011-2.381 2.257 0 1.247 1.066 2.257 2.381 2.257zm2.381 15.862c0 1.247-1.066 2.257-2.381 2.257-1.315 0-2.381-1.01-2.381-2.257s1.066-2.257 2.381-2.257c1.315 0 2.381 1.01 2.381 2.257zm-2.381 20.948c1.315 0 2.381-1.011 2.381-2.257 0-1.247-1.066-2.257-2.381-2.257-1.315 0-2.381 1.01-2.381 2.257 0 1.246 1.066 2.257 2.381 2.257zm2.381 16.433c0 1.247-1.066 2.257-2.381 2.257-1.315 0-2.381-1.01-2.381-2.257 0-1.246 1.066-2.257 2.381-2.257 1.315 0 2.381 1.011 2.381 2.257zm-2.381 20.948c1.315 0 2.381-1.01 2.381-2.257 0-1.246-1.066-2.257-2.381-2.257-1.315 0-2.381 1.011-2.381 2.257 0 1.247 1.066 2.257 2.381 2.257zm2.381 16.434c0 1.247-1.066 2.257-2.381 2.257-1.315 0-2.381-1.01-2.381-2.257s1.066-2.257 2.381-2.257c1.315 0 2.381 1.01 2.381 2.257zm16.381-389.911c1.314 0 2.38-1.011 2.38-2.257 0-1.247-1.066-2.257-2.38-2.257-1.315 0-2.381 1.01-2.381 2.257 0 1.246 1.066 2.257 2.381 2.257zm0 18.691c1.314 0 2.38-1.011 2.38-2.258 0-1.246-1.066-2.257-2.38-2.257-1.315 0-2.381 1.011-2.381 2.257 0 1.247 1.066 2.258 2.381 2.258zm2.38 16.433c0 1.247-1.066 2.258-2.38 2.258-1.315 0-2.381-1.011-2.381-2.258 0-1.246 1.066-2.257 2.381-2.257 1.314 0 2.38 1.011 2.38 2.257zm-2.38 20.948c1.314 0 2.38-1.01 2.38-2.257s-1.066-2.257-2.38-2.257c-1.315 0-2.381 1.01-2.381 2.257s1.066 2.257 2.381 2.257zm2.38 16.434c0 1.247-1.066 2.257-2.38 2.257-1.315 0-2.381-1.01-2.381-2.257s1.066-2.257 2.381-2.257c1.314 0 2.38 1.01 2.38 2.257zm-2.38 20.948c1.314 0 2.38-1.011 2.38-2.257 0-1.247-1.066-2.257-2.38-2.257-1.315 0-2.381 1.01-2.381 2.257 0 1.246 1.066 2.257 2.381 2.257zm2.38 16.433c0 1.247-1.066 2.257-2.38 2.257-1.315 0-2.381-1.01-2.381-2.257 0-1.246 1.066-2.257 2.381-2.257 1.314 0 2.38 1.011 2.38 2.257zm-2.38 20.948c1.314 0 2.38-1.01 2.38-2.257 0-1.246-1.066-2.257-2.38-2.257-1.315 0-2.381 1.011-2.381 2.257 0 1.247 1.066 2.257 2.381 2.257zm2.38 16.434c0 1.246-1.066 2.257-2.38 2.257-1.315 0-2.381-1.011-2.381-2.257 0-1.247 1.066-2.257 2.381-2.257 1.314 0 2.38 1.01 2.38 2.257zm-2.38 20.948c1.314 0 2.38-1.011 2.38-2.257 0-1.247-1.066-2.258-2.38-2.258-1.315 0-2.381 1.011-2.381 2.258 0 1.246 1.066 2.257 2.381 2.257zm2.38 16.434c0 1.246-1.066 2.257-2.38 2.257-1.315 0-2.381-1.011-2.381-2.257 0-1.247 1.066-2.258 2.381-2.258 1.314 0 2.38 1.011 2.38 2.258zm-2.38 20.947c1.314 0 2.38-1.01 2.38-2.257 0-1.246-1.066-2.257-2.38-2.257-1.315 0-2.381 1.011-2.381 2.257 0 1.247 1.066 2.257 2.381 2.257zm2.38 16.668c0 1.247-1.066 2.257-2.38 2.257-1.315 0-2.381-1.01-2.381-2.257 0-1.246 1.066-2.257 2.381-2.257 1.314 0 2.38 1.011 2.38 2.257zm-2.38 20.948c1.314 0 2.38-1.011 2.38-2.257 0-1.247-1.066-2.257-2.38-2.257-1.315 0-2.381 1.01-2.381 2.257 0 1.246 1.066 2.257 2.381 2.257zm2.38 16.434c0 1.246-1.066 2.257-2.38 2.257-1.315 0-2.381-1.011-2.381-2.257 0-1.247 1.066-2.257 2.381-2.257 1.314 0 2.38 1.01 2.38 2.257zm-2.38 20.948c1.314 0 2.38-1.011 2.38-2.258 0-1.246-1.066-2.257-2.38-2.257-1.315 0-2.381 1.011-2.381 2.257 0 1.247 1.066 2.258 2.381 2.258zm2.38 16.433c0 1.247-1.066 2.257-2.38 2.257-1.315 0-2.381-1.01-2.381-2.257 0-1.246 1.066-2.257 2.381-2.257 1.314 0 2.38 1.011 2.38 2.257zm-2.38 20.376c1.314 0 2.38-1.01 2.38-2.257s-1.066-2.257-2.38-2.257c-1.315 0-2.381 1.01-2.381 2.257s1.066 2.257 2.381 2.257zm2.38 16.434c0 1.246-1.066 2.257-2.38 2.257-1.315 0-2.381-1.011-2.381-2.257 0-1.247 1.066-2.257 2.381-2.257 1.314 0 2.38 1.01 2.38 2.257zm-2.38 20.947c1.314 0 2.38-1.01 2.38-2.257 0-1.246-1.066-2.257-2.38-2.257-1.315 0-2.381 1.011-2.381 2.257 0 1.247 1.066 2.257 2.381 2.257zm2.38 16.434c0 1.247-1.066 2.257-2.38 2.257-1.315 0-2.381-1.01-2.381-2.257 0-1.246 1.066-2.257 2.381-2.257 1.314 0 2.38 1.011 2.38 2.257zm-2.38 20.948c1.314 0 2.38-1.01 2.38-2.257s-1.066-2.257-2.38-2.257c-1.315 0-2.381 1.01-2.381 2.257s1.066 2.257 2.381 2.257zm21.142-394.425c0 1.246-1.066 2.257-2.381 2.257-1.315 0-2.381-1.011-2.381-2.257 0-1.247 1.066-2.257 2.381-2.257 1.315 0 2.381 1.01 2.381 2.257zm0 18.69c0 1.247-1.066 2.258-2.381 2.258-1.315 0-2.381-1.011-2.381-2.258 0-1.246 1.066-2.257 2.381-2.257 1.315 0 2.381 1.011 2.381 2.257zm-2.381 20.948c1.315 0 2.381-1.01 2.381-2.257 0-1.246-1.066-2.257-2.381-2.257-1.315 0-2.381 1.011-2.381 2.257 0 1.247 1.066 2.257 2.381 2.257zm2.381 16.434c0 1.247-1.066 2.257-2.381 2.257-1.315 0-2.381-1.01-2.381-2.257s1.066-2.257 2.381-2.257c1.315 0 2.381 1.01 2.381 2.257zm-2.381 20.948c1.315 0 2.381-1.01 2.381-2.257s-1.066-2.257-2.381-2.257c-1.315 0-2.381 1.01-2.381 2.257s1.066 2.257 2.381 2.257zm2.381 16.434c0 1.246-1.066 2.257-2.381 2.257-1.315 0-2.381-1.011-2.381-2.257 0-1.247 1.066-2.257 2.381-2.257 1.315 0 2.381 1.01 2.381 2.257zm-2.381 20.947c1.315 0 2.381-1.01 2.381-2.257 0-1.246-1.066-2.257-2.381-2.257-1.315 0-2.381 1.011-2.381 2.257 0 1.247 1.066 2.257 2.381 2.257zm2.381 16.434c0 1.247-1.066 2.257-2.381 2.257-1.315 0-2.381-1.01-2.381-2.257 0-1.246 1.066-2.257 2.381-2.257 1.315 0 2.381 1.011 2.381 2.257zm-2.381 20.948c1.315 0 2.381-1.011 2.381-2.257 0-1.247-1.066-2.257-2.381-2.257-1.315 0-2.381 1.01-2.381 2.257 0 1.246 1.066 2.257 2.381 2.257zm2.381 16.434c0 1.246-1.066 2.257-2.381 2.257-1.315 0-2.381-1.011-2.381-2.257 0-1.247 1.066-2.258 2.381-2.258 1.315 0 2.381 1.011 2.381 2.258zm-2.381 20.948c1.315 0 2.381-1.011 2.381-2.257 0-1.247-1.066-2.258-2.381-2.258-1.315 0-2.381 1.011-2.381 2.258 0 1.246 1.066 2.257 2.381 2.257zm2.381 16.433c0 1.247-1.066 2.257-2.381 2.257-1.315 0-2.381-1.01-2.381-2.257 0-1.246 1.066-2.257 2.381-2.257 1.315 0 2.381 1.011 2.381 2.257zm-2.381 21.182c1.315 0 2.381-1.01 2.381-2.257 0-1.246-1.066-2.257-2.381-2.257-1.315 0-2.381 1.011-2.381 2.257 0 1.247 1.066 2.257 2.381 2.257zm2.381 16.434c0 1.246-1.066 2.257-2.381 2.257-1.315 0-2.381-1.011-2.381-2.257 0-1.247 1.066-2.257 2.381-2.257 1.315 0 2.381 1.01 2.381 2.257zm-2.381 20.948c1.315 0 2.381-1.011 2.381-2.257 0-1.247-1.066-2.257-2.381-2.257-1.315 0-2.381 1.01-2.381 2.257 0 1.246 1.066 2.257 2.381 2.257zm2.381 16.434c0 1.246-1.066 2.257-2.381 2.257-1.315 0-2.381-1.011-2.381-2.257 0-1.247 1.066-2.258 2.381-2.258 1.315 0 2.381 1.011 2.381 2.258zm-2.381 20.947c1.315 0 2.381-1.01 2.381-2.257 0-1.246-1.066-2.257-2.381-2.257-1.315 0-2.381 1.011-2.381 2.257 0 1.247 1.066 2.257 2.381 2.257zm2.381 15.862c0 1.247-1.066 2.257-2.381 2.257-1.315 0-2.381-1.01-2.381-2.257s1.066-2.257 2.381-2.257c1.315 0 2.381 1.01 2.381 2.257zm-2.381 20.948c1.315 0 2.381-1.011 2.381-2.257 0-1.247-1.066-2.257-2.381-2.257-1.315 0-2.381 1.01-2.381 2.257 0 1.246 1.066 2.257 2.381 2.257zm2.381 16.433c0 1.247-1.066 2.257-2.381 2.257-1.315 0-2.381-1.01-2.381-2.257 0-1.246 1.066-2.257 2.381-2.257 1.315 0 2.381 1.011 2.381 2.257zm-2.381 20.948c1.315 0 2.381-1.01 2.381-2.257 0-1.246-1.066-2.257-2.381-2.257-1.315 0-2.381 1.011-2.381 2.257 0 1.247 1.066 2.257 2.381 2.257zm2.381 16.434c0 1.247-1.066 2.257-2.381 2.257-1.315 0-2.381-1.01-2.381-2.257s1.066-2.257 2.381-2.257c1.315 0 2.381 1.01 2.381 2.257zm16.381-389.911c1.315 0 2.381-1.011 2.381-2.257 0-1.247-1.066-2.257-2.381-2.257-1.315 0-2.381 1.01-2.381 2.257 0 1.246 1.066 2.257 2.381 2.257zm0 18.691c1.315 0 2.381-1.011 2.381-2.258 0-1.246-1.066-2.257-2.381-2.257-1.315 0-2.381 1.011-2.381 2.257 0 1.247 1.066 2.258 2.381 2.258zm2.381 16.433c0 1.247-1.066 2.257-2.381 2.257-1.315 0-2.381-1.01-2.381-2.257 0-1.246 1.066-2.257 2.381-2.257 1.315 0 2.381 1.011 2.381 2.257zm-2.381 20.948c1.315 0 2.381-1.01 2.381-2.257s-1.066-2.257-2.381-2.257c-1.315 0-2.381 1.01-2.381 2.257s1.066 2.257 2.381 2.257zm2.381 16.434c0 1.247-1.066 2.257-2.381 2.257-1.315 0-2.381-1.01-2.381-2.257s1.066-2.257 2.381-2.257c1.315 0 2.381 1.01 2.381 2.257zm-2.381 20.948c1.315 0 2.381-1.011 2.381-2.257 0-1.247-1.066-2.257-2.381-2.257-1.315 0-2.381 1.01-2.381 2.257 0 1.246 1.066 2.257 2.381 2.257zm2.381 16.433c0 1.247-1.066 2.257-2.381 2.257-1.315 0-2.381-1.01-2.381-2.257 0-1.246 1.066-2.257 2.381-2.257 1.315 0 2.381 1.011 2.381 2.257zm-2.381 20.948c1.315 0 2.381-1.01 2.381-2.257 0-1.246-1.066-2.257-2.381-2.257-1.315 0-2.381 1.011-2.381 2.257 0 1.247 1.066 2.257 2.381 2.257zm2.381 16.434c0 1.246-1.066 2.257-2.381 2.257-1.315 0-2.381-1.011-2.381-2.257 0-1.247 1.066-2.257 2.381-2.257 1.315 0 2.381 1.01 2.381 2.257zm-2.381 20.948c1.315 0 2.381-1.011 2.381-2.257 0-1.247-1.066-2.258-2.381-2.258-1.315 0-2.381 1.011-2.381 2.258 0 1.246 1.066 2.257 2.381 2.257zm2.381 16.434c0 1.246-1.066 2.257-2.381 2.257-1.315 0-2.381-1.011-2.381-2.257 0-1.247 1.066-2.258 2.381-2.258 1.315 0 2.381 1.011 2.381 2.258zm-2.381 20.947c1.315 0 2.381-1.01 2.381-2.257 0-1.246-1.066-2.257-2.381-2.257-1.315 0-2.381 1.011-2.381 2.257 0 1.247 1.066 2.257 2.381 2.257zm2.381 16.668c0 1.247-1.066 2.257-2.381 2.257-1.315 0-2.381-1.01-2.381-2.257 0-1.246 1.066-2.257 2.381-2.257 1.315 0 2.381 1.011 2.381 2.257zm-2.381 20.948c1.315 0 2.381-1.011 2.381-2.257 0-1.247-1.066-2.257-2.381-2.257-1.315 0-2.381 1.01-2.381 2.257 0 1.246 1.066 2.257 2.381 2.257zm2.381 16.434c0 1.246-1.066 2.257-2.381 2.257-1.315 0-2.381-1.011-2.381-2.257 0-1.247 1.066-2.257 2.381-2.257 1.315 0 2.381 1.01 2.381 2.257zm-2.381 20.948c1.315 0 2.381-1.011 2.381-2.257 0-1.247-1.066-2.258-2.381-2.258-1.315 0-2.381 1.011-2.381 2.258 0 1.246 1.066 2.257 2.381 2.257zm2.381 16.433c0 1.247-1.066 2.257-2.381 2.257-1.315 0-2.381-1.01-2.381-2.257 0-1.246 1.066-2.257 2.381-2.257 1.315 0 2.381 1.011 2.381 2.257zm-2.381 20.376c1.315 0 2.381-1.01 2.381-2.257s-1.066-2.257-2.381-2.257c-1.315 0-2.381 1.01-2.381 2.257s1.066 2.257 2.381 2.257zm2.381 16.434c0 1.246-1.066 2.257-2.381 2.257-1.315 0-2.381-1.011-2.381-2.257 0-1.247 1.066-2.257 2.381-2.257 1.315 0 2.381 1.01 2.381 2.257zm-2.381 20.947c1.315 0 2.381-1.01 2.381-2.257 0-1.246-1.066-2.257-2.381-2.257-1.315 0-2.381 1.011-2.381 2.257 0 1.247 1.066 2.257 2.381 2.257zm2.381 16.434c0 1.247-1.066 2.257-2.381 2.257-1.315 0-2.381-1.01-2.381-2.257 0-1.246 1.066-2.257 2.381-2.257 1.315 0 2.381 1.011 2.381 2.257zm-2.381 20.948c1.315 0 2.381-1.01 2.381-2.257s-1.066-2.257-2.381-2.257c-1.315 0-2.381 1.01-2.381 2.257s1.066 2.257 2.381 2.257zm18.762-392.168c1.315 0 2.381-1.011 2.381-2.257 0-1.247-1.066-2.257-2.381-2.257-1.315 0-2.381 1.01-2.381 2.257 0 1.246 1.066 2.257 2.381 2.257zm0 18.691c1.315 0 2.381-1.011 2.381-2.258 0-1.246-1.066-2.257-2.381-2.257-1.315 0-2.381 1.011-2.381 2.257 0 1.247 1.066 2.258 2.381 2.258zm2.381 16.433c0 1.247-1.066 2.258-2.381 2.258-1.315 0-2.381-1.011-2.381-2.258 0-1.246 1.066-2.257 2.381-2.257 1.315 0 2.381 1.011 2.381 2.257zm-2.381 20.948c1.315 0 2.381-1.01 2.381-2.257s-1.066-2.257-2.381-2.257c-1.315 0-2.381 1.01-2.381 2.257s1.066 2.257 2.381 2.257zm2.381 16.434c0 1.247-1.066 2.257-2.381 2.257-1.315 0-2.381-1.01-2.381-2.257s1.066-2.257 2.381-2.257c1.315 0 2.381 1.01 2.381 2.257zm-2.381 20.948c1.315 0 2.381-1.011 2.381-2.257 0-1.247-1.066-2.257-2.381-2.257-1.315 0-2.381 1.01-2.381 2.257 0 1.246 1.066 2.257 2.381 2.257zm2.381 16.433c0 1.247-1.066 2.257-2.381 2.257-1.315 0-2.381-1.01-2.381-2.257 0-1.246 1.066-2.257 2.381-2.257 1.315 0 2.381 1.011 2.381 2.257zm-2.381 20.948c1.315 0 2.381-1.01 2.381-2.257 0-1.246-1.066-2.257-2.381-2.257-1.315 0-2.381 1.011-2.381 2.257 0 1.247 1.066 2.257 2.381 2.257zm2.381 16.434c0 1.246-1.066 2.257-2.381 2.257-1.315 0-2.381-1.011-2.381-2.257 0-1.247 1.066-2.257 2.381-2.257 1.315 0 2.381 1.01 2.381 2.257zm-2.381 20.948c1.315 0 2.381-1.011 2.381-2.257 0-1.247-1.066-2.258-2.381-2.258-1.315 0-2.381 1.011-2.381 2.258 0 1.246 1.066 2.257 2.381 2.257zm2.381 16.434c0 1.246-1.066 2.257-2.381 2.257-1.315 0-2.381-1.011-2.381-2.257 0-1.247 1.066-2.258 2.381-2.258 1.315 0 2.381 1.011 2.381 2.258zm-2.381 20.947c1.315 0 2.381-1.01 2.381-2.257 0-1.246-1.066-2.257-2.381-2.257-1.315 0-2.381 1.011-2.381 2.257 0 1.247 1.066 2.257 2.381 2.257zm2.381 16.668c0 1.247-1.066 2.257-2.381 2.257-1.315 0-2.381-1.01-2.381-2.257 0-1.246 1.066-2.257 2.381-2.257 1.315 0 2.381 1.011 2.381 2.257zm-2.381 20.948c1.315 0 2.381-1.011 2.381-2.257 0-1.247-1.066-2.257-2.381-2.257-1.315 0-2.381 1.01-2.381 2.257 0 1.246 1.066 2.257 2.381 2.257zm2.381 16.434c0 1.246-1.066 2.257-2.381 2.257-1.315 0-2.381-1.011-2.381-2.257 0-1.247 1.066-2.257 2.381-2.257 1.315 0 2.381 1.01 2.381 2.257zm-2.381 20.948c1.315 0 2.381-1.011 2.381-2.258 0-1.246-1.066-2.257-2.381-2.257-1.315 0-2.381 1.011-2.381 2.257 0 1.247 1.066 2.258 2.381 2.258zm2.381 16.433c0 1.247-1.066 2.257-2.381 2.257-1.315 0-2.381-1.01-2.381-2.257 0-1.246 1.066-2.257 2.381-2.257 1.315 0 2.381 1.011 2.381 2.257zm-2.381 20.376c1.315 0 2.381-1.01 2.381-2.257s-1.066-2.257-2.381-2.257c-1.315 0-2.381 1.01-2.381 2.257s1.066 2.257 2.381 2.257zm2.381 16.434c0 1.246-1.066 2.257-2.381 2.257-1.315 0-2.381-1.011-2.381-2.257 0-1.247 1.066-2.257 2.381-2.257 1.315 0 2.381 1.01 2.381 2.257zm-2.381 20.947c1.315 0 2.381-1.01 2.381-2.257 0-1.246-1.066-2.257-2.381-2.257-1.315 0-2.381 1.011-2.381 2.257 0 1.247 1.066 2.257 2.381 2.257zm2.381 16.434c0 1.247-1.066 2.257-2.381 2.257-1.315 0-2.381-1.01-2.381-2.257 0-1.246 1.066-2.257 2.381-2.257 1.315 0 2.381 1.011 2.381 2.257zm-2.381 20.948c1.315 0 2.381-1.01 2.381-2.257s-1.066-2.257-2.381-2.257c-1.315 0-2.381 1.01-2.381 2.257s1.066 2.257 2.381 2.257z" fill="#6C96A6" fill-opacity=".4"/>
  <g filter="url(#nbhYJrlT1ZrYa)">
    <path d="M135.184 239.536a8 8 0 014.422-7.155l208.046-104.023c5.319-2.66 11.578 1.208 11.578 7.155V386.48c0 3.03-1.712 5.8-4.423 7.155L146.761 497.658c-5.319 2.66-11.577-1.208-11.577-7.155V239.536z" fill="url(#nbhYJrlT1ZrYb)" fill-opacity=".95"/>
  </g>
  <g filter="url(#nbhYJrlT1ZrYc)">
    <path d="M194.303 398.58c-5.896-2.949-5.896-11.363 0-14.311l161.348-80.674a7.999 7.999 0 017.156 0l206.157 103.078c5.897 2.949 5.897 11.363 0 14.311l-161.348 80.674a8 8 0 01-7.155 0L194.303 398.58z" fill="url(#nbhYJrlT1ZrYd)" fill-opacity=".95"/>
  </g>
  <g filter="url(#nbhYJrlT1ZrYe)">
    <path d="M372.644 205.032l153.348-76.674c5.319-2.66 11.578 1.208 11.578 7.155v153.348c0 5.948-6.259 9.815-11.578 7.156l-153.348-76.674c-5.897-2.948-5.897-11.363 0-14.311z" fill="url(#nbhYJrlT1ZrYf)" fill-opacity=".95"/>
  </g>
  <g filter="url(#nbhYJrlT1ZrYg)">
    <path d="M314.421 68.3c0-5.948 6.258-9.816 11.578-7.156l73.618 36.81a8 8 0 014.422 7.155v161.348c0 5.947-6.258 9.815-11.577 7.155l-73.619-36.809a8 8 0 01-4.422-7.155V68.299z" fill="url(#nbhYJrlT1ZrYh)" fill-opacity=".95"/>
  </g>
  <mask id="nbhYJrlT1ZrYj" style="mask-type:alpha" maskUnits="userSpaceOnUse" x="314" y="59" width="91" height="215">
    <path d="M314.421 67.388c0-5.944 6.251-9.812 11.57-7.16l73.618 36.712a8 8 0 014.43 7.159v161.477c0 5.943-6.251 9.812-11.57 7.159l-73.618-36.711a8 8 0 01-4.43-7.159V67.388z" fill="url(#nbhYJrlT1ZrYi)" fill-opacity=".95"/>
  </mask>
  <g mask="url(#nbhYJrlT1ZrYj)">
    <path d="M356.506 225.464l-15.868-46.471c-1.617-4.735-2.456-9.425-2.461-13.75l-.222-206.703 37.178 18.402.222 206.179c.004 4.406-.858 8.325-2.526 11.479l-16.323 30.864zm4.937-19.524l8.567-16.229-13.323-6.593-12.16-5.982 8.154 24.395 8.762 4.409zm-19.01-34.762l12.43 6.153-.115-205.305-12.533-6.203.218 205.355zm16.617 8.224l12.054 5.94-.216-205.328-11.953-5.916.115 205.304z" fill="#F0F3F6"/>
  </g>
  <g filter="url(#nbhYJrlT1ZrYk)">
    <path d="M236.566 273.67l48.456-24.217 35.67 22.089v49.84L224.8 369.425l-.124-76.478c0-3.532 1.252-7.548 3.482-11.163 2.23-3.615 5.254-6.534 8.408-8.114z" fill="url(#nbhYJrlT1ZrYl)" fill-opacity=".4" shape-rendering="crispEdges"/>
  </g>
  <g filter="url(#nbhYJrlT1ZrYm)">
    <path d="M341.341 423.935c-4.46 0-8.737-.887-11.89-2.467l-104.65-52.043 95.892-48.043 103.877 52.043c3.154 1.579 4.925 3.722 4.925 5.956 0 2.235-1.771 4.377-4.925 5.957l-71.339 36.13c-3.154 1.58-7.431 2.467-11.89 2.467z" fill="url(#nbhYJrlT1ZrYn)" fill-opacity=".4" shape-rendering="crispEdges"/>
  </g>
  <path fill-rule="evenodd" clip-rule="evenodd" d="M287.529 251.004l-2.506-1.552-2.859 1.429v39.878c0 1.657 1.201 2.398 2.682 1.656l35.67-17.87a5.09 5.09 0 00.177-.095v-2.908l-2.755-1.706-30.409 15.235v-34.067zm-40.45 107.641c0-1.657 1.201-3.602 2.682-4.344l52.102-26.103c1.482-.742 2.683-.001 2.683 1.656 0 1.657-1.201 3.602-2.683 4.344l-52.102 26.103c-1.481.742-2.682.001-2.682-1.656zm2.682-26.793c-1.481.742-2.682 2.687-2.682 4.344 0 1.656 1.201 2.398 2.682 1.656l52.102-26.103c1.482-.743 2.683-2.687 2.683-4.344 0-1.657-1.201-2.399-2.683-1.656l-52.102 26.103zm-2.682-18.044c0-1.656 1.201-3.601 2.682-4.343l20.841-10.442c1.482-.742 2.682 0 2.682 1.657 0 1.656-1.2 3.601-2.682 4.343l-20.841 10.442c-1.481.742-2.682 0-2.682-1.657zm22.398 50.59c-1.482.742-2.682 2.687-2.682 4.344 0 1.657 1.2 2.398 2.682 1.656l52.102-26.103c1.481-.742 2.682-2.687 2.682-4.344 0-1.657-1.201-2.398-2.682-1.656l-52.102 26.103zm17.034 14.222c0-1.657 1.201-3.602 2.682-4.344l52.102-26.103c1.482-.742 2.683-.001 2.683 1.656 0 1.657-1.201 3.602-2.683 4.344l-52.102 26.103c-1.481.742-2.682.001-2.682-1.656zm22.399 5.315c-1.482.742-2.683 2.687-2.683 4.343 0 1.657 1.201 2.399 2.683 1.657l52.102-26.104c1.481-.742 2.682-2.687 2.682-4.343 0-1.657-1.201-2.399-2.682-1.657l-52.102 26.104zm17.034 14.44c0-1.657 1.201-3.601 2.682-4.343l52.102-26.104c1.481-.742 2.682 0 2.682 1.657 0 1.656-1.201 3.601-2.682 4.343l-52.102 26.104c-1.481.742-2.682 0-2.682-1.657z" fill="url(#nbhYJrlT1ZrYo)" fill-opacity=".8"/>
  <g filter="url(#nbhYJrlT1ZrYp)">
    <path d="M538.466 225.132c0-5.947-6.259-9.815-11.578-7.156L408.46 277.19a8 8 0 00-4.422 7.155v161.349c0 5.947 6.259 9.815 11.578 7.155l118.428-59.214a8 8 0 004.422-7.155V225.132z" fill="url(#nbhYJrlT1ZrYq)" fill-opacity=".95"/>
  </g>
  <mask id="nbhYJrlT1ZrYs" style="mask-type:alpha" maskUnits="userSpaceOnUse" x="404" y="217" width="135" height="237">
    <path d="M538.466 225.132c0-5.947-6.259-9.815-11.578-7.156L408.46 277.19a8 8 0 00-4.422 7.155v161.349c0 5.947 6.259 9.815 11.578 7.155l118.428-59.214a8 8 0 004.422-7.155V225.132z" fill="url(#nbhYJrlT1ZrYr)" fill-opacity=".95"/>
  </mask>
  <g mask="url(#nbhYJrlT1ZrYs)">
    <path opacity=".8" fill-rule="evenodd" clip-rule="evenodd" d="M463.485 373.416c-13.121 2.885-25.921 12.486-30.822 47.203-2.151 15.233-.894 39.386-.894 39.386l92.483-29.431s1.629-19.493 0-31.806c-2.212-16.726-13.619-21.751-21.954-25.424-4.299-1.894-7.781-3.428-8.763-6.021-1.553-4.1.525-10.656.525-10.656s2.353 3.488 5.846 4.475c4.579 1.292 9.9-1.303 9.605-7.308-.186-3.793-2.205-5.751-3.82-6.717 2.509.934 6.847 2.127 10.132.794 6.406-2.6 5.743-7.667 4.402-11.184-1.996-5.237-7.468-5.752-7.468-5.752 5.049-.383 9.775-4.971 8.142-11.717-1.686-6.975-8.206-9.377-14.407-6.8-2.116.879-3.665 1.597-4.787 2.163 2.45-1.839 5.55-5.372 4.834-11.208-.942-7.669-9.606-11.289-16.375-5.695-6.207 5.125-2.804 12.073-2.804 12.073s-6.23-9.882-25.383-7.902c-19.148 1.98-28.418 20.023-23.409 33.66 5.149 14.038 16.393 18.518 23.279 21.261 2.054.818 3.72 1.482 4.721 2.199 3.187 2.28 2.524 13.174-3.083 14.407zm-2.238-57.016a3.66 3.66 0 014.589-2.41v.001a3.674 3.674 0 012.395 4.609l-.001.003a3.654 3.654 0 01-4.582 2.408h-.002c-1.927-.606-3.003-2.668-2.399-4.611zm5.495-5.303c-3.529-1.11-7.277.863-8.383 4.397l-.001.002c-1.1 3.532.853 7.299 4.381 8.408l.001.001c3.524 1.109 7.277-.863 8.379-4.398 1.106-3.534-.848-7.301-4.377-8.41zm-13.576 23.585c1.657 4.15 5.094 7.967 11.465 9.972 12.828 4.037 21.244-4.274 23.475-10.05l-2.823-1.095c-1.803 4.669-8.801 11.695-19.745 8.251-5.511-1.734-8.245-4.907-9.562-8.205-1.348-3.374-1.263-7.021-.836-9.656l-2.987-.487c-.477 2.937-.614 7.196 1.013 11.27z" fill="#F0F3F6"/>
  </g>
  <defs>
    <linearGradient id="nbhYJrlT1ZrYb" x1="359.23" y1="503.447" x2="422.815" y2="178.926" gradientUnits="userSpaceOnUse">
      <stop stop-color="#00D1B8" stop-opacity=".9"/>
      <stop offset="1" stop-color="#25CBD9"/>
      <stop offset="1" stop-color="#25CBD9"/>
    </linearGradient>
    <linearGradient id="nbhYJrlT1ZrYd" x1="179.992" y1="503.447" x2="341.305" y2="180.821" gradientUnits="userSpaceOnUse">
      <stop stop-color="#FF8CF4" stop-opacity=".9"/>
      <stop offset="1" stop-color="#FFA9DE"/>
    </linearGradient>
    <linearGradient id="nbhYJrlT1ZrYf" x1="358.333" y1="301.806" x2="537.57" y2="122.569" gradientUnits="userSpaceOnUse">
      <stop stop-color="#FF8CF4" stop-opacity=".9"/>
      <stop offset="1" stop-color="#FFA9DE"/>
    </linearGradient>
    <linearGradient id="nbhYJrlT1ZrYh" x1="314.421" y1="279.401" x2="353.987" y2="46.84" gradientUnits="userSpaceOnUse">
      <stop stop-color="#BF98FF" stop-opacity=".9"/>
      <stop offset="1" stop-color="#D8B8FF"/>
    </linearGradient>
    <linearGradient id="nbhYJrlT1ZrYi" x1="314.421" y1="278.505" x2="353.987" y2="45.943" gradientUnits="userSpaceOnUse">
      <stop stop-color="#BF98FF" stop-opacity=".9"/>
      <stop offset="1" stop-color="#D8B8FF"/>
    </linearGradient>
    <linearGradient id="nbhYJrlT1ZrYl" x1="320.692" y1="369.425" x2="335.667" y2="265.437" gradientUnits="userSpaceOnUse">
      <stop stop-color="#fff"/>
      <stop offset="1" stop-color="#fff"/>
    </linearGradient>
    <linearGradient id="nbhYJrlT1ZrYn" x1="429.495" y1="423.935" x2="434.717" y2="333.503" gradientUnits="userSpaceOnUse">
      <stop stop-color="#fff"/>
      <stop offset="1" stop-color="#fff"/>
    </linearGradient>
    <linearGradient id="nbhYJrlT1ZrYo" x1="383.41" y1="400.32" x2="400.162" y2="268.977" gradientUnits="userSpaceOnUse">
      <stop stop-color="#fff"/>
      <stop offset="1" stop-color="#fff"/>
    </linearGradient>
    <linearGradient id="nbhYJrlT1ZrYq" x1="538.466" y1="458.638" x2="331.259" y2="345.616" gradientUnits="userSpaceOnUse">
      <stop stop-color="#40C8EE"/>
      <stop offset="1" stop-color="#9CC8FF"/>
    </linearGradient>
    <linearGradient id="nbhYJrlT1ZrYr" x1="538.466" y1="458.638" x2="331.259" y2="345.616" gradientUnits="userSpaceOnUse">
      <stop stop-color="#40C8EE"/>
      <stop offset="1" stop-color="#9CC8FF"/>
    </linearGradient>
    <filter id="nbhYJrlT1ZrYa" x="135.184" y="127.503" width="224.046" height="371.01" filterUnits="userSpaceOnUse" color-interpolation-filters="sRGB">
      <feFlood flood-opacity="0" result="BackgroundImageFix"/>
      <feBlend mode="normal" in="SourceGraphic" in2="BackgroundImageFix" result="shape"/>
      <feColorMatrix in="SourceAlpha" type="matrix" values="0 0 0 0 0 0 0 0 0 0 0 0 0 0 0 0 0 0 127 0" result="hardAlpha"/>
      <feOffset dx="10" dy="6"/>
      <feComposite in2="hardAlpha" operator="arithmetic" k2="-1" k3="1"/>
      <feColorMatrix type="matrix" values="0 0 0 0 1 0 0 0 0 1 0 0 0 0 1 0 0 0 0.25 0"/>
      <feBlend mode="normal" in2="shape" result="effect1_innerShadow_1898_16047"/>
    </filter>
    <filter id="nbhYJrlT1ZrYc" x="189.881" y="302.75" width="383.506" height="199.753" filterUnits="userSpaceOnUse" color-interpolation-filters="sRGB">
      <feFlood flood-opacity="0" result="BackgroundImageFix"/>
      <feBlend mode="normal" in="SourceGraphic" in2="BackgroundImageFix" result="shape"/>
      <feColorMatrix in="SourceAlpha" type="matrix" values="0 0 0 0 0 0 0 0 0 0 0 0 0 0 0 0 0 0 127 0" result="hardAlpha"/>
      <feOffset dy="-10"/>
      <feComposite in2="hardAlpha" operator="arithmetic" k2="-1" k3="1"/>
      <feColorMatrix type="matrix" values="0 0 0 0 1 0 0 0 0 1 0 0 0 0 1 0 0 0 0.25 0"/>
      <feBlend mode="normal" in2="shape" result="effect1_innerShadow_1898_16047"/>
    </filter>
    <filter id="nbhYJrlT1ZrYe" x="368.222" y="127.503" width="169.349" height="169.369" filterUnits="userSpaceOnUse" color-interpolation-filters="sRGB">
      <feFlood flood-opacity="0" result="BackgroundImageFix"/>
      <feBlend mode="normal" in="SourceGraphic" in2="BackgroundImageFix" result="shape"/>
      <feColorMatrix in="SourceAlpha" type="matrix" values="0 0 0 0 0 0 0 0 0 0 0 0 0 0 0 0 0 0 127 0" result="hardAlpha"/>
      <feOffset dx="10" dy="6"/>
      <feComposite in2="hardAlpha" operator="arithmetic" k2="-1" k3="1"/>
      <feColorMatrix type="matrix" values="0 0 0 0 1 0 0 0 0 1 0 0 0 0 1 0 0 0 0.25 0"/>
      <feBlend mode="normal" in2="shape" result="effect1_innerShadow_1898_16047"/>
    </filter>
    <filter id="nbhYJrlT1ZrYg" x="314.421" y="60.289" width="89.618" height="214.178" filterUnits="userSpaceOnUse" color-interpolation-filters="sRGB">
      <feFlood flood-opacity="0" result="BackgroundImageFix"/>
      <feBlend mode="normal" in="SourceGraphic" in2="BackgroundImageFix" result="shape"/>
      <feColorMatrix in="SourceAlpha" type="matrix" values="0 0 0 0 0 0 0 0 0 0 0 0 0 0 0 0 0 0 127 0" result="hardAlpha"/>
      <feOffset dx="-10" dy="6"/>
      <feComposite in2="hardAlpha" operator="arithmetic" k2="-1" k3="1"/>
      <feColorMatrix type="matrix" values="0 0 0 0 1 0 0 0 0 1 0 0 0 0 1 0 0 0 0.25 0"/>
      <feBlend mode="normal" in2="shape" result="effect1_innerShadow_1898_16047"/>
    </filter>
    <filter id="nbhYJrlT1ZrYk" x="204.676" y="229.453" width="116.016" height="139.972" filterUnits="userSpaceOnUse" color-interpolation-filters="sRGB">
      <feFlood flood-opacity="0" result="BackgroundImageFix"/>
      <feColorMatrix in="SourceAlpha" type="matrix" values="0 0 0 0 0 0 0 0 0 0 0 0 0 0 0 0 0 0 127 0" result="hardAlpha"/>
      <feOffset dx="-10" dy="-10"/>
      <feGaussianBlur stdDeviation="5"/>
      <feComposite in2="hardAlpha" operator="out"/>
      <feColorMatrix type="matrix" values="0 0 0 0 0 0 0 0 0 0 0 0 0 0 0 0 0 0 0.05 0"/>
      <feBlend mode="normal" in2="BackgroundImageFix" result="effect1_dropShadow_1898_16047"/>
      <feBlend mode="normal" in="SourceGraphic" in2="effect1_dropShadow_1898_16047" result="shape"/>
    </filter>
    <filter id="nbhYJrlT1ZrYm" x="214.801" y="321.382" width="224.694" height="122.554" filterUnits="userSpaceOnUse" color-interpolation-filters="sRGB">
      <feFlood flood-opacity="0" result="BackgroundImageFix"/>
      <feColorMatrix in="SourceAlpha" type="matrix" values="0 0 0 0 0 0 0 0 0 0 0 0 0 0 0 0 0 0 127 0" result="hardAlpha"/>
      <feOffset dy="10"/>
      <feGaussianBlur stdDeviation="5"/>
      <feComposite in2="hardAlpha" operator="out"/>
      <feColorMatrix type="matrix" values="0 0 0 0 0 0 0 0 0 0 0 0 0 0 0 0 0 0 0.05 0"/>
      <feBlend mode="normal" in2="BackgroundImageFix" result="effect1_dropShadow_1898_16047"/>
      <feBlend mode="normal" in="SourceGraphic" in2="effect1_dropShadow_1898_16047" result="shape"/>
    </filter>
    <filter id="nbhYJrlT1ZrYp" x="404.038" y="217.121" width="134.428" height="236.583" filterUnits="userSpaceOnUse" color-interpolation-filters="sRGB">
      <feFlood flood-opacity="0" result="BackgroundImageFix"/>
      <feBlend mode="normal" in="SourceGraphic" in2="BackgroundImageFix" result="shape"/>
      <feColorMatrix in="SourceAlpha" type="matrix" values="0 0 0 0 0 0 0 0 0 0 0 0 0 0 0 0 0 0 127 0" result="hardAlpha"/>
      <feOffset dx="10" dy="6"/>
      <feComposite in2="hardAlpha" operator="arithmetic" k2="-1" k3="1"/>
      <feColorMatrix type="matrix" values="0 0 0 0 1 0 0 0 0 1 0 0 0 0 1 0 0 0 0.25 0"/>
      <feBlend mode="normal" in2="shape" result="effect1_innerShadow_1898_16047"/>
    </filter>
  </defs>
</svg>
