<svg xmlns="http://www.w3.org/2000/svg" viewBox="0 0 61.529 17.58" version="1.1">
  <path d="M5.438 13.153v-2.991l1.577-.006 1.576-.006.006-1.353.006-1.352H5.438V1.437h10.644v2.718H8.604v3.29h6.83v2.717h-6.83v3.266h7.478v2.717H5.438zm13.361-4.364V1.435l3.696.009c3.348.008 3.722.012 3.982.052.669.1 1.144.24 1.666.49.706.34 1.232.78 1.63 1.366.918 1.355.922 3.494.01 4.864-.39.584-.879 1.006-1.56 1.347-.69.345-1.348.512-2.27.574-.198.013-1.177.024-2.174.024h-1.814v5.984H18.8zm6.144-1.37c.737-.041 1.179-.127 1.545-.3.316-.15.57-.387.709-.665.183-.365.165-1.05-.039-1.4-.176-.305-.564-.578-1.005-.71-.55-.162-.775-.178-2.593-.178h-1.583l-.006 1.608c-.003.884 0 1.622.005 1.64.015.038 2.282.042 2.967.004zm7.541 5.734V10.16h3.166V7.444h-3.166V1.437h10.644v2.717l-3.732.006-3.733.006V7.43l3.421.006 3.421.006v2.717H35.65v5.984h-3.166zM45.447 8.79V1.437h3.166v11.99h7.478v2.717H45.447z" fill="#000"/>
</svg>
