<svg xmlns="http://www.w3.org/2000/svg" fill="none" viewBox="0 0 920 726">
  <path d="M915.826 273.067c0 1.195.918 2.164 2.051 2.164s2.051-.969 2.051-2.164c0-1.195-.918-2.163-2.051-2.163s-2.051.968-2.051 2.163zm0 17.916c0 1.195.918 2.164 2.051 2.164s2.051-.969 2.051-2.164c0-1.195-.918-2.163-2.051-2.163s-2.051.968-2.051 2.163zm-16.985-17.916c0 1.195.918 2.164 2.051 2.164s2.051-.969 2.051-2.164c0-1.195-.918-2.163-2.051-2.163s-2.051.968-2.051 2.163zm0 17.916c0 1.195.918 2.164 2.051 2.164s2.051-.969 2.051-2.164c0-1.195-.918-2.164-2.051-2.164s-2.051.969-2.051 2.164zm16.985 17.916c0 1.195.918 2.164 2.051 2.164s2.051-.969 2.051-2.164c0-1.195-.918-2.164-2.051-2.164s-2.051.969-2.051 2.164zm0 17.916c0 1.195.918 2.164 2.051 2.164s2.051-.969 2.051-2.164c0-1.195-.918-2.163-2.051-2.163s-2.051.968-2.051 2.163zm-16.985-17.916c0 1.195.918 2.164 2.051 2.164s2.051-.969 2.051-2.164c0-1.195-.918-2.164-2.051-2.164s-2.051.969-2.051 2.164zm0 17.916c0 1.195.918 2.164 2.051 2.164s2.051-.969 2.051-2.164c0-1.195-.918-2.163-2.051-2.163s-2.051.968-2.051 2.163zm16.985 17.916c0 1.195.918 2.163 2.051 2.163s2.051-.968 2.051-2.163c0-1.195-.918-2.164-2.051-2.164s-2.051.969-2.051 2.164zm0 17.916c0 1.195.918 2.164 2.051 2.164s2.051-.969 2.051-2.164c0-1.195-.918-2.164-2.051-2.164s-2.051.969-2.051 2.164zm-16.985-17.916c0 1.195.918 2.163 2.051 2.163s2.051-.968 2.051-2.163c0-1.195-.918-2.164-2.051-2.164s-2.051.969-2.051 2.164zm0 17.916c0 1.195.918 2.164 2.051 2.164s2.051-.969 2.051-2.164c0-1.195-.918-2.164-2.051-2.164s-2.051.969-2.051 2.164zm16.985 17.916c0 1.195.918 2.164 2.051 2.164s2.051-.969 2.051-2.164c0-1.195-.918-2.163-2.051-2.163s-2.051.968-2.051 2.163zm-16.985 0c0 1.195.918 2.164 2.051 2.164s2.051-.969 2.051-2.164c0-1.195-.918-2.163-2.051-2.163s-2.051.968-2.051 2.163zm-16.986-107.496c0 1.195.919 2.164 2.052 2.164 1.132 0 2.051-.969 2.051-2.164 0-1.195-.919-2.163-2.051-2.163-1.133 0-2.052.968-2.052 2.163zm0 17.916c0 1.195.919 2.164 2.052 2.164 1.132 0 2.051-.969 2.051-2.164 0-1.195-.919-2.164-2.051-2.164-1.133 0-2.052.969-2.052 2.164zm-16.985-17.916c0 1.195.918 2.164 2.051 2.164s2.051-.969 2.051-2.164c0-1.195-.918-2.163-2.051-2.163s-2.051.968-2.051 2.163zm0 17.916c0 1.195.918 2.164 2.051 2.164s2.051-.969 2.051-2.164c0-1.195-.918-2.164-2.051-2.164s-2.051.969-2.051 2.164zm16.985 17.916c0 1.195.919 2.164 2.052 2.164 1.132 0 2.051-.969 2.051-2.164 0-1.195-.919-2.164-2.051-2.164-1.133 0-2.052.969-2.052 2.164zm0 17.916c0 1.195.919 2.164 2.052 2.164 1.132 0 2.051-.969 2.051-2.164 0-1.195-.919-2.163-2.051-2.163-1.133 0-2.052.968-2.052 2.163zm-16.985-17.916c0 1.195.918 2.164 2.051 2.164s2.051-.969 2.051-2.164c0-1.195-.918-2.164-2.051-2.164s-2.051.969-2.051 2.164zm0 17.916c0 1.195.918 2.164 2.051 2.164s2.051-.969 2.051-2.164c0-1.195-.918-2.163-2.051-2.163s-2.051.968-2.051 2.163zm16.985 17.916c0 1.195.919 2.163 2.052 2.163 1.132 0 2.051-.968 2.051-2.163 0-1.195-.919-2.164-2.051-2.164-1.133 0-2.052.969-2.052 2.164zm0 17.916c0 1.195.919 2.164 2.052 2.164 1.132 0 2.051-.969 2.051-2.164 0-1.195-.919-2.164-2.051-2.164-1.133 0-2.052.969-2.052 2.164zm-16.985-17.916c0 1.195.918 2.163 2.051 2.163s2.051-.968 2.051-2.163c0-1.195-.918-2.164-2.051-2.164s-2.051.969-2.051 2.164zm0 17.916c0 1.195.918 2.164 2.051 2.164s2.051-.969 2.051-2.164c0-1.195-.918-2.164-2.051-2.164s-2.051.969-2.051 2.164zm16.985 17.916c0 1.195.919 2.164 2.052 2.164 1.132 0 2.051-.969 2.051-2.164 0-1.195-.919-2.163-2.051-2.163-1.133 0-2.052.968-2.052 2.163zm-16.985 0c0 1.195.918 2.164 2.051 2.164s2.051-.969 2.051-2.164c0-1.195-.918-2.163-2.051-2.163s-2.051.968-2.051 2.163zm-16.985-107.496c0 1.195.918 2.164 2.051 2.164s2.051-.969 2.051-2.164c0-1.195-.918-2.163-2.051-2.163s-2.051.968-2.051 2.163zm0 17.916c0 1.195.918 2.164 2.051 2.164s2.051-.969 2.051-2.164c0-1.195-.918-2.164-2.051-2.164s-2.051.969-2.051 2.164zM830.9 273.067c0 1.195.918 2.164 2.051 2.164s2.051-.969 2.051-2.164c0-1.195-.918-2.163-2.051-2.163s-2.051.968-2.051 2.163zm0 17.916c0 1.195.918 2.164 2.051 2.164s2.051-.969 2.051-2.164c0-1.195-.918-2.164-2.051-2.164s-2.051.969-2.051 2.164zm16.985 17.916c0 1.195.918 2.164 2.051 2.164s2.051-.969 2.051-2.164c0-1.195-.918-2.164-2.051-2.164s-2.051.969-2.051 2.164zm0 17.916c0 1.195.918 2.164 2.051 2.164s2.051-.969 2.051-2.164c0-1.195-.918-2.163-2.051-2.163s-2.051.968-2.051 2.163zM830.9 308.899c0 1.195.918 2.164 2.051 2.164s2.051-.969 2.051-2.164c0-1.195-.918-2.164-2.051-2.164s-2.051.969-2.051 2.164zm0 17.916c0 1.195.918 2.164 2.051 2.164s2.051-.969 2.051-2.164c0-1.195-.918-2.163-2.051-2.163s-2.051.968-2.051 2.163zm16.985 17.916c0 1.195.918 2.163 2.051 2.163s2.051-.968 2.051-2.163c0-1.195-.918-2.164-2.051-2.164s-2.051.969-2.051 2.164zm0 17.916c0 1.195.918 2.164 2.051 2.164s2.051-.969 2.051-2.164c0-1.195-.918-2.164-2.051-2.164s-2.051.969-2.051 2.164zM830.9 344.731c0 1.195.918 2.163 2.051 2.163s2.051-.968 2.051-2.163c0-1.195-.918-2.164-2.051-2.164s-2.051.969-2.051 2.164zm0 17.916c0 1.195.918 2.164 2.051 2.164s2.051-.969 2.051-2.164c0-1.195-.918-2.164-2.051-2.164s-2.051.969-2.051 2.164zm16.985 17.916c0 1.195.918 2.164 2.051 2.164s2.051-.969 2.051-2.164c0-1.195-.918-2.163-2.051-2.163s-2.051.968-2.051 2.163zm-16.985 0c0 1.195.918 2.164 2.051 2.164s2.051-.969 2.051-2.164c0-1.195-.918-2.163-2.051-2.163s-2.051.968-2.051 2.163zm-16.986-107.496c0 1.195.919 2.164 2.052 2.164 1.132 0 2.051-.969 2.051-2.164 0-1.195-.919-2.163-2.051-2.163-1.133 0-2.052.968-2.052 2.163zm0 17.916c0 1.195.919 2.164 2.052 2.164 1.132 0 2.051-.969 2.051-2.164 0-1.195-.919-2.164-2.051-2.164-1.133 0-2.052.969-2.052 2.164zm-16.985-17.916c0 1.195.918 2.164 2.051 2.164s2.051-.969 2.051-2.164c0-1.195-.918-2.163-2.051-2.163s-2.051.968-2.051 2.163zm0 17.916c0 1.195.918 2.164 2.051 2.164s2.051-.969 2.051-2.164c0-1.195-.918-2.164-2.051-2.164s-2.051.969-2.051 2.164zm16.985 17.916c0 1.195.919 2.164 2.052 2.164 1.132 0 2.051-.969 2.051-2.164 0-1.195-.919-2.164-2.051-2.164-1.133 0-2.052.969-2.052 2.164zm0 17.916c0 1.195.919 2.164 2.052 2.164 1.132 0 2.051-.969 2.051-2.164 0-1.195-.919-2.163-2.051-2.163-1.133 0-2.052.968-2.052 2.163zm-16.985-17.916c0 1.195.918 2.164 2.051 2.164s2.051-.969 2.051-2.164c0-1.195-.918-2.164-2.051-2.164s-2.051.969-2.051 2.164zm0 17.916c0 1.195.918 2.164 2.051 2.164s2.051-.969 2.051-2.164c0-1.195-.918-2.163-2.051-2.163s-2.051.968-2.051 2.163zm16.985 17.916c0 1.195.919 2.163 2.052 2.163 1.132 0 2.051-.968 2.051-2.163 0-1.195-.919-2.164-2.051-2.164-1.133 0-2.052.969-2.052 2.164zm0 17.916c0 1.195.919 2.164 2.052 2.164 1.132 0 2.051-.969 2.051-2.164 0-1.195-.919-2.164-2.051-2.164-1.133 0-2.052.969-2.052 2.164zm-16.985-17.916c0 1.195.918 2.163 2.051 2.163s2.051-.968 2.051-2.163c0-1.195-.918-2.164-2.051-2.164s-2.051.969-2.051 2.164zm0 17.916c0 1.195.918 2.164 2.051 2.164s2.051-.969 2.051-2.164c0-1.195-.918-2.164-2.051-2.164s-2.051.969-2.051 2.164zm16.985 17.916c0 1.195.919 2.164 2.052 2.164 1.132 0 2.051-.969 2.051-2.164 0-1.195-.919-2.163-2.051-2.163-1.133 0-2.052.968-2.052 2.163zm-16.985 0c0 1.195.918 2.164 2.051 2.164s2.051-.969 2.051-2.164c0-1.195-.918-2.163-2.051-2.163s-2.051.968-2.051 2.163zm-16.985-107.496c0 1.195.918 2.164 2.051 2.164s2.051-.969 2.051-2.164c0-1.195-.918-2.163-2.051-2.163s-2.051.968-2.051 2.163zm0 17.916c0 1.195.918 2.164 2.051 2.164s2.051-.969 2.051-2.164c0-1.195-.918-2.164-2.051-2.164s-2.051.969-2.051 2.164zm-16.985-17.916c0 1.195.918 2.164 2.051 2.164s2.051-.969 2.051-2.164c0-1.195-.918-2.163-2.051-2.163s-2.051.968-2.051 2.163zm0 17.916c0 1.195.918 2.164 2.051 2.164 1.132 0 2.051-.969 2.051-2.164 0-1.195-.919-2.164-2.051-2.164-1.133 0-2.051.969-2.051 2.164zm16.985 17.916c0 1.195.918 2.164 2.051 2.164s2.051-.969 2.051-2.164c0-1.195-.918-2.164-2.051-2.164s-2.051.969-2.051 2.164zm0 17.916c0 1.195.918 2.164 2.051 2.164s2.051-.969 2.051-2.164c0-1.195-.918-2.163-2.051-2.163s-2.051.968-2.051 2.163zm-16.985-17.916c0 1.195.918 2.164 2.051 2.164 1.132 0 2.051-.969 2.051-2.164 0-1.195-.919-2.164-2.051-2.164-1.133 0-2.051.969-2.051 2.164zm0 17.916c0 1.195.918 2.164 2.051 2.164 1.132 0 2.051-.969 2.051-2.164 0-1.195-.919-2.163-2.051-2.163-1.133 0-2.051.968-2.051 2.163zm16.985 17.916c0 1.195.918 2.163 2.051 2.163s2.051-.968 2.051-2.163c0-1.195-.918-2.164-2.051-2.164s-2.051.969-2.051 2.164zm0 17.916c0 1.195.918 2.164 2.051 2.164s2.051-.969 2.051-2.164c0-1.195-.918-2.164-2.051-2.164s-2.051.969-2.051 2.164zm-16.985-17.916c0 1.195.918 2.163 2.051 2.163 1.132 0 2.051-.968 2.051-2.163 0-1.195-.919-2.164-2.051-2.164-1.133 0-2.051.969-2.051 2.164zm0 17.916c0 1.195.918 2.164 2.051 2.164 1.132 0 2.051-.969 2.051-2.164 0-1.195-.919-2.164-2.051-2.164-1.133 0-2.051.969-2.051 2.164zm16.985 17.916c0 1.195.918 2.164 2.051 2.164s2.051-.969 2.051-2.164c0-1.195-.918-2.163-2.051-2.163s-2.051.968-2.051 2.163zm-16.985 0c0 1.195.918 2.164 2.051 2.164 1.132 0 2.051-.969 2.051-2.164 0-1.195-.919-2.163-2.051-2.163-1.133 0-2.051.968-2.051 2.163zm-16.986-107.496c0 1.195.919 2.164 2.051 2.164 1.133 0 2.052-.969 2.052-2.164 0-1.195-.919-2.163-2.052-2.163-1.132 0-2.051.968-2.051 2.163zm0 17.916c0 1.195.919 2.164 2.051 2.164 1.133 0 2.052-.969 2.052-2.164 0-1.195-.919-2.164-2.052-2.164-1.132 0-2.051.969-2.051 2.164zm-16.985-17.916c0 1.195.919 2.164 2.051 2.164 1.133 0 2.052-.969 2.052-2.164 0-1.195-.919-2.163-2.052-2.163-1.132 0-2.051.968-2.051 2.163zm0 17.916c0 1.195.919 2.164 2.051 2.164 1.133 0 2.052-.969 2.052-2.164 0-1.195-.919-2.164-2.052-2.164-1.132 0-2.051.969-2.051 2.164zm16.985 17.916c0 1.195.919 2.164 2.051 2.164 1.133 0 2.052-.969 2.052-2.164 0-1.195-.919-2.164-2.052-2.164-1.132 0-2.051.969-2.051 2.164zm0 17.916c0 1.195.919 2.164 2.051 2.164 1.133 0 2.052-.969 2.052-2.164 0-1.195-.919-2.163-2.052-2.163-1.132 0-2.051.968-2.051 2.163zm-16.985-17.916c0 1.195.919 2.164 2.051 2.164 1.133 0 2.052-.969 2.052-2.164 0-1.195-.919-2.164-2.052-2.164-1.132 0-2.051.969-2.051 2.164zm0 17.916c0 1.195.919 2.164 2.051 2.164 1.133 0 2.052-.969 2.052-2.164 0-1.195-.919-2.163-2.052-2.163-1.132 0-2.051.968-2.051 2.163zm16.985 17.916c0 1.195.919 2.163 2.051 2.163 1.133 0 2.052-.968 2.052-2.163 0-1.195-.919-2.164-2.052-2.164-1.132 0-2.051.969-2.051 2.164zm0 17.916c0 1.195.919 2.164 2.051 2.164 1.133 0 2.052-.969 2.052-2.164 0-1.195-.919-2.164-2.052-2.164-1.132 0-2.051.969-2.051 2.164zm-16.985-17.916c0 1.195.919 2.163 2.051 2.163 1.133 0 2.052-.968 2.052-2.163 0-1.195-.919-2.164-2.052-2.164-1.132 0-2.051.969-2.051 2.164zm0 17.916c0 1.195.919 2.164 2.051 2.164 1.133 0 2.052-.969 2.052-2.164 0-1.195-.919-2.164-2.052-2.164-1.132 0-2.051.969-2.051 2.164zm16.985 17.916c0 1.195.919 2.164 2.051 2.164 1.133 0 2.052-.969 2.052-2.164 0-1.195-.919-2.163-2.052-2.163-1.132 0-2.051.968-2.051 2.163zm-16.985 0c0 1.195.919 2.164 2.051 2.164 1.133 0 2.052-.969 2.052-2.164 0-1.195-.919-2.163-2.052-2.163-1.132 0-2.051.968-2.051 2.163zm-17.15-107.496c0 1.195.918 2.164 2.051 2.164s2.051-.969 2.051-2.164c0-1.195-.918-2.163-2.051-2.163s-2.051.968-2.051 2.163zm0 17.916c0 1.195.918 2.164 2.051 2.164s2.051-.969 2.051-2.164c0-1.195-.918-2.163-2.051-2.163s-2.051.968-2.051 2.163zm-16.986-17.916c0 1.195.919 2.164 2.052 2.164 1.132 0 2.051-.969 2.051-2.164 0-1.195-.919-2.163-2.051-2.163-1.133 0-2.052.968-2.052 2.163zm0 17.916c0 1.195.919 2.164 2.052 2.164 1.132 0 2.051-.969 2.051-2.164 0-1.195-.919-2.164-2.051-2.164-1.133 0-2.052.969-2.052 2.164zm16.986 17.916c0 1.195.918 2.164 2.051 2.164s2.051-.969 2.051-2.164c0-1.195-.918-2.164-2.051-2.164s-2.051.969-2.051 2.164zm0 17.916c0 1.195.918 2.164 2.051 2.164s2.051-.969 2.051-2.164c0-1.195-.918-2.163-2.051-2.163s-2.051.968-2.051 2.163zm-16.986-17.916c0 1.195.919 2.164 2.052 2.164 1.132 0 2.051-.969 2.051-2.164 0-1.195-.919-2.164-2.051-2.164-1.133 0-2.052.969-2.052 2.164zm0 17.916c0 1.195.919 2.164 2.052 2.164 1.132 0 2.051-.969 2.051-2.164 0-1.195-.919-2.163-2.051-2.163-1.133 0-2.052.968-2.052 2.163zm16.986 17.916c0 1.195.918 2.163 2.051 2.163s2.051-.968 2.051-2.163c0-1.195-.918-2.164-2.051-2.164s-2.051.969-2.051 2.164zm0 17.916c0 1.195.918 2.164 2.051 2.164s2.051-.969 2.051-2.164c0-1.195-.918-2.164-2.051-2.164s-2.051.969-2.051 2.164zm-16.986-17.916c0 1.195.919 2.163 2.052 2.163 1.132 0 2.051-.968 2.051-2.163 0-1.195-.919-2.164-2.051-2.164-1.133 0-2.052.969-2.052 2.164zm0 17.916c0 1.195.919 2.164 2.052 2.164 1.132 0 2.051-.969 2.051-2.164 0-1.195-.919-2.164-2.051-2.164-1.133 0-2.052.969-2.052 2.164zm16.986 17.916c0 1.195.918 2.164 2.051 2.164s2.051-.969 2.051-2.164c0-1.195-.918-2.163-2.051-2.163s-2.051.968-2.051 2.163zm-16.986 0c0 1.195.919 2.164 2.052 2.164 1.132 0 2.051-.969 2.051-2.164 0-1.195-.919-2.163-2.051-2.163-1.133 0-2.052.968-2.052 2.163zm-16.985-107.496c0 1.195.919 2.164 2.051 2.164 1.133 0 2.052-.969 2.052-2.164 0-1.195-.919-2.163-2.052-2.163-1.132 0-2.051.968-2.051 2.163zm0 17.916c0 1.195.919 2.164 2.051 2.164 1.133 0 2.052-.969 2.052-2.164 0-1.195-.919-2.164-2.052-2.164-1.132 0-2.051.969-2.051 2.164zm-16.985-17.916c0 1.195.918 2.164 2.051 2.164s2.051-.969 2.051-2.164c0-1.195-.918-2.163-2.051-2.163s-2.051.968-2.051 2.163zm0 17.916c0 1.195.918 2.164 2.051 2.164s2.051-.969 2.051-2.164c0-1.195-.918-2.164-2.051-2.164s-2.051.969-2.051 2.164zm16.985 17.916c0 1.195.919 2.164 2.051 2.164 1.133 0 2.052-.969 2.052-2.164 0-1.195-.919-2.164-2.052-2.164-1.132 0-2.051.969-2.051 2.164zm0 17.916c0 1.195.919 2.164 2.051 2.164 1.133 0 2.052-.969 2.052-2.164 0-1.195-.919-2.163-2.052-2.163-1.132 0-2.051.968-2.051 2.163zm-16.985-17.916c0 1.195.918 2.164 2.051 2.164s2.051-.969 2.051-2.164c0-1.195-.918-2.164-2.051-2.164s-2.051.969-2.051 2.164zm0 17.916c0 1.195.918 2.164 2.051 2.164s2.051-.969 2.051-2.164c0-1.195-.918-2.163-2.051-2.163s-2.051.968-2.051 2.163zm16.985 17.916c0 1.195.919 2.163 2.051 2.163 1.133 0 2.052-.968 2.052-2.163 0-1.195-.919-2.164-2.052-2.164-1.132 0-2.051.969-2.051 2.164zm0 17.916c0 1.195.919 2.164 2.051 2.164 1.133 0 2.052-.969 2.052-2.164 0-1.195-.919-2.164-2.052-2.164-1.132 0-2.051.969-2.051 2.164zm-16.985-17.916c0 1.195.918 2.163 2.051 2.163s2.051-.968 2.051-2.163c0-1.195-.918-2.164-2.051-2.164s-2.051.969-2.051 2.164zm0 17.916c0 1.195.918 2.164 2.051 2.164s2.051-.969 2.051-2.164c0-1.195-.918-2.164-2.051-2.164s-2.051.969-2.051 2.164zm16.985 17.916c0 1.195.919 2.164 2.051 2.164 1.133 0 2.052-.969 2.052-2.164 0-1.195-.919-2.163-2.052-2.163-1.132 0-2.051.968-2.051 2.163zm-16.985 0c0 1.195.918 2.164 2.051 2.164s2.051-.969 2.051-2.164c0-1.195-.918-2.163-2.051-2.163s-2.051.968-2.051 2.163zm-16.985-107.496c0 1.195.918 2.164 2.051 2.164s2.051-.969 2.051-2.164c0-1.195-.918-2.163-2.051-2.163s-2.051.968-2.051 2.163zm0 17.916c0 1.195.918 2.164 2.051 2.164s2.051-.969 2.051-2.164c0-1.195-.918-2.164-2.051-2.164s-2.051.969-2.051 2.164zm-16.986-17.916c0 1.195.919 2.164 2.052 2.164 1.132 0 2.051-.969 2.051-2.164 0-1.195-.919-2.163-2.051-2.163-1.133 0-2.052.968-2.052 2.163zm0 17.916c0 1.195.919 2.164 2.052 2.164 1.132 0 2.051-.969 2.051-2.164 0-1.195-.919-2.164-2.051-2.164-1.133 0-2.052.969-2.052 2.164zm16.986 17.916c0 1.195.918 2.164 2.051 2.164s2.051-.969 2.051-2.164c0-1.195-.918-2.164-2.051-2.164s-2.051.969-2.051 2.164zm0 17.916c0 1.195.918 2.164 2.051 2.164s2.051-.969 2.051-2.164c0-1.195-.918-2.163-2.051-2.163s-2.051.968-2.051 2.163zm-16.986-17.916c0 1.195.919 2.164 2.052 2.164 1.132 0 2.051-.969 2.051-2.164 0-1.195-.919-2.164-2.051-2.164-1.133 0-2.052.969-2.052 2.164zm0 17.916c0 1.195.919 2.164 2.052 2.164 1.132 0 2.051-.969 2.051-2.164 0-1.195-.919-2.163-2.051-2.163-1.133 0-2.052.968-2.052 2.163zm16.986 17.916c0 1.195.918 2.163 2.051 2.163s2.051-.968 2.051-2.163c0-1.195-.918-2.164-2.051-2.164s-2.051.969-2.051 2.164zm0 17.916c0 1.195.918 2.164 2.051 2.164s2.051-.969 2.051-2.164c0-1.195-.918-2.164-2.051-2.164s-2.051.969-2.051 2.164zm-16.986-17.916c0 1.195.919 2.163 2.052 2.163 1.132 0 2.051-.968 2.051-2.163 0-1.195-.919-2.164-2.051-2.164-1.133 0-2.052.969-2.052 2.164zm0 17.916c0 1.195.919 2.164 2.052 2.164 1.132 0 2.051-.969 2.051-2.164 0-1.195-.919-2.164-2.051-2.164-1.133 0-2.052.969-2.052 2.164zm16.986 17.916c0 1.195.918 2.164 2.051 2.164s2.051-.969 2.051-2.164c0-1.195-.918-2.163-2.051-2.163s-2.051.968-2.051 2.163zm-16.986 0c0 1.195.919 2.164 2.052 2.164 1.132 0 2.051-.969 2.051-2.164 0-1.195-.919-2.163-2.051-2.163-1.133 0-2.052.968-2.052 2.163zm-16.985-107.496c0 1.195.919 2.164 2.051 2.164 1.133 0 2.052-.969 2.052-2.164 0-1.195-.919-2.163-2.052-2.163-1.132 0-2.051.968-2.051 2.163zm0 17.916c0 1.195.919 2.164 2.051 2.164 1.133 0 2.052-.969 2.052-2.164 0-1.195-.919-2.164-2.052-2.164-1.132 0-2.051.969-2.051 2.164zm-16.985-17.916c0 1.195.918 2.164 2.051 2.164s2.051-.969 2.051-2.164c0-1.195-.918-2.163-2.051-2.163s-2.051.968-2.051 2.163zm0 17.916c0 1.195.918 2.164 2.051 2.164s2.051-.969 2.051-2.164c0-1.195-.918-2.164-2.051-2.164s-2.051.969-2.051 2.164zm16.985 17.916c0 1.195.919 2.164 2.051 2.164 1.133 0 2.052-.969 2.052-2.164 0-1.195-.919-2.164-2.052-2.164-1.132 0-2.051.969-2.051 2.164zm0 17.916c0 1.195.919 2.164 2.051 2.164 1.133 0 2.052-.969 2.052-2.164 0-1.195-.919-2.163-2.052-2.163-1.132 0-2.051.968-2.051 2.163zm-16.985-17.916c0 1.195.918 2.164 2.051 2.164s2.051-.969 2.051-2.164c0-1.195-.918-2.164-2.051-2.164s-2.051.969-2.051 2.164zm0 17.916c0 1.195.918 2.164 2.051 2.164s2.051-.969 2.051-2.164c0-1.195-.918-2.163-2.051-2.163s-2.051.968-2.051 2.163zm16.985 17.916c0 1.195.919 2.163 2.051 2.163 1.133 0 2.052-.968 2.052-2.163 0-1.195-.919-2.164-2.052-2.164-1.132 0-2.051.969-2.051 2.164zm0 17.916c0 1.195.919 2.164 2.051 2.164 1.133 0 2.052-.969 2.052-2.164 0-1.195-.919-2.164-2.052-2.164-1.132 0-2.051.969-2.051 2.164zm-16.985-17.916c0 1.195.918 2.163 2.051 2.163s2.051-.968 2.051-2.163c0-1.195-.918-2.164-2.051-2.164s-2.051.969-2.051 2.164zm0 17.916c0 1.195.918 2.164 2.051 2.164s2.051-.969 2.051-2.164c0-1.195-.918-2.164-2.051-2.164s-2.051.969-2.051 2.164zm16.985 17.916c0 1.195.919 2.164 2.051 2.164 1.133 0 2.052-.969 2.052-2.164 0-1.195-.919-2.163-2.052-2.163-1.132 0-2.051.968-2.051 2.163zm-16.985 0c0 1.195.918 2.164 2.051 2.164s2.051-.969 2.051-2.164c0-1.195-.918-2.163-2.051-2.163s-2.051.968-2.051 2.163zm-16.985-107.496c0 1.195.918 2.164 2.051 2.164s2.051-.969 2.051-2.164c0-1.195-.918-2.163-2.051-2.163s-2.051.968-2.051 2.163zm0 17.916c0 1.195.918 2.164 2.051 2.164s2.051-.969 2.051-2.164c0-1.195-.918-2.164-2.051-2.164s-2.051.969-2.051 2.164zm-16.986-17.916c0 1.195.919 2.164 2.052 2.164 1.132 0 2.051-.969 2.051-2.164 0-1.195-.919-2.163-2.051-2.163-1.133 0-2.052.968-2.052 2.163zm0 17.916c0 1.195.919 2.164 2.052 2.164 1.132 0 2.051-.969 2.051-2.164 0-1.195-.919-2.164-2.051-2.164-1.133 0-2.052.969-2.052 2.164zm16.986 17.916c0 1.195.918 2.164 2.051 2.164s2.051-.969 2.051-2.164c0-1.195-.918-2.164-2.051-2.164s-2.051.969-2.051 2.164zm0 17.916c0 1.195.918 2.164 2.051 2.164s2.051-.969 2.051-2.164c0-1.195-.918-2.163-2.051-2.163s-2.051.968-2.051 2.163zm-16.986-17.916c0 1.195.919 2.164 2.052 2.164 1.132 0 2.051-.969 2.051-2.164 0-1.195-.919-2.164-2.051-2.164-1.133 0-2.052.969-2.052 2.164zm0 17.916c0 1.195.919 2.164 2.052 2.164 1.132 0 2.051-.969 2.051-2.164 0-1.195-.919-2.163-2.051-2.163-1.133 0-2.052.968-2.052 2.163zm16.986 17.916c0 1.195.918 2.163 2.051 2.163s2.051-.968 2.051-2.163c0-1.195-.918-2.164-2.051-2.164s-2.051.969-2.051 2.164zm0 17.916c0 1.195.918 2.164 2.051 2.164s2.051-.969 2.051-2.164c0-1.195-.918-2.164-2.051-2.164s-2.051.969-2.051 2.164zm-16.986-17.916c0 1.195.919 2.163 2.052 2.163 1.132 0 2.051-.968 2.051-2.163 0-1.195-.919-2.164-2.051-2.164-1.133 0-2.052.969-2.052 2.164zm0 17.916c0 1.195.919 2.164 2.052 2.164 1.132 0 2.051-.969 2.051-2.164 0-1.195-.919-2.164-2.051-2.164-1.133 0-2.052.969-2.052 2.164zm16.986 17.916c0 1.195.918 2.164 2.051 2.164s2.051-.969 2.051-2.164c0-1.195-.918-2.163-2.051-2.163s-2.051.968-2.051 2.163zm-16.986 0c0 1.195.919 2.164 2.052 2.164 1.132 0 2.051-.969 2.051-2.164 0-1.195-.919-2.163-2.051-2.163-1.133 0-2.052.968-2.052 2.163zm-16.985-107.496c0 1.195.918 2.164 2.051 2.164s2.051-.969 2.051-2.164c0-1.195-.918-2.163-2.051-2.163s-2.051.968-2.051 2.163zm0 17.916c0 1.195.918 2.164 2.051 2.164s2.051-.969 2.051-2.164c0-1.195-.918-2.164-2.051-2.164s-2.051.969-2.051 2.164zM525 273.067c0 1.195.918 2.164 2.051 2.164s2.051-.969 2.051-2.164c0-1.195-.918-2.163-2.051-2.163s-2.051.968-2.051 2.163zm0 17.916c0 1.195.918 2.164 2.051 2.164s2.051-.969 2.051-2.164c0-1.195-.918-2.164-2.051-2.164s-2.051.969-2.051 2.164zm16.985 17.916c0 1.195.918 2.164 2.051 2.164s2.051-.969 2.051-2.164c0-1.195-.918-2.164-2.051-2.164s-2.051.969-2.051 2.164zm0 17.916c0 1.195.918 2.164 2.051 2.164s2.051-.969 2.051-2.164c0-1.195-.918-2.163-2.051-2.163s-2.051.968-2.051 2.163zM525 308.899c0 1.195.918 2.164 2.051 2.164s2.051-.969 2.051-2.164c0-1.195-.918-2.164-2.051-2.164s-2.051.969-2.051 2.164zm0 17.916c0 1.195.918 2.164 2.051 2.164s2.051-.969 2.051-2.164c0-1.195-.918-2.163-2.051-2.163s-2.051.968-2.051 2.163zm16.985 17.916c0 1.195.918 2.163 2.051 2.163s2.051-.968 2.051-2.163c0-1.195-.918-2.164-2.051-2.164s-2.051.969-2.051 2.164zm0 17.916c0 1.195.918 2.164 2.051 2.164s2.051-.969 2.051-2.164c0-1.195-.918-2.164-2.051-2.164s-2.051.969-2.051 2.164zM525 344.731c0 1.195.918 2.163 2.051 2.163s2.051-.968 2.051-2.163c0-1.195-.918-2.164-2.051-2.164s-2.051.969-2.051 2.164zm0 17.916c0 1.195.918 2.164 2.051 2.164s2.051-.969 2.051-2.164c0-1.195-.918-2.164-2.051-2.164s-2.051.969-2.051 2.164zm16.985 17.916c0 1.195.918 2.164 2.051 2.164s2.051-.969 2.051-2.164c0-1.195-.918-2.163-2.051-2.163s-2.051.968-2.051 2.163zm-16.985 0c0 1.195.918 2.164 2.051 2.164s2.051-.969 2.051-2.164c0-1.195-.918-2.163-2.051-2.163s-2.051.968-2.051 2.163zm390.826 16.551c0 1.195.918 2.164 2.051 2.164s2.051-.969 2.051-2.164c0-1.195-.918-2.164-2.051-2.164s-2.051.969-2.051 2.164zm0 17.916c0 1.195.918 2.164 2.051 2.164s2.051-.969 2.051-2.164c0-1.195-.918-2.163-2.051-2.163s-2.051.968-2.051 2.163zm-16.985-17.916c0 1.195.918 2.164 2.051 2.164s2.051-.969 2.051-2.164c0-1.195-.918-2.164-2.051-2.164s-2.051.969-2.051 2.164zm0 17.916c0 1.195.918 2.163 2.051 2.163s2.051-.968 2.051-2.163c0-1.195-.918-2.164-2.051-2.164s-2.051.969-2.051 2.164zm16.985 17.916c0 1.195.918 2.163 2.051 2.163s2.051-.968 2.051-2.163c0-1.195-.918-2.164-2.051-2.164s-2.051.969-2.051 2.164zm0 17.916c0 1.195.918 2.164 2.051 2.164s2.051-.969 2.051-2.164c0-1.195-.918-2.164-2.051-2.164s-2.051.969-2.051 2.164zm-16.985-17.916c0 1.195.918 2.163 2.051 2.163s2.051-.968 2.051-2.163c0-1.195-.918-2.164-2.051-2.164s-2.051.969-2.051 2.164zm0 17.916c0 1.195.918 2.164 2.051 2.164s2.051-.969 2.051-2.164c0-1.195-.918-2.164-2.051-2.164s-2.051.969-2.051 2.164zm16.985 17.916c0 1.195.918 2.163 2.051 2.163s2.051-.968 2.051-2.163c0-1.195-.918-2.164-2.051-2.164s-2.051.969-2.051 2.164zm0 17.916c0 1.195.918 2.164 2.051 2.164s2.051-.969 2.051-2.164c0-1.195-.918-2.164-2.051-2.164s-2.051.969-2.051 2.164zm-16.985-17.916c0 1.195.918 2.163 2.051 2.163s2.051-.968 2.051-2.163c0-1.195-.918-2.164-2.051-2.164s-2.051.969-2.051 2.164zm0 17.916c0 1.195.918 2.164 2.051 2.164s2.051-.969 2.051-2.164c0-1.195-.918-2.164-2.051-2.164s-2.051.969-2.051 2.164zm16.985 17.916c0 1.195.918 2.164 2.051 2.164s2.051-.969 2.051-2.164c0-1.195-.918-2.163-2.051-2.163s-2.051.968-2.051 2.163zm-16.985 0c0 1.195.918 2.164 2.051 2.164s2.051-.969 2.051-2.164c0-1.195-.918-2.163-2.051-2.163s-2.051.968-2.051 2.163zm-16.986-107.496c0 1.195.919 2.164 2.052 2.164 1.132 0 2.051-.969 2.051-2.164 0-1.195-.919-2.164-2.051-2.164-1.133 0-2.052.969-2.052 2.164zm0 17.916c0 1.195.919 2.163 2.052 2.163 1.132 0 2.051-.968 2.051-2.163 0-1.195-.919-2.164-2.051-2.164-1.133 0-2.052.969-2.052 2.164zm-16.985-17.916c0 1.195.918 2.164 2.051 2.164s2.051-.969 2.051-2.164c0-1.195-.918-2.164-2.051-2.164s-2.051.969-2.051 2.164zm0 17.916c0 1.195.918 2.163 2.051 2.163s2.051-.968 2.051-2.163c0-1.195-.918-2.164-2.051-2.164s-2.051.969-2.051 2.164zm16.985 17.916c0 1.195.919 2.163 2.052 2.163 1.132 0 2.051-.968 2.051-2.163 0-1.195-.919-2.164-2.051-2.164-1.133 0-2.052.969-2.052 2.164zm0 17.916c0 1.195.919 2.164 2.052 2.164 1.132 0 2.051-.969 2.051-2.164 0-1.195-.919-2.164-2.051-2.164-1.133 0-2.052.969-2.052 2.164zm-16.985-17.916c0 1.195.918 2.163 2.051 2.163s2.051-.968 2.051-2.163c0-1.195-.918-2.164-2.051-2.164s-2.051.969-2.051 2.164zm0 17.916c0 1.195.918 2.164 2.051 2.164s2.051-.969 2.051-2.164c0-1.195-.918-2.164-2.051-2.164s-2.051.969-2.051 2.164zm16.985 17.916c0 1.195.919 2.163 2.052 2.163 1.132 0 2.051-.968 2.051-2.163 0-1.195-.919-2.164-2.051-2.164-1.133 0-2.052.969-2.052 2.164zm0 17.916c0 1.195.919 2.164 2.052 2.164 1.132 0 2.051-.969 2.051-2.164 0-1.195-.919-2.164-2.051-2.164-1.133 0-2.052.969-2.052 2.164zm-16.985-17.916c0 1.195.918 2.163 2.051 2.163s2.051-.968 2.051-2.163c0-1.195-.918-2.164-2.051-2.164s-2.051.969-2.051 2.164zm0 17.916c0 1.195.918 2.164 2.051 2.164s2.051-.969 2.051-2.164c0-1.195-.918-2.164-2.051-2.164s-2.051.969-2.051 2.164zm16.985 17.916c0 1.195.919 2.164 2.052 2.164 1.132 0 2.051-.969 2.051-2.164 0-1.195-.919-2.163-2.051-2.163-1.133 0-2.052.968-2.052 2.163zm-16.985 0c0 1.195.918 2.164 2.051 2.164s2.051-.969 2.051-2.164c0-1.195-.918-2.163-2.051-2.163s-2.051.968-2.051 2.163zm-16.985-107.496c0 1.195.918 2.164 2.051 2.164s2.051-.969 2.051-2.164c0-1.195-.918-2.164-2.051-2.164s-2.051.969-2.051 2.164zm0 17.916c0 1.195.918 2.163 2.051 2.163s2.051-.968 2.051-2.163c0-1.195-.918-2.164-2.051-2.164s-2.051.969-2.051 2.164zM830.9 397.114c0 1.195.918 2.164 2.051 2.164s2.051-.969 2.051-2.164c0-1.195-.918-2.164-2.051-2.164s-2.051.969-2.051 2.164zm0 17.916c0 1.195.918 2.163 2.051 2.163s2.051-.968 2.051-2.163c0-1.195-.918-2.164-2.051-2.164s-2.051.969-2.051 2.164zm16.985 17.916c0 1.195.918 2.163 2.051 2.163s2.051-.968 2.051-2.163c0-1.195-.918-2.164-2.051-2.164s-2.051.969-2.051 2.164zm0 17.916c0 1.195.918 2.164 2.051 2.164s2.051-.969 2.051-2.164c0-1.195-.918-2.164-2.051-2.164s-2.051.969-2.051 2.164zM830.9 432.946c0 1.195.918 2.163 2.051 2.163s2.051-.968 2.051-2.163c0-1.195-.918-2.164-2.051-2.164s-2.051.969-2.051 2.164zm0 17.916c0 1.195.918 2.164 2.051 2.164s2.051-.969 2.051-2.164c0-1.195-.918-2.164-2.051-2.164s-2.051.969-2.051 2.164zm16.985 17.916c0 1.195.918 2.163 2.051 2.163s2.051-.968 2.051-2.163c0-1.195-.918-2.164-2.051-2.164s-2.051.969-2.051 2.164zm0 17.916c0 1.195.918 2.164 2.051 2.164s2.051-.969 2.051-2.164c0-1.195-.918-2.164-2.051-2.164s-2.051.969-2.051 2.164zM830.9 468.778c0 1.195.918 2.163 2.051 2.163s2.051-.968 2.051-2.163c0-1.195-.918-2.164-2.051-2.164s-2.051.969-2.051 2.164zm0 17.916c0 1.195.918 2.164 2.051 2.164s2.051-.969 2.051-2.164c0-1.195-.918-2.164-2.051-2.164s-2.051.969-2.051 2.164zm16.985 17.916c0 1.195.918 2.164 2.051 2.164s2.051-.969 2.051-2.164c0-1.195-.918-2.163-2.051-2.163s-2.051.968-2.051 2.163zm-16.985 0c0 1.195.918 2.164 2.051 2.164s2.051-.969 2.051-2.164c0-1.195-.918-2.163-2.051-2.163s-2.051.968-2.051 2.163zm-16.986-107.496c0 1.195.919 2.164 2.052 2.164 1.132 0 2.051-.969 2.051-2.164 0-1.195-.919-2.164-2.051-2.164-1.133 0-2.052.969-2.052 2.164zm0 17.916c0 1.195.919 2.163 2.052 2.163 1.132 0 2.051-.968 2.051-2.163 0-1.195-.919-2.164-2.051-2.164-1.133 0-2.052.969-2.052 2.164zm-16.985-17.916c0 1.195.918 2.164 2.051 2.164s2.051-.969 2.051-2.164c0-1.195-.918-2.164-2.051-2.164s-2.051.969-2.051 2.164zm0 17.916c0 1.195.918 2.163 2.051 2.163s2.051-.968 2.051-2.163c0-1.195-.918-2.164-2.051-2.164s-2.051.969-2.051 2.164zm16.985 17.916c0 1.195.919 2.163 2.052 2.163 1.132 0 2.051-.968 2.051-2.163 0-1.195-.919-2.164-2.051-2.164-1.133 0-2.052.969-2.052 2.164zm0 17.916c0 1.195.919 2.164 2.052 2.164 1.132 0 2.051-.969 2.051-2.164 0-1.195-.919-2.164-2.051-2.164-1.133 0-2.052.969-2.052 2.164zm-16.985-17.916c0 1.195.918 2.163 2.051 2.163s2.051-.968 2.051-2.163c0-1.195-.918-2.164-2.051-2.164s-2.051.969-2.051 2.164zm0 17.916c0 1.195.918 2.164 2.051 2.164s2.051-.969 2.051-2.164c0-1.195-.918-2.164-2.051-2.164s-2.051.969-2.051 2.164zm16.985 17.916c0 1.195.919 2.163 2.052 2.163 1.132 0 2.051-.968 2.051-2.163 0-1.195-.919-2.164-2.051-2.164-1.133 0-2.052.969-2.052 2.164zm0 17.916c0 1.195.919 2.164 2.052 2.164 1.132 0 2.051-.969 2.051-2.164 0-1.195-.919-2.164-2.051-2.164-1.133 0-2.052.969-2.052 2.164zm-16.985-17.916c0 1.195.918 2.163 2.051 2.163s2.051-.968 2.051-2.163c0-1.195-.918-2.164-2.051-2.164s-2.051.969-2.051 2.164zm0 17.916c0 1.195.918 2.164 2.051 2.164s2.051-.969 2.051-2.164c0-1.195-.918-2.164-2.051-2.164s-2.051.969-2.051 2.164zm16.985 17.916c0 1.195.919 2.164 2.052 2.164 1.132 0 2.051-.969 2.051-2.164 0-1.195-.919-2.163-2.051-2.163-1.133 0-2.052.968-2.052 2.163zm-16.985 0c0 1.195.918 2.164 2.051 2.164s2.051-.969 2.051-2.164c0-1.195-.918-2.163-2.051-2.163s-2.051.968-2.051 2.163zm-16.985-107.496c0 1.195.918 2.164 2.051 2.164s2.051-.969 2.051-2.164c0-1.195-.918-2.164-2.051-2.164s-2.051.969-2.051 2.164zm0 17.916c0 1.195.918 2.163 2.051 2.163s2.051-.968 2.051-2.163c0-1.195-.918-2.164-2.051-2.164s-2.051.969-2.051 2.164zm-16.985-17.916c0 1.195.918 2.164 2.051 2.164s2.051-.969 2.051-2.164c0-1.195-.918-2.164-2.051-2.164s-2.051.969-2.051 2.164zm0 17.916c0 1.195.918 2.163 2.051 2.163 1.132 0 2.051-.968 2.051-2.163 0-1.195-.919-2.164-2.051-2.164-1.133 0-2.051.969-2.051 2.164zm16.985 17.916c0 1.195.918 2.163 2.051 2.163s2.051-.968 2.051-2.163c0-1.195-.918-2.164-2.051-2.164s-2.051.969-2.051 2.164zm0 17.916c0 1.195.918 2.164 2.051 2.164s2.051-.969 2.051-2.164c0-1.195-.918-2.164-2.051-2.164s-2.051.969-2.051 2.164zm-16.985-17.916c0 1.195.918 2.163 2.051 2.163 1.132 0 2.051-.968 2.051-2.163 0-1.195-.919-2.164-2.051-2.164-1.133 0-2.051.969-2.051 2.164zm0 17.916c0 1.195.918 2.164 2.051 2.164 1.132 0 2.051-.969 2.051-2.164 0-1.195-.919-2.164-2.051-2.164-1.133 0-2.051.969-2.051 2.164zm16.985 17.916c0 1.195.918 2.163 2.051 2.163s2.051-.968 2.051-2.163c0-1.195-.918-2.164-2.051-2.164s-2.051.969-2.051 2.164zm0 17.916c0 1.195.918 2.164 2.051 2.164s2.051-.969 2.051-2.164c0-1.195-.918-2.164-2.051-2.164s-2.051.969-2.051 2.164zm-16.985-17.916c0 1.195.918 2.163 2.051 2.163 1.132 0 2.051-.968 2.051-2.163 0-1.195-.919-2.164-2.051-2.164-1.133 0-2.051.969-2.051 2.164zm0 17.916c0 1.195.918 2.164 2.051 2.164 1.132 0 2.051-.969 2.051-2.164 0-1.195-.919-2.164-2.051-2.164-1.133 0-2.051.969-2.051 2.164zm16.985 17.916c0 1.195.918 2.164 2.051 2.164s2.051-.969 2.051-2.164c0-1.195-.918-2.163-2.051-2.163s-2.051.968-2.051 2.163zm-16.985 0c0 1.195.918 2.164 2.051 2.164 1.132 0 2.051-.969 2.051-2.164 0-1.195-.919-2.163-2.051-2.163-1.133 0-2.051.968-2.051 2.163zm-16.986-107.496c0 1.195.919 2.164 2.051 2.164 1.133 0 2.052-.969 2.052-2.164 0-1.195-.919-2.164-2.052-2.164-1.132 0-2.051.969-2.051 2.164zm0 17.916c0 1.195.919 2.163 2.051 2.163 1.133 0 2.052-.968 2.052-2.163 0-1.195-.919-2.164-2.052-2.164-1.132 0-2.051.969-2.051 2.164zm-16.985-17.916c0 1.195.919 2.164 2.051 2.164 1.133 0 2.052-.969 2.052-2.164 0-1.195-.919-2.164-2.052-2.164-1.132 0-2.051.969-2.051 2.164zm0 17.916c0 1.195.919 2.163 2.051 2.163 1.133 0 2.052-.968 2.052-2.163 0-1.195-.919-2.164-2.052-2.164-1.132 0-2.051.969-2.051 2.164zm16.985 17.916c0 1.195.919 2.163 2.051 2.163 1.133 0 2.052-.968 2.052-2.163 0-1.195-.919-2.164-2.052-2.164-1.132 0-2.051.969-2.051 2.164zm0 17.916c0 1.195.919 2.164 2.051 2.164 1.133 0 2.052-.969 2.052-2.164 0-1.195-.919-2.164-2.052-2.164-1.132 0-2.051.969-2.051 2.164zm-16.985-17.916c0 1.195.919 2.163 2.051 2.163 1.133 0 2.052-.968 2.052-2.163 0-1.195-.919-2.164-2.052-2.164-1.132 0-2.051.969-2.051 2.164zm0 17.916c0 1.195.919 2.164 2.051 2.164 1.133 0 2.052-.969 2.052-2.164 0-1.195-.919-2.164-2.052-2.164-1.132 0-2.051.969-2.051 2.164zm16.985 17.916c0 1.195.919 2.163 2.051 2.163 1.133 0 2.052-.968 2.052-2.163 0-1.195-.919-2.164-2.052-2.164-1.132 0-2.051.969-2.051 2.164zm0 17.916c0 1.195.919 2.164 2.051 2.164 1.133 0 2.052-.969 2.052-2.164 0-1.195-.919-2.164-2.052-2.164-1.132 0-2.051.969-2.051 2.164zm-16.985-17.916c0 1.195.919 2.163 2.051 2.163 1.133 0 2.052-.968 2.052-2.163 0-1.195-.919-2.164-2.052-2.164-1.132 0-2.051.969-2.051 2.164zm0 17.916c0 1.195.919 2.163 2.051 2.163 1.133 0 2.052-.968 2.052-2.163 0-1.195-.919-2.164-2.052-2.164-1.132 0-2.051.969-2.051 2.164zm16.985 17.916c0 1.195.919 2.164 2.051 2.164 1.133 0 2.052-.969 2.052-2.164 0-1.195-.919-2.163-2.052-2.163-1.132 0-2.051.968-2.051 2.163zm-16.985 0c0 1.195.919 2.164 2.051 2.164 1.133 0 2.052-.969 2.052-2.164 0-1.195-.919-2.163-2.052-2.163-1.132 0-2.051.968-2.051 2.163zm-17.15-107.496c0 1.195.918 2.164 2.051 2.164s2.051-.969 2.051-2.164c0-1.195-.918-2.164-2.051-2.164s-2.051.969-2.051 2.164zm0 17.916c0 1.195.918 2.164 2.051 2.164s2.051-.969 2.051-2.164c0-1.195-.918-2.164-2.051-2.164s-2.051.969-2.051 2.164zm-16.986-17.916c0 1.195.919 2.164 2.052 2.164 1.132 0 2.051-.969 2.051-2.164 0-1.195-.919-2.164-2.051-2.164-1.133 0-2.052.969-2.052 2.164zm0 17.916c0 1.195.919 2.163 2.052 2.163 1.132 0 2.051-.968 2.051-2.163 0-1.195-.919-2.164-2.051-2.164-1.133 0-2.052.969-2.052 2.164zm16.986 17.916c0 1.195.918 2.163 2.051 2.163s2.051-.968 2.051-2.163c0-1.195-.918-2.164-2.051-2.164s-2.051.969-2.051 2.164zm0 17.916c0 1.195.918 2.164 2.051 2.164s2.051-.969 2.051-2.164c0-1.195-.918-2.164-2.051-2.164s-2.051.969-2.051 2.164zm-16.986-17.916c0 1.195.919 2.163 2.052 2.163 1.132 0 2.051-.968 2.051-2.163 0-1.195-.919-2.164-2.051-2.164-1.133 0-2.052.969-2.052 2.164zm0 17.916c0 1.195.919 2.164 2.052 2.164 1.132 0 2.051-.969 2.051-2.164 0-1.195-.919-2.164-2.051-2.164-1.133 0-2.052.969-2.052 2.164zm16.986 17.916c0 1.195.918 2.163 2.051 2.163s2.051-.968 2.051-2.163c0-1.195-.918-2.164-2.051-2.164s-2.051.969-2.051 2.164zm0 17.916c0 1.195.918 2.164 2.051 2.164s2.051-.969 2.051-2.164c0-1.195-.918-2.164-2.051-2.164s-2.051.969-2.051 2.164zm-16.986-17.916c0 1.195.919 2.163 2.052 2.163 1.132 0 2.051-.968 2.051-2.163 0-1.195-.919-2.164-2.051-2.164-1.133 0-2.052.969-2.052 2.164zm0 17.916c0 1.195.919 2.163 2.052 2.163 1.132 0 2.051-.968 2.051-2.163 0-1.195-.919-2.164-2.051-2.164-1.133 0-2.052.969-2.052 2.164zm16.986 17.916c0 1.195.918 2.164 2.051 2.164s2.051-.969 2.051-2.164c0-1.195-.918-2.163-2.051-2.163s-2.051.968-2.051 2.163zm-16.986 0c0 1.195.919 2.164 2.052 2.164 1.132 0 2.051-.969 2.051-2.164 0-1.195-.919-2.163-2.051-2.163-1.133 0-2.052.968-2.052 2.163zm-16.985-107.496c0 1.195.919 2.164 2.051 2.164 1.133 0 2.052-.969 2.052-2.164 0-1.195-.919-2.164-2.052-2.164-1.132 0-2.051.969-2.051 2.164zm0 17.916c0 1.195.919 2.163 2.051 2.163 1.133 0 2.052-.968 2.052-2.163 0-1.195-.919-2.164-2.052-2.164-1.132 0-2.051.969-2.051 2.164zm-16.985-17.916c0 1.195.918 2.164 2.051 2.164s2.051-.969 2.051-2.164c0-1.195-.918-2.164-2.051-2.164s-2.051.969-2.051 2.164zm0 17.916c0 1.195.918 2.163 2.051 2.163s2.051-.968 2.051-2.163c0-1.195-.918-2.164-2.051-2.164s-2.051.969-2.051 2.164zm16.985 17.916c0 1.195.919 2.163 2.051 2.163 1.133 0 2.052-.968 2.052-2.163 0-1.195-.919-2.164-2.052-2.164-1.132 0-2.051.969-2.051 2.164zm0 17.916c0 1.195.919 2.164 2.051 2.164 1.133 0 2.052-.969 2.052-2.164 0-1.195-.919-2.164-2.052-2.164-1.132 0-2.051.969-2.051 2.164zm-16.985-17.916c0 1.195.918 2.163 2.051 2.163s2.051-.968 2.051-2.163c0-1.195-.918-2.164-2.051-2.164s-2.051.969-2.051 2.164zm0 17.916c0 1.195.918 2.164 2.051 2.164s2.051-.969 2.051-2.164c0-1.195-.918-2.164-2.051-2.164s-2.051.969-2.051 2.164zm16.985 17.916c0 1.195.919 2.163 2.051 2.163 1.133 0 2.052-.968 2.052-2.163 0-1.195-.919-2.164-2.052-2.164-1.132 0-2.051.969-2.051 2.164zm0 17.916c0 1.195.919 2.163 2.051 2.163 1.133 0 2.052-.968 2.052-2.163 0-1.195-.919-2.164-2.052-2.164-1.132 0-2.051.969-2.051 2.164zm-16.985-17.916c0 1.195.918 2.163 2.051 2.163s2.051-.968 2.051-2.163c0-1.195-.918-2.164-2.051-2.164s-2.051.969-2.051 2.164zm0 17.916c0 1.195.918 2.163 2.051 2.163s2.051-.968 2.051-2.163c0-1.195-.918-2.164-2.051-2.164s-2.051.969-2.051 2.164zm16.985 17.916c0 1.195.919 2.164 2.051 2.164 1.133 0 2.052-.969 2.052-2.164 0-1.195-.919-2.163-2.052-2.163-1.132 0-2.051.968-2.051 2.163zm-16.985 0c0 1.195.918 2.164 2.051 2.164s2.051-.969 2.051-2.164c0-1.195-.918-2.163-2.051-2.163s-2.051.968-2.051 2.163zm-16.985-107.496c0 1.195.918 2.164 2.051 2.164s2.051-.969 2.051-2.164c0-1.195-.918-2.164-2.051-2.164s-2.051.969-2.051 2.164zm0 17.916c0 1.195.918 2.163 2.051 2.163s2.051-.968 2.051-2.163c0-1.195-.918-2.164-2.051-2.164s-2.051.969-2.051 2.164zm-16.986-17.916c0 1.195.919 2.164 2.052 2.164 1.132 0 2.051-.969 2.051-2.164 0-1.195-.919-2.164-2.051-2.164-1.133 0-2.052.969-2.052 2.164zm0 17.916c0 1.195.919 2.163 2.052 2.163 1.132 0 2.051-.968 2.051-2.163 0-1.195-.919-2.164-2.051-2.164-1.133 0-2.052.969-2.052 2.164zm16.986 17.916c0 1.195.918 2.163 2.051 2.163s2.051-.968 2.051-2.163c0-1.195-.918-2.164-2.051-2.164s-2.051.969-2.051 2.164zm0 17.916c0 1.195.918 2.164 2.051 2.164s2.051-.969 2.051-2.164c0-1.195-.918-2.164-2.051-2.164s-2.051.969-2.051 2.164zm-16.986-17.916c0 1.195.919 2.163 2.052 2.163 1.132 0 2.051-.968 2.051-2.163 0-1.195-.919-2.164-2.051-2.164-1.133 0-2.052.969-2.052 2.164zm0 17.916c0 1.195.919 2.164 2.052 2.164 1.132 0 2.051-.969 2.051-2.164 0-1.195-.919-2.164-2.051-2.164-1.133 0-2.052.969-2.052 2.164zm16.986 17.916c0 1.195.918 2.163 2.051 2.163s2.051-.968 2.051-2.163c0-1.195-.918-2.164-2.051-2.164s-2.051.969-2.051 2.164zm0 17.916c0 1.195.918 2.163 2.051 2.163s2.051-.968 2.051-2.163c0-1.195-.918-2.164-2.051-2.164s-2.051.969-2.051 2.164zm-16.986-17.916c0 1.195.919 2.163 2.052 2.163 1.132 0 2.051-.968 2.051-2.163 0-1.195-.919-2.164-2.051-2.164-1.133 0-2.052.969-2.052 2.164zm0 17.916c0 1.195.919 2.163 2.052 2.163 1.132 0 2.051-.968 2.051-2.163 0-1.195-.919-2.164-2.051-2.164-1.133 0-2.052.969-2.052 2.164zm16.986 17.916c0 1.195.918 2.164 2.051 2.164s2.051-.969 2.051-2.164c0-1.195-.918-2.163-2.051-2.163s-2.051.968-2.051 2.163zm-16.986 0c0 1.195.919 2.164 2.052 2.164 1.132 0 2.051-.969 2.051-2.164 0-1.195-.919-2.163-2.051-2.163-1.133 0-2.052.968-2.052 2.163zm-16.985-107.496c0 1.195.919 2.164 2.051 2.164 1.133 0 2.052-.969 2.052-2.164 0-1.195-.919-2.164-2.052-2.164-1.132 0-2.051.969-2.051 2.164zm0 17.916c0 1.195.919 2.163 2.051 2.163 1.133 0 2.052-.968 2.052-2.163 0-1.195-.919-2.164-2.052-2.164-1.132 0-2.051.969-2.051 2.164zm-16.985-17.916c0 1.195.918 2.164 2.051 2.164s2.051-.969 2.051-2.164c0-1.195-.918-2.164-2.051-2.164s-2.051.969-2.051 2.164zm0 17.916c0 1.195.918 2.163 2.051 2.163s2.051-.968 2.051-2.163c0-1.195-.918-2.164-2.051-2.164s-2.051.969-2.051 2.164zm16.985 17.916c0 1.195.919 2.163 2.051 2.163 1.133 0 2.052-.968 2.052-2.163 0-1.195-.919-2.164-2.052-2.164-1.132 0-2.051.969-2.051 2.164zm0 17.916c0 1.195.919 2.164 2.051 2.164 1.133 0 2.052-.969 2.052-2.164 0-1.195-.919-2.164-2.052-2.164-1.132 0-2.051.969-2.051 2.164zm-16.985-17.916c0 1.195.918 2.163 2.051 2.163s2.051-.968 2.051-2.163c0-1.195-.918-2.164-2.051-2.164s-2.051.969-2.051 2.164zm0 17.916c0 1.195.918 2.164 2.051 2.164s2.051-.969 2.051-2.164c0-1.195-.918-2.164-2.051-2.164s-2.051.969-2.051 2.164zm16.985 17.916c0 1.195.919 2.163 2.051 2.163 1.133 0 2.052-.968 2.052-2.163 0-1.195-.919-2.164-2.052-2.164-1.132 0-2.051.969-2.051 2.164zm0 17.916c0 1.195.919 2.163 2.051 2.163 1.133 0 2.052-.968 2.052-2.163 0-1.195-.919-2.164-2.052-2.164-1.132 0-2.051.969-2.051 2.164zm-16.985-17.916c0 1.195.918 2.163 2.051 2.163s2.051-.968 2.051-2.163c0-1.195-.918-2.164-2.051-2.164s-2.051.969-2.051 2.164zm0 17.916c0 1.195.918 2.163 2.051 2.163s2.051-.968 2.051-2.163c0-1.195-.918-2.164-2.051-2.164s-2.051.969-2.051 2.164zm16.985 17.916c0 1.195.919 2.164 2.051 2.164 1.133 0 2.052-.969 2.052-2.164 0-1.195-.919-2.163-2.052-2.163-1.132 0-2.051.968-2.051 2.163zm-16.985 0c0 1.195.918 2.164 2.051 2.164s2.051-.969 2.051-2.164c0-1.195-.918-2.163-2.051-2.163s-2.051.968-2.051 2.163zm-16.985-107.496c0 1.195.918 2.164 2.051 2.164s2.051-.969 2.051-2.164c0-1.195-.918-2.164-2.051-2.164s-2.051.969-2.051 2.164zm0 17.916c0 1.195.918 2.163 2.051 2.163s2.051-.968 2.051-2.163c0-1.195-.918-2.164-2.051-2.164s-2.051.969-2.051 2.164zm-16.986-17.916c0 1.195.919 2.164 2.052 2.164 1.132 0 2.051-.969 2.051-2.164 0-1.195-.919-2.164-2.051-2.164-1.133 0-2.052.969-2.052 2.164zm0 17.916c0 1.195.919 2.163 2.052 2.163 1.132 0 2.051-.968 2.051-2.163 0-1.195-.919-2.164-2.051-2.164-1.133 0-2.052.969-2.052 2.164zm16.986 17.916c0 1.195.918 2.163 2.051 2.163s2.051-.968 2.051-2.163c0-1.195-.918-2.164-2.051-2.164s-2.051.969-2.051 2.164zm0 17.916c0 1.195.918 2.164 2.051 2.164s2.051-.969 2.051-2.164c0-1.195-.918-2.164-2.051-2.164s-2.051.969-2.051 2.164zm-16.986-17.916c0 1.195.919 2.163 2.052 2.163 1.132 0 2.051-.968 2.051-2.163 0-1.195-.919-2.164-2.051-2.164-1.133 0-2.052.969-2.052 2.164zm0 17.916c0 1.195.919 2.164 2.052 2.164 1.132 0 2.051-.969 2.051-2.164 0-1.195-.919-2.164-2.051-2.164-1.133 0-2.052.969-2.052 2.164zm16.986 17.916c0 1.195.918 2.163 2.051 2.163s2.051-.968 2.051-2.163c0-1.195-.918-2.164-2.051-2.164s-2.051.969-2.051 2.164zm0 17.916c0 1.195.918 2.163 2.051 2.163s2.051-.968 2.051-2.163c0-1.195-.918-2.164-2.051-2.164s-2.051.969-2.051 2.164zm-16.986-17.916c0 1.195.919 2.163 2.052 2.163 1.132 0 2.051-.968 2.051-2.163 0-1.195-.919-2.164-2.051-2.164-1.133 0-2.052.969-2.052 2.164zm0 17.916c0 1.195.919 2.163 2.052 2.163 1.132 0 2.051-.968 2.051-2.163 0-1.195-.919-2.164-2.051-2.164-1.133 0-2.052.969-2.052 2.164zm16.986 17.916c0 1.195.918 2.164 2.051 2.164s2.051-.969 2.051-2.164c0-1.195-.918-2.163-2.051-2.163s-2.051.968-2.051 2.163zm-16.986 0c0 1.195.919 2.164 2.052 2.164 1.132 0 2.051-.969 2.051-2.164 0-1.195-.919-2.163-2.051-2.163-1.133 0-2.052.968-2.052 2.163zm-16.985-107.496c0 1.195.918 2.164 2.051 2.164s2.051-.969 2.051-2.164c0-1.195-.918-2.164-2.051-2.164s-2.051.969-2.051 2.164zm0 17.916c0 1.195.918 2.163 2.051 2.163s2.051-.968 2.051-2.163c0-1.195-.918-2.164-2.051-2.164s-2.051.969-2.051 2.164zM525 397.114c0 1.195.918 2.164 2.051 2.164s2.051-.969 2.051-2.164c0-1.195-.918-2.164-2.051-2.164s-2.051.969-2.051 2.164zm0 17.916c0 1.195.918 2.163 2.051 2.163s2.051-.968 2.051-2.163c0-1.195-.918-2.164-2.051-2.164s-2.051.969-2.051 2.164zm16.985 17.916c0 1.195.918 2.163 2.051 2.163s2.051-.968 2.051-2.163c0-1.195-.918-2.164-2.051-2.164s-2.051.969-2.051 2.164zm0 17.916c0 1.195.918 2.164 2.051 2.164s2.051-.969 2.051-2.164c0-1.195-.918-2.164-2.051-2.164s-2.051.969-2.051 2.164zM525 432.946c0 1.195.918 2.163 2.051 2.163s2.051-.968 2.051-2.163c0-1.195-.918-2.164-2.051-2.164s-2.051.969-2.051 2.164zm0 17.916c0 1.195.918 2.164 2.051 2.164s2.051-.969 2.051-2.164c0-1.195-.918-2.164-2.051-2.164s-2.051.969-2.051 2.164zm16.985 17.916c0 1.195.918 2.163 2.051 2.163s2.051-.968 2.051-2.163c0-1.195-.918-2.164-2.051-2.164s-2.051.969-2.051 2.164zm0 17.916c0 1.195.918 2.163 2.051 2.163s2.051-.968 2.051-2.163c0-1.195-.918-2.164-2.051-2.164s-2.051.969-2.051 2.164zM525 468.778c0 1.195.918 2.163 2.051 2.163s2.051-.968 2.051-2.163c0-1.195-.918-2.164-2.051-2.164s-2.051.969-2.051 2.164zm0 17.916c0 1.195.918 2.163 2.051 2.163s2.051-.968 2.051-2.163c0-1.195-.918-2.164-2.051-2.164s-2.051.969-2.051 2.164zm16.985 17.916c0 1.195.918 2.164 2.051 2.164s2.051-.969 2.051-2.164c0-1.195-.918-2.163-2.051-2.163s-2.051.968-2.051 2.163zm-16.985 0c0 1.195.918 2.164 2.051 2.164s2.051-.969 2.051-2.164c0-1.195-.918-2.163-2.051-2.163s-2.051.968-2.051 2.163z" fill="#6C96A6" fill-opacity=".4"/>
  <g filter="url(#3Q7iF7tfAa)">
    <path d="M547.894 163.592c0-5.947-6.258-9.815-11.577-7.155l-134 67a7.999 7.999 0 00-4.423 7.155v482.112c0 5.947 6.259 9.815 11.578 7.155l134-67a8 8 0 004.422-7.155V163.592z" fill="url(#3Q7iF7tfAb)" fill-opacity=".95"/>
  </g>
  <g filter="url(#3Q7iF7tfAc)">
    <path d="M587.894 13.592c0-5.947 6.259-9.815 11.578-7.155l134 67a8 8 0 014.422 7.155v182.112c0 5.947-6.258 9.815-11.577 7.155l-134-67a7.999 7.999 0 01-4.423-7.155V13.592z" fill="url(#3Q7iF7tfAd)" fill-opacity=".95"/>
  </g>
  <g filter="url(#3Q7iF7tfAe)">
    <path d="M137.894 283.592c0-3.03 1.712-5.8 4.423-7.155l284-142c5.319-2.66 11.577 1.208 11.577 7.155v282.112a8 8 0 01-4.422 7.155l-284 142c-5.319 2.66-11.578-1.208-11.578-7.155V283.592z" fill="url(#3Q7iF7tfAf)" fill-opacity=".95"/>
  </g>
  <path fill-rule="evenodd" clip-rule="evenodd" d="M337.332 279.217l-.15-.011c-59.29-4.156-66.453 16.091-68.291 21.286-.141.399-.251.709-.35.913-2.205-5.979-7.773-10.123-14.199-10.574-8.986-.63-18.076 6.93-18.693 15.794-.459 11.796 8.903 16.166 8.903 16.166-6.529-.459-14.381 2.34-13.238 13.409 1.061 10.273 10.281 10.742 14.239 10.461-1.419.628-3.101 2.647-2.704 8.808-.398 5.695 3.959 10.639 9.735 11.044 19.183 1.054 33.776 16.684 31.514 42.035-2.3 13.35-15.328 17.699-29.511 22.434-10.097 3.371-20.78 6.937-28.595 14.086-15.838 14.488.001 88.58.001 88.58l136.651-67.897c-2.457-12.957-8.556-31.853-28.654-40.444-20.098-8.593-35.554-43.305-12.36-47.761 19.074-3.668 24.367-16.683 26.524-35.324.406-3.497.164-6.783-.061-9.816-.703-9.51-1.221-16.525 19.037-19.748 16.059-2.557 26.51-5.648 23.128-18.178-3.177-11.778-29.793-13.642-52.926-15.263zm-48.853 26.404c1.742-6.195 8.176-9.796 14.371-8.052h.002c6.188 1.746 9.798 8.178 8.05 14.372-1.74 6.195-8.175 9.797-14.372 8.054l-.001-.001c-6.187-1.745-9.8-8.179-8.05-14.373zm13.064-3.411a6.823 6.823 0 00-8.423 4.717l-.001.004c-1.025 3.625 1.089 7.398 4.718 8.423 3.638 1.023 7.406-1.093 8.424-4.718l.001-.003a6.827 6.827 0 00-4.719-8.423zm-14.701 38.885c2.199 5.252 6.592 10.194 15.21 12.691 8.642 2.504 15.516.799 20.572-2.41 5.141-3.264 8.453-8.118 9.743-11.866l4.559 1.569c-1.634 4.746-5.623 10.499-11.719 14.367-6.18 3.923-14.478 5.874-24.497 2.971-10.049-2.912-15.565-8.892-18.315-15.461-2.699-6.447-2.665-13.28-2.048-18.013l4.781.624c-.557 4.269-.535 10.155 1.714 15.528z" fill="#9FF3E9"/>
  <g filter="url(#3Q7iF7tfAg)">
    <path d="M14.502 519.548l174.111-87.056c5.319-2.66 11.578 1.208 11.578 7.155v174.112c0 5.947-6.259 9.815-11.578 7.155L14.502 533.858c-5.897-2.948-5.897-11.362 0-14.31z" fill="url(#3Q7iF7tfAh)" fill-opacity=".95"/>
  </g>
  <g filter="url(#3Q7iF7tfAi)">
    <path d="M487.894 356.828a10 10 0 015.528-8.944l380-190c6.649-3.324 14.472 1.511 14.472 8.944v177.64a10 10 0 01-5.527 8.944l-380 190c-6.649 3.325-14.473-1.51-14.473-8.944v-177.64z" fill="url(#3Q7iF7tfAj)" fill-opacity=".95"/>
  </g>
  <defs>
    <linearGradient id="3Q7iF7tfAb" x1="547.894" y1="725.648" x2="397.894" y2="150.648" gradientUnits="userSpaceOnUse">
      <stop stop-color="#BF98FF" stop-opacity=".9"/>
      <stop offset="1" stop-color="#D8B8FF"/>
    </linearGradient>
    <linearGradient id="3Q7iF7tfAd" x1="737.894" y1="275.648" x2="787.108" y2="42.742" gradientUnits="userSpaceOnUse">
      <stop stop-color="#00D1B8" stop-opacity=".9"/>
      <stop offset="1" stop-color="#25CBD9"/>
      <stop offset="1" stop-color="#25CBD9"/>
    </linearGradient>
    <linearGradient id="3Q7iF7tfAf" x1="437.894" y1="578.648" x2="504.728" y2="192.068" gradientUnits="userSpaceOnUse">
      <stop stop-color="#00D1B8" stop-opacity=".9"/>
      <stop offset="1" stop-color="#25CBD9"/>
      <stop offset="1" stop-color="#25CBD9"/>
    </linearGradient>
    <linearGradient id="3Q7iF7tfAh" x1=".191" y1="626.703" x2="200.191" y2="426.703" gradientUnits="userSpaceOnUse">
      <stop stop-color="#40C8EE"/>
      <stop offset="1" stop-color="#9CC8FF"/>
    </linearGradient>
    <linearGradient id="3Q7iF7tfAj" x1="487.894" y1="550.648" x2="887.894" y2="150.648" gradientUnits="userSpaceOnUse">
      <stop stop-color="#FF8CF4" stop-opacity=".9"/>
      <stop offset="1" stop-color="#FFA9DE"/>
    </linearGradient>
    <filter id="3Q7iF7tfAa" x="397.894" y="155.582" width="150" height="565.132" filterUnits="userSpaceOnUse" color-interpolation-filters="sRGB">
      <feFlood flood-opacity="0" result="BackgroundImageFix"/>
      <feBlend mode="normal" in="SourceGraphic" in2="BackgroundImageFix" result="shape"/>
      <feColorMatrix in="SourceAlpha" type="matrix" values="0 0 0 0 0 0 0 0 0 0 0 0 0 0 0 0 0 0 127 0" result="hardAlpha"/>
      <feOffset dx="10" dy="6"/>
      <feComposite in2="hardAlpha" operator="arithmetic" k2="-1" k3="1"/>
      <feColorMatrix type="matrix" values="0 0 0 0 1 0 0 0 0 1 0 0 0 0 1 0 0 0 0.25 0"/>
      <feBlend mode="normal" in2="shape" result="effect1_innerShadow_78_11675"/>
    </filter>
    <filter id="3Q7iF7tfAc" x="587.894" y="5.582" width="150" height="265.132" filterUnits="userSpaceOnUse" color-interpolation-filters="sRGB">
      <feFlood flood-opacity="0" result="BackgroundImageFix"/>
      <feBlend mode="normal" in="SourceGraphic" in2="BackgroundImageFix" result="shape"/>
      <feColorMatrix in="SourceAlpha" type="matrix" values="0 0 0 0 0 0 0 0 0 0 0 0 0 0 0 0 0 0 127 0" result="hardAlpha"/>
      <feOffset dx="10" dy="6"/>
      <feComposite in2="hardAlpha" operator="arithmetic" k2="-1" k3="1"/>
      <feColorMatrix type="matrix" values="0 0 0 0 1 0 0 0 0 1 0 0 0 0 1 0 0 0 0.25 0"/>
      <feBlend mode="normal" in2="shape" result="effect1_innerShadow_78_11675"/>
    </filter>
    <filter id="3Q7iF7tfAe" x="137.894" y="133.582" width="300" height="440.132" filterUnits="userSpaceOnUse" color-interpolation-filters="sRGB">
      <feFlood flood-opacity="0" result="BackgroundImageFix"/>
      <feBlend mode="normal" in="SourceGraphic" in2="BackgroundImageFix" result="shape"/>
      <feColorMatrix in="SourceAlpha" type="matrix" values="0 0 0 0 0 0 0 0 0 0 0 0 0 0 0 0 0 0 127 0" result="hardAlpha"/>
      <feOffset dx="10" dy="6"/>
      <feComposite in2="hardAlpha" operator="arithmetic" k2="-1" k3="1"/>
      <feColorMatrix type="matrix" values="0 0 0 0 1 0 0 0 0 1 0 0 0 0 1 0 0 0 0.25 0"/>
      <feBlend mode="normal" in2="shape" result="effect1_innerShadow_78_11675"/>
    </filter>
    <filter id="3Q7iF7tfAg" x="10.079" y="431.637" width="190.111" height="190.132" filterUnits="userSpaceOnUse" color-interpolation-filters="sRGB">
      <feFlood flood-opacity="0" result="BackgroundImageFix"/>
      <feBlend mode="normal" in="SourceGraphic" in2="BackgroundImageFix" result="shape"/>
      <feColorMatrix in="SourceAlpha" type="matrix" values="0 0 0 0 0 0 0 0 0 0 0 0 0 0 0 0 0 0 127 0" result="hardAlpha"/>
      <feOffset dx="10" dy="6"/>
      <feComposite in2="hardAlpha" operator="arithmetic" k2="-1" k3="1"/>
      <feColorMatrix type="matrix" values="0 0 0 0 1 0 0 0 0 1 0 0 0 0 1 0 0 0 0.25 0"/>
      <feBlend mode="normal" in2="shape" result="effect1_innerShadow_78_11675"/>
    </filter>
    <filter id="3Q7iF7tfAi" x="487.894" y="156.816" width="400" height="387.665" filterUnits="userSpaceOnUse" color-interpolation-filters="sRGB">
      <feFlood flood-opacity="0" result="BackgroundImageFix"/>
      <feBlend mode="normal" in="SourceGraphic" in2="BackgroundImageFix" result="shape"/>
      <feColorMatrix in="SourceAlpha" type="matrix" values="0 0 0 0 0 0 0 0 0 0 0 0 0 0 0 0 0 0 127 0" result="hardAlpha"/>
      <feOffset dx="10" dy="6"/>
      <feComposite in2="hardAlpha" operator="arithmetic" k2="-1" k3="1"/>
      <feColorMatrix type="matrix" values="0 0 0 0 1 0 0 0 0 1 0 0 0 0 1 0 0 0 0.25 0"/>
      <feBlend mode="normal" in2="shape" result="effect1_innerShadow_78_11675"/>
    </filter>
  </defs>
</svg>
