<svg fill="none" xmlns="http://www.w3.org/2000/svg" viewBox="0 0 629 629">
  <path fill="#fff" d="M0 0h629v629H0z"/>
  <path fill-rule="evenodd" clip-rule="evenodd" d="M165.571 486.461v12.703h2.5v-12.703h20.755v12.703h2.5v-12.703h20.755v12.703h2.5v-12.703h20.756v12.703h2.5v-12.703h20.756v12.703h2.5v-12.703h20.756v12.703h2.5v-12.703h20.755v12.703h2.5v-12.703h20.757v12.703h2.5v-12.703h20.755v12.703h2.5v-12.703h20.755v12.703h2.5v-12.703h20.758v12.703h2.5v-12.703h20.755v12.703h2.5v-12.703h20.755v12.703h2.5v-12.703h20.756v12.703h2.5v-12.703h20.756v12.703h2.5v-12.703h20.755v12.703h2.5v-12.703h20.756v12.703h2.5v-12.703h12.704v-2.5h-12.704v-20.756h12.704v-2.5h-12.704v-20.756h12.704v-2.5h-12.704v-20.756h12.704v-2.5h-12.704v-20.755h12.704v-2.5h-12.704v-20.756h12.704v-2.5h-12.704v-20.756h12.704v-2.5h-12.704V323.67h12.704v-2.5h-12.704v-20.756h12.704v-2.5h-12.704v-20.755h12.704v-2.5h-12.704v-20.756h12.704v-2.5h-12.704v-20.756h12.704v-2.5h-12.704v-20.756h12.704v-2.5h-12.704v-20.756h12.704v-2.5h-12.704V160.88h12.704v-2.5h-12.704v-20.756h12.704v-2.5h-12.704v-20.756h12.704v-2.5h-12.704V99.164h-2.5v12.704h-20.756V99.164h-2.5v12.704h-20.755V99.164h-2.5v12.704h-20.756V99.164h-2.5v12.704h-20.756V99.164h-2.5v12.704h-20.755V99.164h-2.5v12.704h-20.755V99.164h-2.5v12.704h-20.758V99.164h-2.5v12.704h-20.755V99.164h-2.5v12.704h-20.755V99.164h-2.5v12.704h-20.757V99.164h-2.5v12.704h-20.755V99.164h-2.5v12.704h-20.756V99.164h-2.5v12.704h-20.756V99.164h-2.5v12.704h-20.756V99.164h-2.5v12.704h-20.755V99.164h-2.5v12.704h-20.755V99.164h-2.5v12.704h-12.705v2.5h12.705v20.756h-12.705v2.5h12.705v20.756h-12.705v2.5h12.705v20.755h-12.705v2.5h12.705v20.756h-12.705v2.5h12.705v20.756h-12.705v2.5h12.705v20.756h-12.705v2.5h12.705v20.756h-12.705v2.5h12.705v20.755h-12.705v2.5h12.705v20.756h-12.705v2.5h12.705v20.756h-12.705v2.5h12.705v20.756h-12.705v2.5h12.705v20.756h-12.705v2.5h12.705v20.755h-12.705v2.5h12.705v20.756h-12.705v2.5h12.705v20.756h-12.705v2.5h12.705v20.756h-12.705v2.5h12.705zm372.091-372.093h-20.756v20.756h20.756v-20.756zm0 23.256h-20.756v20.756h20.756v-20.756zm0 23.256h-20.756v20.755h20.756V160.88zm0 23.255h-20.756v20.756h20.756v-20.756zm0 23.256h-20.756v20.756h20.756v-20.756zm0 23.256h-20.756v20.756h20.756v-20.756zm0 23.256h-20.756v20.756h20.756v-20.756zm0 23.256h-20.756v20.755h20.756v-20.755zm0 23.255h-20.756v20.756h20.756v-20.756zm0 23.256h-20.756v20.756h20.756V323.67zm0 23.256h-20.756v20.756h20.756v-20.756zm0 23.256h-20.756v20.756h20.756v-20.756zm0 23.256h-20.756v20.755h20.756v-20.755zm0 23.255h-20.756v20.756h20.756v-20.756zm0 23.256h-20.756v20.756h20.756v-20.756zm0 23.256h-20.756v20.756h20.756v-20.756zm-23.256 0v20.756h-20.755v-20.756h20.755zm0-23.256v20.756h-20.755v-20.756h20.755zm0-23.256v20.756h-20.755v-20.756h20.755zm0-23.255v20.755h-20.755v-20.755h20.755zm0-23.256v20.756h-20.755v-20.756h20.755zm0-23.256v20.756h-20.755v-20.756h20.755zm0-23.256v20.756h-20.755V323.67h20.755zm0-23.256v20.756h-20.755v-20.756h20.755zm0-23.255v20.755h-20.755v-20.755h20.755zm0-23.256v20.756h-20.755v-20.756h20.755zm0-23.256v20.756h-20.755v-20.756h20.755zm0-23.256v20.756h-20.755v-20.756h20.755zm0-23.256v20.756h-20.755v-20.756h20.755zm0-23.255v20.755h-20.755V160.88h20.755zm0-23.256v20.756h-20.755v-20.756h20.755zm0-23.256v20.756h-20.755v-20.756h20.755zm-23.255 0h-20.756v20.756h20.756v-20.756zm0 23.256h-20.756v20.756h20.756v-20.756zm0 23.256h-20.756v20.755h20.756V160.88zm0 23.255h-20.756v20.756h20.756v-20.756zm0 23.256h-20.756v20.756h20.756v-20.756zm0 23.256h-20.756v20.756h20.756v-20.756zm0 23.256h-20.756v20.756h20.756v-20.756zm0 23.256h-20.756v20.755h20.756v-20.755zm0 23.255h-20.756v20.756h20.756v-20.756zm0 23.256h-20.756v20.756h20.756V323.67zm0 23.256h-20.756v20.756h20.756v-20.756zm0 23.256h-20.756v20.756h20.756v-20.756zm0 23.256h-20.756v20.755h20.756v-20.755zm0 23.255h-20.756v20.756h20.756v-20.756zm0 23.256h-20.756v20.756h20.756v-20.756zm0 23.256h-20.756v20.756h20.756v-20.756zm-23.256 0v20.756h-20.756v-20.756h20.756zm0-23.256v20.756h-20.756v-20.756h20.756zm0-23.256v20.756h-20.756v-20.756h20.756zm0-23.255v20.755h-20.756v-20.755h20.756zm0-23.256v20.756h-20.756v-20.756h20.756zm0-23.256v20.756h-20.756v-20.756h20.756zm0-23.256v20.756h-20.756V323.67h20.756zm0-23.256v20.756h-20.756v-20.756h20.756zm0-23.255v20.755h-20.756v-20.755h20.756zm0-23.256v20.756h-20.756v-20.756h20.756zm0-23.256v20.756h-20.756v-20.756h20.756zm0-23.256v20.756h-20.756v-20.756h20.756zm0-23.256v20.756h-20.756v-20.756h20.756zm0-23.255v20.755h-20.756V160.88h20.756zm0-23.256v20.756h-20.756v-20.756h20.756zm0-23.256v20.756h-20.756v-20.756h20.756zm-23.256 0h-20.755v20.756h20.755v-20.756zm0 23.256h-20.755v20.756h20.755v-20.756zm0 23.256h-20.755v20.755h20.755V160.88zm0 23.255h-20.755v20.756h20.755v-20.756zm0 23.256h-20.755v20.756h20.755v-20.756zm0 23.256h-20.755v20.756h20.755v-20.756zm0 23.256h-20.755v20.756h20.755v-20.756zm0 23.256h-20.755v20.755h20.755v-20.755zm0 23.255h-20.755v20.756h20.755v-20.756zm0 23.256h-20.755v20.756h20.755V323.67zm0 23.256h-20.755v20.756h20.755v-20.756zm0 23.256h-20.755v20.756h20.755v-20.756zm0 23.256h-20.755v20.755h20.755v-20.755zm0 23.255h-20.755v20.756h20.755v-20.756zm0 23.256h-20.755v20.756h20.755v-20.756zm0 23.256h-20.755v20.756h20.755v-20.756zm-23.255 0v20.756h-20.755v-20.756h20.755zm0-23.256v20.756h-20.755v-20.756h20.755zm0-23.256v20.756h-20.755v-20.756h20.755zm0-23.255v20.755h-20.755v-20.755h20.755zm0-23.256v20.756h-20.755v-20.756h20.755zm0-23.256v20.756h-20.755v-20.756h20.755zm0-23.256v20.756h-20.755V323.67h20.755zm0-23.256v20.756h-20.755v-20.756h20.755zm0-23.255v20.755h-20.755v-20.755h20.755zm0-23.256v20.756h-20.755v-20.756h20.755zm0-23.256v20.756h-20.755v-20.756h20.755zm0-23.256v20.756h-20.755v-20.756h20.755zm0-23.256v20.756h-20.755v-20.756h20.755zm0-23.255v20.755h-20.755V160.88h20.755zm0-23.256v20.756h-20.755v-20.756h20.755zm0-23.256v20.756h-20.755v-20.756h20.755zm-23.255 0h-20.758v20.756h20.758v-20.756zm0 23.256h-20.758v20.756h20.758v-20.756zm0 23.256h-20.758v20.755h20.758V160.88zm0 23.255h-20.758v20.756h20.758v-20.756zm0 23.256h-20.758v20.756h20.758v-20.756zm0 23.256h-20.758v20.756h20.758v-20.756zm0 23.256h-20.758v20.756h20.758v-20.756zm0 23.256h-20.758v20.755h20.758v-20.755zm0 23.255h-20.758v20.756h20.758v-20.756zm0 23.256h-20.758v20.756h20.758V323.67zm0 23.256h-20.758v20.756h20.758v-20.756zm0 23.256h-20.758v20.756h20.758v-20.756zm0 23.256h-20.758v20.755h20.758v-20.755zm0 23.255h-20.758v20.756h20.758v-20.756zm0 23.256h-20.758v20.756h20.758v-20.756zm0 23.256h-20.758v20.756h20.758v-20.756zm-23.258 0v20.756h-20.755v-20.756h20.755zm0-23.256v20.756h-20.755v-20.756h20.755zm0-23.256v20.756h-20.755v-20.756h20.755zm0-23.255v20.755h-20.755v-20.755h20.755zm0-23.256v20.756h-20.755v-20.756h20.755zm0-23.256v20.756h-20.755v-20.756h20.755zm0-23.256v20.756h-20.755V323.67h20.755zm0-23.256v20.756h-20.755v-20.756h20.755zm0-23.255v20.755h-20.755v-20.755h20.755zm0-23.256v20.756h-20.755v-20.756h20.755zm0-23.256v20.756h-20.755v-20.756h20.755zm0-23.256v20.756h-20.755v-20.756h20.755zm0-23.256v20.756h-20.755v-20.756h20.755zm0-23.255v20.755h-20.755V160.88h20.755zm0-23.256v20.756h-20.755v-20.756h20.755zm0-23.256v20.756h-20.755v-20.756h20.755zm-23.255 0h-20.755v20.756h20.755v-20.756zm0 23.256h-20.755v20.756h20.755v-20.756zm0 23.256h-20.755v20.755h20.755V160.88zm0 23.255h-20.755v20.756h20.755v-20.756zm0 23.256h-20.755v20.756h20.755v-20.756zm0 23.256h-20.755v20.756h20.755v-20.756zm0 23.256h-20.755v20.756h20.755v-20.756zm0 23.256h-20.755v20.755h20.755v-20.755zm0 23.255h-20.755v20.756h20.755v-20.756zm0 23.256h-20.755v20.756h20.755V323.67zm0 23.256h-20.755v20.756h20.755v-20.756zm0 23.256h-20.755v20.756h20.755v-20.756zm0 23.256h-20.755v20.755h20.755v-20.755zm0 23.255h-20.755v20.756h20.755v-20.756zm0 23.256h-20.755v20.756h20.755v-20.756zm0 23.256h-20.755v20.756h20.755v-20.756zm-23.255 0v20.756h-20.757v-20.756h20.757zm0-23.256v20.756h-20.757v-20.756h20.757zm0-23.256v20.756h-20.757v-20.756h20.757zm0-23.255v20.755h-20.757v-20.755h20.757zm0-23.256v20.756h-20.757v-20.756h20.757zm0-23.256v20.756h-20.757v-20.756h20.757zm0-23.256v20.756h-20.757V323.67h20.757zm0-23.256v20.756h-20.757v-20.756h20.757zm0-23.255v20.755h-20.757v-20.755h20.757zm0-23.256v20.756h-20.757v-20.756h20.757zm0-23.256v20.756h-20.757v-20.756h20.757zm0-23.256v20.756h-20.757v-20.756h20.757zm0-23.256v20.756h-20.757v-20.756h20.757zm0-23.255v20.755h-20.757V160.88h20.757zm0-23.256v20.756h-20.757v-20.756h20.757zm0-23.256v20.756h-20.757v-20.756h20.757zm-23.257 0h-20.755v20.756h20.755v-20.756zm0 23.256h-20.755v20.756h20.755v-20.756zm0 23.256h-20.755v20.755h20.755V160.88zm0 23.255h-20.755v20.756h20.755v-20.756zm0 23.256h-20.755v20.756h20.755v-20.756zm0 23.256h-20.755v20.756h20.755v-20.756zm0 23.256h-20.755v20.756h20.755v-20.756zm0 23.256h-20.755v20.755h20.755v-20.755zm0 23.255h-20.755v20.756h20.755v-20.756zm0 23.256h-20.755v20.756h20.755V323.67zm0 23.256h-20.755v20.756h20.755v-20.756zm0 23.256h-20.755v20.756h20.755v-20.756zm0 23.256h-20.755v20.755h20.755v-20.755zm0 23.255h-20.755v20.756h20.755v-20.756zm0 23.256h-20.755v20.756h20.755v-20.756zm0 23.256h-20.755v20.756h20.755v-20.756zm-23.255 0v20.756h-20.756v-20.756h20.756zm0-23.256v20.756h-20.756v-20.756h20.756zm0-23.256v20.756h-20.756v-20.756h20.756zm0-23.255v20.755h-20.756v-20.755h20.756zm0-23.256v20.756h-20.756v-20.756h20.756zm0-23.256v20.756h-20.756v-20.756h20.756zm0-23.256v20.756h-20.756V323.67h20.756zm0-23.256v20.756h-20.756v-20.756h20.756zm0-23.255v20.755h-20.756v-20.755h20.756zm0-23.256v20.756h-20.756v-20.756h20.756zm0-23.256v20.756h-20.756v-20.756h20.756zm0-23.256v20.756h-20.756v-20.756h20.756zm0-23.256v20.756h-20.756v-20.756h20.756zm0-23.255v20.755h-20.756V160.88h20.756zm0-23.256v20.756h-20.756v-20.756h20.756zm0-23.256v20.756h-20.756v-20.756h20.756zm-23.256 0h-20.756v20.756h20.756v-20.756zm0 23.256h-20.756v20.756h20.756v-20.756zm0 23.256h-20.756v20.755h20.756V160.88zm0 23.255h-20.756v20.756h20.756v-20.756zm0 23.256h-20.756v20.756h20.756v-20.756zm0 23.256h-20.756v20.756h20.756v-20.756zm0 23.256h-20.756v20.756h20.756v-20.756zm0 23.256h-20.756v20.755h20.756v-20.755zm0 23.255h-20.756v20.756h20.756v-20.756zm0 23.256h-20.756v20.756h20.756V323.67zm0 23.256h-20.756v20.756h20.756v-20.756zm0 23.256h-20.756v20.756h20.756v-20.756zm0 23.256h-20.756v20.755h20.756v-20.755zm0 23.255h-20.756v20.756h20.756v-20.756zm0 23.256h-20.756v20.756h20.756v-20.756zm0 23.256h-20.756v20.756h20.756v-20.756zm-23.256 0v20.756h-20.756v-20.756h20.756zm0-23.256v20.756h-20.756v-20.756h20.756zm0-23.256v20.756h-20.756v-20.756h20.756zm0-23.255v20.755h-20.756v-20.755h20.756zm0-23.256v20.756h-20.756v-20.756h20.756zm0-23.256v20.756h-20.756v-20.756h20.756zm0-23.256v20.756h-20.756V323.67h20.756zm0-23.256v20.756h-20.756v-20.756h20.756zm0-23.255v20.755h-20.756v-20.755h20.756zm0-23.256v20.756h-20.756v-20.756h20.756zm0-23.256v20.756h-20.756v-20.756h20.756zm0-23.256v20.756h-20.756v-20.756h20.756zm0-23.256v20.756h-20.756v-20.756h20.756zm0-23.255v20.755h-20.756V160.88h20.756zm0-23.256v20.756h-20.756v-20.756h20.756zm0-23.256v20.756h-20.756v-20.756h20.756zm-23.256 0h-20.755v20.756h20.755v-20.756zm0 23.256h-20.755v20.756h20.755v-20.756zm0 23.256h-20.755v20.755h20.755V160.88zm0 23.255h-20.755v20.756h20.755v-20.756zm0 23.256h-20.755v20.756h20.755v-20.756zm0 23.256h-20.755v20.756h20.755v-20.756zm0 23.256h-20.755v20.756h20.755v-20.756zm0 23.256h-20.755v20.755h20.755v-20.755zm0 23.255h-20.755v20.756h20.755v-20.756zm0 23.256h-20.755v20.756h20.755V323.67zm0 23.256h-20.755v20.756h20.755v-20.756zm0 23.256h-20.755v20.756h20.755v-20.756zm0 23.256h-20.755v20.755h20.755v-20.755zm0 23.255h-20.755v20.756h20.755v-20.756zm0 23.256h-20.755v20.756h20.755v-20.756zm0 23.256h-20.755v20.756h20.755v-20.756zm-23.255 0v20.756h-20.755v-20.756h20.755zm0-23.256v20.756h-20.755v-20.756h20.755zm0-23.256v20.756h-20.755v-20.756h20.755zm0-23.255v20.755h-20.755v-20.755h20.755zm0-23.256v20.756h-20.755v-20.756h20.755zm0-23.256v20.756h-20.755v-20.756h20.755zm0-23.256v20.756h-20.755V323.67h20.755zm0-23.256v20.756h-20.755v-20.756h20.755zm0-23.255v20.755h-20.755v-20.755h20.755zm0-23.256v20.756h-20.755v-20.756h20.755zm0-23.256v20.756h-20.755v-20.756h20.755zm0-23.256v20.756h-20.755v-20.756h20.755zm0-23.256v20.756h-20.755v-20.756h20.755zm0-23.255v20.755h-20.755V160.88h20.755zm0-23.256v20.756h-20.755v-20.756h20.755zm0-23.256v20.756h-20.755v-20.756h20.755z" fill="#BBCED6"/>
  <g filter="url(#jG4l_wsoDshIa)">
    <rect x="55" y="56.164" width="256" height="408" rx="12" fill="#F0F3F6"/>
    <g filter="url(#jG4l_wsoDshIb)">
      <rect x="75" y="76.164" width="216" height="128" rx="8" fill="url(#jG4l_wsoDshIc)" fill-opacity=".95"/>
    </g>
    <rect opacity=".5" x="75" y="76.164" width="216" height="128" rx="8" fill="#0C0D0D"/>
    <path d="M193.5 133.664h-21a3 3 0 00-3 3v10.5a3 3 0 003 3h21a3 3 0 003-3v-10.5a3 3 0 00-3-3z" stroke="url(#jG4l_wsoDshId)" stroke-opacity=".95" stroke-width="2" stroke-linecap="round" stroke-linejoin="round"/>
    <path d="M175.5 133.664v-6a7.499 7.499 0 0112.803-5.303 7.499 7.499 0 012.197 5.303v6" stroke="url(#jG4l_wsoDshIe)" stroke-opacity=".95" stroke-width="2" stroke-linecap="round" stroke-linejoin="round"/>
    <path d="M90.276 218.244v7.92h-1.188v-4.584l.096-2.184h-.012l-2.412 6.768h-1.068l-2.412-6.768h-.012l.096 2.184v4.584h-1.188v-7.92h1.908l1.596 4.584.552 1.884h.024l.564-1.884 1.584-4.584h1.872zm7.441 1.92l-2.628 6.708c-.176.464-.368.832-.576 1.104-.2.272-.432.468-.696.588-.264.12-.572.18-.924.18-.288 0-.556-.04-.804-.12a2.224 2.224 0 01-.636-.3l.312-.996c.152.128.312.224.48.288.176.064.364.096.564.096.216 0 .408-.06.576-.18.176-.112.332-.34.468-.684l.264-.648-.636-1.488-1.872-4.548h1.44l1.332 3.768.348 1.128.396-1.236 1.26-3.66h1.332zm7.681-1.92c1.24 0 2.204.344 2.892 1.032.696.68 1.044 1.656 1.044 2.928s-.348 2.252-1.044 2.94c-.688.68-1.652 1.02-2.892 1.02h-2.796v-7.92h2.796zm0 6.828c.84 0 1.48-.248 1.92-.744.448-.504.672-1.212.672-2.124 0-.912-.224-1.616-.672-2.112-.44-.504-1.08-.756-1.92-.756h-1.512v5.736h1.512zm8.301 1.212c-.6 0-1.128-.124-1.584-.372a2.64 2.64 0 01-1.068-1.068c-.248-.472-.372-1.032-.372-1.68 0-.648.124-1.204.372-1.668a2.642 2.642 0 011.056-1.08 3.093 3.093 0 011.524-.372c.584 0 1.08.12 1.488.36.408.24.72.568.936.984.216.416.324.888.324 1.416 0 .144-.004.28-.012.408-.008.128-.02.24-.036.336h-4.824v-.984h4.26l-.636.192c0-.544-.136-.96-.408-1.248-.272-.296-.644-.444-1.116-.444-.344 0-.644.08-.9.24-.256.16-.452.4-.588.72-.136.312-.204.696-.204 1.152 0 .448.072.828.216 1.14.144.312.348.548.612.708.264.16.576.24.936.24.4 0 .724-.076.972-.228.248-.152.444-.364.588-.636l1.02.48c-.144.288-.34.54-.588.756-.24.208-.528.368-.864.48a3.473 3.473 0 01-1.104.168zm6.577 0c-.6 0-1.148-.116-1.644-.348a2.844 2.844 0 01-1.176-.984l.888-.768c.176.328.428.592.756.792.336.192.736.288 1.2.288.368 0 .66-.064.876-.192.216-.128.324-.308.324-.54a.563.563 0 00-.156-.396c-.096-.12-.284-.212-.564-.276l-1.26-.264c-.64-.128-1.096-.332-1.368-.612-.272-.288-.408-.652-.408-1.092 0-.328.096-.632.288-.912.192-.28.472-.504.84-.672.376-.176.824-.264 1.344-.264.6 0 1.112.108 1.536.324.424.208.748.508.972.9l-.888.744a1.484 1.484 0 00-.672-.708 1.918 1.918 0 00-.924-.24c-.256 0-.476.032-.66.096a.95.95 0 00-.42.264.59.59 0 00-.144.396c0 .16.06.3.18.42s.336.212.648.276l1.368.288c.576.112.98.304 1.212.576.24.264.36.588.36.972s-.1.724-.3 1.02c-.2.288-.488.512-.864.672-.376.16-.824.24-1.344.24zm4.72-7.128c-.28 0-.496-.068-.648-.204-.144-.144-.216-.344-.216-.6s.072-.452.216-.588c.152-.136.368-.204.648-.204.272 0 .48.068.624.204.152.136.228.332.228.588 0 .256-.076.456-.228.6-.144.136-.352.204-.624.204zm.636 1.008v6h-1.284v-6h1.284zm7.289-1.26l.204 1.008h-.072a.227.227 0 00-.072-.012c-.384 0-.676.084-.876.252-.2.16-.3.396-.3.708l-.624-.288c0-.32.068-.604.204-.852.136-.256.328-.456.576-.6.256-.144.544-.216.864-.216h.096zm-1.896 6.324c.608 0 1.08.136 1.416.408.336.264.504.632.504 1.104 0 .416-.132.772-.396 1.068-.264.304-.624.536-1.08.696-.448.16-.964.24-1.548.24-.984 0-1.712-.152-2.184-.456-.472-.304-.708-.684-.708-1.14 0-.32.112-.6.336-.84.232-.24.62-.376 1.164-.408l-.072.192c-.336-.072-.608-.2-.816-.384-.2-.192-.3-.46-.3-.804 0-.344.132-.636.396-.876s.636-.38 1.116-.42l.672.324h-.144c-.368.032-.628.116-.78.252-.152.136-.228.288-.228.456 0 .2.072.348.216.444.152.096.364.144.636.144h1.8zm-1.104 2.556c.44 0 .8-.044 1.08-.132.288-.08.5-.188.636-.324.144-.128.216-.272.216-.432a.525.525 0 00-.228-.444c-.144-.112-.408-.168-.792-.168h-1.932a.925.925 0 00-.564.168.58.58 0 00-.228.48c0 .264.16.472.48.624.32.152.764.228 1.332.228zm-.048-7.74c.528 0 .984.084 1.368.252.392.168.692.404.9.708.216.304.324.66.324 1.068 0 .408-.108.764-.324 1.068-.208.304-.508.54-.9.708-.384.168-.84.252-1.368.252-.832 0-1.472-.184-1.92-.552-.44-.376-.66-.868-.66-1.476 0-.408.108-.764.324-1.068.216-.304.516-.54.9-.708.392-.168.844-.252 1.356-.252zm0 .9c-.368 0-.676.104-.924.312-.24.2-.36.472-.36.816s.12.62.36.828c.248.208.556.312.924.312.376 0 .684-.104.924-.312.248-.208.372-.484.372-.828s-.124-.616-.372-.816c-.24-.208-.548-.312-.924-.312zm4.248 5.22v-6h1.14l.084 1.56-.168-.168c.112-.344.272-.628.48-.852.216-.232.468-.4.756-.504.296-.104.608-.156.936-.156.424 0 .804.084 1.14.252.344.16.616.404.816.732.2.328.3.744.3 1.248v3.888h-1.284v-3.492c0-.592-.124-1-.372-1.224-.24-.232-.544-.348-.912-.348-.264 0-.52.064-.768.192a1.51 1.51 0 00-.624.588c-.16.272-.24.636-.24 1.092v3.192h-1.284zm14.212-8.04c.712 0 1.328.136 1.848.408.52.264.96.656 1.32 1.176l-.864.828c-.304-.464-.648-.796-1.032-.996-.376-.208-.824-.312-1.344-.312-.384 0-.7.052-.948.156-.248.104-.432.244-.552.42-.112.168-.168.36-.168.576a.93.93 0 00.252.648c.176.184.5.328.972.432l1.608.36c.768.168 1.312.424 1.632.768.32.344.48.78.48 1.308 0 .488-.132.912-.396 1.272s-.632.636-1.104.828c-.464.192-1.012.288-1.644.288a4.93 4.93 0 01-1.512-.216 4.05 4.05 0 01-1.176-.588 3.478 3.478 0 01-.828-.852l.888-.888c.168.28.38.532.636.756.256.216.552.384.888.504.344.12.724.18 1.14.18.368 0 .684-.044.948-.132.272-.088.476-.216.612-.384a.955.955 0 00.216-.624.882.882 0 00-.24-.612c-.152-.176-.44-.312-.864-.408l-1.74-.396c-.48-.104-.876-.252-1.188-.444a1.931 1.931 0 01-.696-.696 1.93 1.93 0 01-.228-.936c0-.448.12-.852.36-1.212.248-.368.604-.66 1.068-.876.464-.224 1.016-.336 1.656-.336zm9.829 2.04l-2.628 6.708c-.176.464-.368.832-.576 1.104-.2.272-.432.468-.696.588-.264.12-.572.18-.924.18-.288 0-.556-.04-.804-.12a2.224 2.224 0 01-.636-.3l.312-.996c.152.128.312.224.48.288.176.064.364.096.564.096.216 0 .408-.06.576-.18.176-.112.332-.34.468-.684l.264-.648-.636-1.488-1.872-4.548h1.44l1.332 3.768.348 1.128.396-1.236 1.26-3.66h1.332zm3.235 6.12c-.6 0-1.148-.116-1.644-.348a2.844 2.844 0 01-1.176-.984l.888-.768c.176.328.428.592.756.792.336.192.736.288 1.2.288.368 0 .66-.064.876-.192.216-.128.324-.308.324-.54a.563.563 0 00-.156-.396c-.096-.12-.284-.212-.564-.276l-1.26-.264c-.64-.128-1.096-.332-1.368-.612-.272-.288-.408-.652-.408-1.092 0-.328.096-.632.288-.912.192-.28.472-.504.84-.672.376-.176.824-.264 1.344-.264.6 0 1.112.108 1.536.324.424.208.748.508.972.9l-.888.744a1.484 1.484 0 00-.672-.708 1.918 1.918 0 00-.924-.24c-.256 0-.476.032-.66.096a.95.95 0 00-.42.264.59.59 0 00-.144.396c0 .16.06.3.18.42s.336.212.648.276l1.368.288c.576.112.98.304 1.212.576.24.264.36.588.36.972s-.1.724-.3 1.02c-.2.288-.488.512-.864.672-.376.16-.824.24-1.344.24zm5.824-7.884v5.964c0 .296.076.512.228.648.16.136.372.204.636.204.216 0 .404-.032.564-.096a1.76 1.76 0 00.444-.288l.288.936c-.184.16-.412.288-.684.384-.264.088-.56.132-.888.132-.344 0-.66-.056-.948-.168a1.365 1.365 0 01-.672-.54c-.16-.256-.244-.588-.252-.996v-5.82l1.284-.36zm2.064 1.764v1.008h-4.5v-1.008h4.5zm3.91 6.12c-.6 0-1.128-.124-1.584-.372a2.64 2.64 0 01-1.068-1.068c-.248-.472-.372-1.032-.372-1.68 0-.648.124-1.204.372-1.668a2.642 2.642 0 011.056-1.08 3.093 3.093 0 011.524-.372c.584 0 1.08.12 1.488.36.408.24.72.568.936.984.216.416.324.888.324 1.416 0 .144-.004.28-.012.408-.008.128-.02.24-.036.336h-4.824v-.984h4.26l-.636.192c0-.544-.136-.96-.408-1.248-.272-.296-.644-.444-1.116-.444-.344 0-.644.08-.9.24-.256.16-.452.4-.588.72-.136.312-.204.696-.204 1.152 0 .448.072.828.216 1.14.144.312.348.548.612.708.264.16.576.24.936.24.4 0 .724-.076.972-.228.248-.152.444-.364.588-.636l1.02.48c-.144.288-.34.54-.588.756-.24.208-.528.368-.864.48a3.473 3.473 0 01-1.104.168zm4.297-.12v-6h1.14l.06 1.008c.208-.384.484-.668.828-.852a2.376 2.376 0 011.116-.276c.432 0 .828.1 1.188.3.368.192.644.484.828.876.128-.264.304-.484.528-.66.224-.176.472-.304.744-.384.272-.088.54-.132.804-.132.384 0 .744.08 1.08.24.336.16.608.404.816.732.208.328.312.748.312 1.26v3.888h-1.284v-3.684c0-.488-.116-.84-.348-1.056-.232-.216-.528-.324-.888-.324-.28 0-.54.068-.78.204a1.5 1.5 0 00-.564.612c-.144.264-.216.592-.216.984v3.264h-1.284v-3.684c0-.488-.116-.84-.348-1.056-.232-.216-.528-.324-.888-.324a1.543 1.543 0 00-1.32.792c-.16.272-.24.632-.24 1.08v3.192h-1.284z" fill="#252A2D"/>
    <path d="M83.93 242.264c-.62 0-1.16-.136-1.62-.41a2.129 2.129 0 01-.93-1.17l1.04-.49c.06.24.153.447.28.62.127.174.293.307.5.4.207.087.463.13.77.13.26 0 .48-.046.66-.14a.962.962 0 00.41-.39c.1-.166.15-.356.15-.57 0-.22-.043-.403-.13-.55a.704.704 0 00-.39-.32 1.908 1.908 0 00-.67-.1c-.08 0-.163.004-.25.01-.08 0-.167.007-.26.02v-.9l.17.02h.17c.433 0 .743-.086.93-.26.187-.173.28-.443.28-.81 0-.313-.097-.553-.29-.72-.187-.166-.457-.25-.81-.25-.367 0-.653.087-.86.26-.2.167-.353.41-.46.73l-.98-.41a1.95 1.95 0 01.47-.8c.22-.226.49-.4.81-.52a2.95 2.95 0 011.07-.19c.473 0 .867.077 1.18.23.32.154.557.364.71.63.16.267.24.564.24.89 0 .254-.037.477-.11.67-.073.187-.173.35-.3.49a1.33 1.33 0 01-.4.31 1.46 1.46 0 01-.43.15v.02c.193.007.37.047.53.12.167.067.313.164.44.29.133.12.237.267.31.44.073.174.11.364.11.57 0 .4-.1.75-.3 1.05-.2.3-.477.534-.83.7-.347.167-.75.25-1.21.25zm8.931 0a2.13 2.13 0 01-1.13-.31 2.14 2.14 0 01-.79-.89c-.193-.386-.29-.85-.29-1.39 0-.56.104-1.033.31-1.42.207-.386.484-.68.83-.88.347-.206.727-.31 1.14-.31.427 0 .787.117 1.08.35.294.234.49.537.59.91l-.12.11v-3.52h1.07v7.25h-.95l-.08-1.36.14.01c-.046.3-.156.56-.33.78-.173.214-.39.38-.65.5a1.97 1.97 0 01-.82.17zm.23-.86c.287 0 .534-.073.74-.22.207-.146.367-.353.48-.62.114-.266.17-.586.17-.96 0-.346-.056-.643-.17-.89a1.305 1.305 0 00-.48-.58c-.2-.133-.433-.2-.7-.2-.446 0-.793.154-1.04.46-.246.307-.37.73-.37 1.27s.12.967.36 1.28c.24.307.577.46 1.01.46zm7.01-2.45c0-.333-.093-.59-.28-.77-.18-.186-.43-.28-.75-.28-.3 0-.557.07-.77.21-.213.14-.37.367-.47.68l-.9-.38c.127-.406.373-.733.74-.98.373-.246.853-.37 1.44-.37.4 0 .753.067 1.06.2.307.127.547.32.72.58.18.26.27.594.27 1v2.23c0 .247.123.37.37.37.12 0 .237-.016.35-.05l-.06.74c-.153.074-.347.11-.58.11-.213 0-.407-.036-.58-.11a.962.962 0 01-.4-.35 1.155 1.155 0 01-.14-.59v-.07l.22-.01c-.06.26-.183.477-.37.65a1.905 1.905 0 01-.65.38 2.42 2.42 0 01-.75.12c-.314 0-.597-.05-.85-.15a1.33 1.33 0 01-.59-.45c-.14-.206-.21-.46-.21-.76 0-.373.12-.68.36-.92.246-.24.593-.403 1.04-.49l1.94-.38-.01.75-1.41.29c-.28.054-.49.13-.63.23s-.21.247-.21.44c0 .187.07.337.21.45.147.107.34.16.58.16.166 0 .327-.02.48-.06.16-.04.303-.103.43-.19a.92.92 0 00.29-.35c.073-.146.11-.32.11-.52v-1.36zm6.9-1.79l-2.19 5.59c-.146.387-.306.694-.48.92a1.48 1.48 0 01-.58.49c-.22.1-.476.15-.77.15-.24 0-.463-.033-.67-.1-.2-.06-.376-.143-.53-.25l.26-.83c.127.107.26.187.4.24.147.054.304.08.47.08.18 0 .34-.05.48-.15.147-.093.277-.283.39-.57l.22-.54-.53-1.24-1.56-3.79h1.2l1.11 3.14.29.94.33-1.03 1.05-3.05h1.11zm2.696 5.1c-.5 0-.957-.096-1.37-.29a2.358 2.358 0 01-.98-.82l.74-.64c.146.274.356.494.63.66.28.16.613.24 1 .24.306 0 .55-.053.73-.16a.497.497 0 00.27-.45.474.474 0 00-.13-.33c-.08-.1-.237-.176-.47-.23l-1.05-.22c-.534-.106-.914-.276-1.14-.51-.227-.24-.34-.543-.34-.91 0-.273.08-.526.24-.76.16-.233.393-.42.7-.56.313-.146.686-.22 1.12-.22.5 0 .926.09 1.28.27.353.174.623.424.81.75l-.74.62a1.246 1.246 0 00-.56-.59 1.605 1.605 0 00-.77-.2c-.214 0-.397.027-.55.08a.796.796 0 00-.35.22.493.493 0 00-.12.33c0 .134.05.25.15.35.1.1.28.177.54.23l1.14.24c.48.094.816.254 1.01.48.2.22.3.49.3.81 0 .32-.084.604-.25.85-.167.24-.407.427-.72.56-.314.134-.687.2-1.12.2zm9.535-3.31c0-.333-.094-.59-.28-.77-.18-.186-.43-.28-.75-.28-.3 0-.557.07-.77.21-.214.14-.37.367-.47.68l-.9-.38c.126-.406.373-.733.74-.98.373-.246.853-.37 1.44-.37.4 0 .753.067 1.06.2.306.127.546.32.72.58.18.26.27.594.27 1v2.23c0 .247.123.37.37.37.12 0 .236-.016.35-.05l-.06.74c-.154.074-.347.11-.58.11a1.46 1.46 0 01-.58-.11.962.962 0 01-.4-.35 1.145 1.145 0 01-.14-.59v-.07l.22-.01a1.25 1.25 0 01-.37.65 1.914 1.914 0 01-.65.38 2.42 2.42 0 01-.75.12c-.314 0-.597-.05-.85-.15a1.33 1.33 0 01-.59-.45c-.14-.206-.21-.46-.21-.76 0-.373.12-.68.36-.92.246-.24.593-.403 1.04-.49l1.94-.38-.01.75-1.41.29c-.28.054-.49.13-.63.23s-.21.247-.21.44c0 .187.07.337.21.45.146.107.34.16.58.16.166 0 .326-.02.48-.06.16-.04.303-.103.43-.19a.927.927 0 00.29-.35c.073-.146.11-.32.11-.52v-1.36zm7.232-2.84l.17.84h-.06a.21.21 0 00-.06-.01c-.32 0-.563.07-.73.21-.166.134-.25.33-.25.59l-.52-.24c0-.266.057-.503.17-.71.114-.213.274-.38.48-.5.214-.12.454-.18.72-.18h.08zm-1.58 5.27c.507 0 .9.114 1.18.34.28.22.42.527.42.92 0 .347-.11.644-.33.89-.22.254-.52.447-.9.58-.373.134-.803.2-1.29.2-.82 0-1.426-.126-1.82-.38-.393-.253-.59-.57-.59-.95 0-.266.094-.5.28-.7.194-.2.517-.313.97-.34l-.06.16a1.466 1.466 0 01-.68-.32c-.166-.16-.25-.383-.25-.67 0-.286.11-.53.33-.73.22-.2.53-.316.93-.35l.56.27h-.12c-.306.027-.523.097-.65.21-.126.114-.19.24-.19.38 0 .167.06.29.18.37.127.08.304.12.53.12h1.5zm-.92 2.13c.367 0 .667-.036.9-.11.24-.066.417-.156.53-.27a.472.472 0 00.18-.36.438.438 0 00-.19-.37c-.12-.093-.34-.14-.66-.14h-1.61a.775.775 0 00-.47.14.487.487 0 00-.19.4c0 .22.134.394.4.52.267.127.637.19 1.11.19zm-.04-6.45c.44 0 .82.07 1.14.21.327.14.577.337.75.59.18.254.27.55.27.89 0 .34-.09.637-.27.89-.173.254-.423.45-.75.59-.32.14-.7.21-1.14.21-.693 0-1.226-.153-1.6-.46-.366-.313-.55-.723-.55-1.23 0-.34.09-.636.27-.89.18-.253.43-.45.75-.59a2.85 2.85 0 011.13-.21zm0 .75c-.306 0-.563.087-.77.26-.2.167-.3.394-.3.68 0 .287.1.517.3.69.207.174.464.26.77.26.314 0 .57-.086.77-.26a.854.854 0 00.31-.69.827.827 0 00-.31-.68c-.2-.173-.456-.26-.77-.26zm5.711-.75c.486 0 .916.104 1.29.31.373.207.663.507.87.9.213.387.32.85.32 1.39 0 .54-.107 1.007-.32 1.4a2.151 2.151 0 01-.87.89 2.62 2.62 0 01-1.29.31c-.487 0-.917-.103-1.29-.31a2.205 2.205 0 01-.88-.89c-.214-.393-.32-.86-.32-1.4 0-.54.106-1.003.32-1.39a2.2 2.2 0 01.88-.9c.373-.206.803-.31 1.29-.31zm0 .84c-.3 0-.557.07-.77.21-.207.134-.367.33-.48.59-.114.26-.17.58-.17.96 0 .374.056.694.17.96.113.26.273.46.48.6.213.134.47.2.77.2.3 0 .553-.066.76-.2.206-.14.366-.34.48-.6.113-.266.17-.586.17-.96 0-.38-.057-.7-.17-.96a1.304 1.304 0 00-.48-.59c-.207-.14-.46-.21-.76-.21z" fill="#A19EA4"/>
    <g filter="url(#jG4l_wsoDshIf)">
      <rect x="75" y="275.164" width="216" height="128" rx="8" fill="url(#jG4l_wsoDshIg)" fill-opacity=".95"/>
    </g>
    <rect opacity=".5" x="75" y="275.164" width="216" height="128" rx="8" fill="#0C0D0D"/>
    <path d="M193.5 332.664h-21a3 3 0 00-3 3v10.5a3 3 0 003 3h21a3 3 0 003-3v-10.5a3 3 0 00-3-3z" stroke="url(#jG4l_wsoDshIh)" stroke-opacity=".95" stroke-width="2" stroke-linecap="round" stroke-linejoin="round"/>
    <path d="M175.5 332.664v-6a7.499 7.499 0 0112.803-5.303 7.499 7.499 0 012.197 5.303v6" stroke="url(#jG4l_wsoDshIi)" stroke-opacity=".95" stroke-width="2" stroke-linecap="round" stroke-linejoin="round"/>
    <path d="M88.668 417.244v7.92h-1.296v-7.92h1.296zm-5.208 0v7.92h-1.284v-7.92h1.284zm4.56 3.36v1.104h-5.196v-1.104h5.196zm5.334-1.56c.584 0 1.1.124 1.548.372.448.248.796.608 1.044 1.08.256.464.384 1.02.384 1.668 0 .648-.128 1.208-.384 1.68-.248.464-.596.82-1.044 1.068-.448.248-.964.372-1.548.372-.584 0-1.1-.124-1.548-.372a2.661 2.661 0 01-1.056-1.068c-.256-.472-.384-1.032-.384-1.68 0-.648.128-1.204.384-1.668a2.642 2.642 0 011.056-1.08c.448-.248.964-.372 1.548-.372zm0 1.008c-.36 0-.668.084-.924.252-.248.16-.44.396-.576.708-.136.312-.204.696-.204 1.152 0 .448.068.832.204 1.152.136.312.328.552.576.72.256.16.564.24.924.24.36 0 .664-.08.912-.24.248-.168.44-.408.576-.72.136-.32.204-.704.204-1.152 0-.456-.068-.84-.204-1.152a1.551 1.551 0 00-.576-.708c-.248-.168-.552-.252-.912-.252zm4.591 5.112v-6h1.14l.06 1.008c.208-.384.484-.668.828-.852a2.374 2.374 0 011.116-.276c.432 0 .828.1 1.188.3.368.192.644.484.828.876.128-.264.304-.484.528-.66.224-.176.472-.304.744-.384.272-.088.54-.132.804-.132.384 0 .744.08 1.08.24.336.16.608.404.816.732.208.328.312.748.312 1.26v3.888h-1.284v-3.684c0-.488-.116-.84-.348-1.056-.232-.216-.528-.324-.888-.324-.28 0-.54.068-.78.204a1.5 1.5 0 00-.564.612c-.144.264-.216.592-.216.984v3.264h-1.284v-3.684c0-.488-.116-.84-.348-1.056-.232-.216-.528-.324-.888-.324a1.543 1.543 0 00-1.32.792c-.16.272-.24.632-.24 1.08v3.192h-1.284zm14.031.12c-.6 0-1.128-.124-1.584-.372a2.64 2.64 0 01-1.068-1.068c-.248-.472-.372-1.032-.372-1.68 0-.648.124-1.204.372-1.668a2.642 2.642 0 011.056-1.08 3.093 3.093 0 011.524-.372c.584 0 1.08.12 1.488.36.408.24.72.568.936.984.216.416.324.888.324 1.416 0 .144-.004.28-.012.408-.008.128-.02.24-.036.336h-4.824v-.984h4.26l-.636.192c0-.544-.136-.96-.408-1.248-.272-.296-.644-.444-1.116-.444-.344 0-.644.08-.9.24-.256.16-.452.4-.588.72-.136.312-.204.696-.204 1.152 0 .448.072.828.216 1.14.144.312.348.548.612.708.264.16.576.24.936.24.4 0 .724-.076.972-.228.248-.152.444-.364.588-.636l1.02.48c-.144.288-.34.54-.588.756-.24.208-.528.368-.864.48a3.473 3.473 0 01-1.104.168zm4.297 2.4v-8.52h1.14l.096 1.68-.168-.204c.096-.312.244-.588.444-.828s.448-.428.744-.564c.304-.136.636-.204.996-.204.488 0 .932.124 1.332.372s.716.604.948 1.068c.232.456.348 1.012.348 1.668 0 .656-.12 1.22-.36 1.692-.232.464-.552.82-.96 1.068-.4.248-.848.372-1.344.372-.512 0-.948-.132-1.308-.396a2.23 2.23 0 01-.768-1.032l.144-.204v4.032h-1.284zm2.94-3.444c.52 0 .924-.184 1.212-.552.296-.368.444-.876.444-1.524s-.144-1.156-.432-1.524c-.288-.376-.688-.564-1.2-.564a1.53 1.53 0 00-.888.264 1.708 1.708 0 00-.588.72c-.136.304-.204.672-.204 1.104 0 .424.068.792.204 1.104.136.312.328.552.576.72.248.168.54.252.876.252zm8.04-2.928c0-.4-.112-.708-.336-.924-.216-.224-.516-.336-.9-.336-.36 0-.668.084-.924.252-.256.168-.444.44-.564.816l-1.08-.456a2.16 2.16 0 01.888-1.176c.448-.296 1.024-.444 1.728-.444.48 0 .904.08 1.272.24.368.152.656.384.864.696.216.312.324.712.324 1.2v2.676c0 .296.148.444.444.444.144 0 .284-.02.42-.06l-.072.888c-.184.088-.416.132-.696.132a1.77 1.77 0 01-.696-.132c-.2-.096-.36-.236-.48-.42a1.384 1.384 0 01-.168-.708v-.084l.264-.012c-.072.312-.22.572-.444.78-.224.2-.484.352-.78.456a2.9 2.9 0 01-.9.144c-.376 0-.716-.06-1.02-.18-.296-.12-.532-.3-.708-.54-.168-.248-.252-.552-.252-.912 0-.448.144-.816.432-1.104.296-.288.712-.484 1.248-.588l2.328-.456-.012.9-1.692.348c-.336.064-.588.156-.756.276-.168.12-.252.296-.252.528a.66.66 0 00.252.54c.176.128.408.192.696.192.2 0 .392-.024.576-.072.192-.048.364-.124.516-.228.152-.112.268-.252.348-.42a1.38 1.38 0 00.132-.624v-1.632zm8.679-3.408l.204 1.008h-.072a.227.227 0 00-.072-.012c-.384 0-.676.084-.876.252-.2.16-.3.396-.3.708l-.624-.288c0-.32.068-.604.204-.852.136-.256.328-.456.576-.6.256-.144.544-.216.864-.216h.096zm-1.896 6.324c.608 0 1.08.136 1.416.408.336.264.504.632.504 1.104 0 .416-.132.772-.396 1.068-.264.304-.624.536-1.08.696-.448.16-.964.24-1.548.24-.984 0-1.712-.152-2.184-.456-.472-.304-.708-.684-.708-1.14 0-.32.112-.6.336-.84.232-.24.62-.376 1.164-.408l-.072.192c-.336-.072-.608-.2-.816-.384-.2-.192-.3-.46-.3-.804 0-.344.132-.636.396-.876s.636-.38 1.116-.42l.672.324h-.144c-.368.032-.628.116-.78.252-.152.136-.228.288-.228.456 0 .2.072.348.216.444.152.096.364.144.636.144h1.8zm-1.104 2.556c.44 0 .8-.044 1.08-.132.288-.08.5-.188.636-.324.144-.128.216-.272.216-.432a.525.525 0 00-.228-.444c-.144-.112-.408-.168-.792-.168h-1.932a.925.925 0 00-.564.168.58.58 0 00-.228.48c0 .264.16.472.48.624.32.152.764.228 1.332.228zm-.048-7.74c.528 0 .984.084 1.368.252.392.168.692.404.9.708.216.304.324.66.324 1.068 0 .408-.108.764-.324 1.068-.208.304-.508.54-.9.708-.384.168-.84.252-1.368.252-.832 0-1.472-.184-1.92-.552-.44-.376-.66-.868-.66-1.476 0-.408.108-.764.324-1.068.216-.304.516-.54.9-.708.392-.168.844-.252 1.356-.252zm0 .9c-.368 0-.676.104-.924.312-.24.2-.36.472-.36.816s.12.62.36.828c.248.208.556.312.924.312.376 0 .684-.104.924-.312.248-.208.372-.484.372-.828s-.124-.616-.372-.816c-.24-.208-.548-.312-.924-.312zm6.889 5.34c-.6 0-1.128-.124-1.584-.372a2.64 2.64 0 01-1.068-1.068c-.248-.472-.372-1.032-.372-1.68 0-.648.124-1.204.372-1.668a2.642 2.642 0 011.056-1.08 3.093 3.093 0 011.524-.372c.584 0 1.08.12 1.488.36.408.24.72.568.936.984.216.416.324.888.324 1.416 0 .144-.004.28-.012.408-.008.128-.02.24-.036.336h-4.824v-.984h4.26l-.636.192c0-.544-.136-.96-.408-1.248-.272-.296-.644-.444-1.116-.444-.344 0-.644.08-.9.24-.256.16-.452.4-.588.72-.136.312-.204.696-.204 1.152 0 .448.072.828.216 1.14.144.312.348.548.612.708.264.16.576.24.936.24.4 0 .724-.076.972-.228.248-.152.444-.364.588-.636l1.02.48c-.144.288-.34.54-.588.756-.24.208-.528.368-.864.48a3.473 3.473 0 01-1.104.168z" fill="#252A2D"/>
    <path d="M83.93 441.264c-.62 0-1.16-.136-1.62-.41a2.129 2.129 0 01-.93-1.17l1.04-.49c.06.24.153.447.28.62.127.174.293.307.5.4.207.087.463.13.77.13.26 0 .48-.046.66-.14a.962.962 0 00.41-.39c.1-.166.15-.356.15-.57 0-.22-.043-.403-.13-.55a.704.704 0 00-.39-.32 1.908 1.908 0 00-.67-.1c-.08 0-.163.004-.25.01-.08 0-.167.007-.26.02v-.9l.17.02h.17c.433 0 .743-.086.93-.26.187-.173.28-.443.28-.81 0-.313-.097-.553-.29-.72-.187-.166-.457-.25-.81-.25-.367 0-.653.087-.86.26-.2.167-.353.41-.46.73l-.98-.41a1.95 1.95 0 01.47-.8c.22-.226.49-.4.81-.52a2.95 2.95 0 011.07-.19c.473 0 .867.077 1.18.23.32.154.557.364.71.63.16.267.24.564.24.89 0 .254-.037.477-.11.67-.073.187-.173.35-.3.49a1.33 1.33 0 01-.4.31 1.46 1.46 0 01-.43.15v.02c.193.007.37.047.53.12.167.067.313.164.44.29.133.12.237.267.31.44.073.174.11.364.11.57 0 .4-.1.75-.3 1.05-.2.3-.477.534-.83.7-.347.167-.75.25-1.21.25zm8.931 0a2.13 2.13 0 01-1.13-.31 2.14 2.14 0 01-.79-.89c-.193-.386-.29-.85-.29-1.39 0-.56.104-1.033.31-1.42.207-.386.484-.68.83-.88.347-.206.727-.31 1.14-.31.427 0 .787.117 1.08.35.294.234.49.537.59.91l-.12.11v-3.52h1.07v7.25h-.95l-.08-1.36.14.01c-.046.3-.156.56-.33.78-.173.214-.39.38-.65.5a1.97 1.97 0 01-.82.17zm.23-.86c.287 0 .534-.073.74-.22.207-.146.367-.353.48-.62.114-.266.17-.586.17-.96 0-.346-.056-.643-.17-.89a1.305 1.305 0 00-.48-.58c-.2-.133-.433-.2-.7-.2-.446 0-.793.154-1.04.46-.246.307-.37.73-.37 1.27s.12.967.36 1.28c.24.307.577.46 1.01.46zm7.01-2.45c0-.333-.093-.59-.28-.77-.18-.186-.43-.28-.75-.28-.3 0-.557.07-.77.21-.213.14-.37.367-.47.68l-.9-.38c.127-.406.373-.733.74-.98.373-.246.853-.37 1.44-.37.4 0 .753.067 1.06.2.307.127.547.32.72.58.18.26.27.594.27 1v2.23c0 .247.123.37.37.37.12 0 .237-.016.35-.05l-.06.74c-.153.074-.347.11-.58.11-.213 0-.407-.036-.58-.11a.962.962 0 01-.4-.35 1.155 1.155 0 01-.14-.59v-.07l.22-.01c-.06.26-.183.477-.37.65a1.905 1.905 0 01-.65.38 2.42 2.42 0 01-.75.12c-.314 0-.597-.05-.85-.15a1.33 1.33 0 01-.59-.45c-.14-.206-.21-.46-.21-.76 0-.373.12-.68.36-.92.246-.24.593-.403 1.04-.49l1.94-.38-.01.75-1.41.29c-.28.054-.49.13-.63.23s-.21.247-.21.44c0 .187.07.337.21.45.147.107.34.16.58.16.166 0 .327-.02.48-.06.16-.04.303-.103.43-.19a.92.92 0 00.29-.35c.073-.146.11-.32.11-.52v-1.36zm6.9-1.79l-2.19 5.59c-.146.387-.306.694-.48.92a1.48 1.48 0 01-.58.49c-.22.1-.476.15-.77.15-.24 0-.463-.033-.67-.1-.2-.06-.376-.143-.53-.25l.26-.83c.127.107.26.187.4.24.147.054.304.08.47.08.18 0 .34-.05.48-.15.147-.093.277-.283.39-.57l.22-.54-.53-1.24-1.56-3.79h1.2l1.11 3.14.29.94.33-1.03 1.05-3.05h1.11zm2.696 5.1c-.5 0-.957-.096-1.37-.29a2.358 2.358 0 01-.98-.82l.74-.64c.146.274.356.494.63.66.28.16.613.24 1 .24.306 0 .55-.053.73-.16a.497.497 0 00.27-.45.474.474 0 00-.13-.33c-.08-.1-.237-.176-.47-.23l-1.05-.22c-.534-.106-.914-.276-1.14-.51-.227-.24-.34-.543-.34-.91 0-.273.08-.526.24-.76.16-.233.393-.42.7-.56.313-.146.686-.22 1.12-.22.5 0 .926.09 1.28.27.353.174.623.424.81.75l-.74.62a1.246 1.246 0 00-.56-.59 1.605 1.605 0 00-.77-.2c-.214 0-.397.027-.55.08a.796.796 0 00-.35.22.493.493 0 00-.12.33c0 .134.05.25.15.35.1.1.28.177.54.23l1.14.24c.48.094.816.254 1.01.48.2.22.3.49.3.81 0 .32-.084.604-.25.85-.167.24-.407.427-.72.56-.314.134-.687.2-1.12.2zm9.535-3.31c0-.333-.094-.59-.28-.77-.18-.186-.43-.28-.75-.28-.3 0-.557.07-.77.21-.214.14-.37.367-.47.68l-.9-.38c.126-.406.373-.733.74-.98.373-.246.853-.37 1.44-.37.4 0 .753.067 1.06.2.306.127.546.32.72.58.18.26.27.594.27 1v2.23c0 .247.123.37.37.37.12 0 .236-.016.35-.05l-.06.74c-.154.074-.347.11-.58.11a1.46 1.46 0 01-.58-.11.962.962 0 01-.4-.35 1.145 1.145 0 01-.14-.59v-.07l.22-.01a1.25 1.25 0 01-.37.65 1.914 1.914 0 01-.65.38 2.42 2.42 0 01-.75.12c-.314 0-.597-.05-.85-.15a1.33 1.33 0 01-.59-.45c-.14-.206-.21-.46-.21-.76 0-.373.12-.68.36-.92.246-.24.593-.403 1.04-.49l1.94-.38-.01.75-1.41.29c-.28.054-.49.13-.63.23s-.21.247-.21.44c0 .187.07.337.21.45.146.107.34.16.58.16.166 0 .326-.02.48-.06.16-.04.303-.103.43-.19a.927.927 0 00.29-.35c.073-.146.11-.32.11-.52v-1.36zm7.232-2.84l.17.84h-.06a.21.21 0 00-.06-.01c-.32 0-.563.07-.73.21-.166.134-.25.33-.25.59l-.52-.24c0-.266.057-.503.17-.71.114-.213.274-.38.48-.5.214-.12.454-.18.72-.18h.08zm-1.58 5.27c.507 0 .9.114 1.18.34.28.22.42.527.42.92 0 .347-.11.644-.33.89-.22.254-.52.447-.9.58-.373.134-.803.2-1.29.2-.82 0-1.426-.126-1.82-.38-.393-.253-.59-.57-.59-.95 0-.266.094-.5.28-.7.194-.2.517-.313.97-.34l-.06.16a1.466 1.466 0 01-.68-.32c-.166-.16-.25-.383-.25-.67 0-.286.11-.53.33-.73.22-.2.53-.316.93-.35l.56.27h-.12c-.306.027-.523.097-.65.21-.126.114-.19.24-.19.38 0 .167.06.29.18.37.127.08.304.12.53.12h1.5zm-.92 2.13c.367 0 .667-.036.9-.11.24-.066.417-.156.53-.27a.472.472 0 00.18-.36.438.438 0 00-.19-.37c-.12-.093-.34-.14-.66-.14h-1.61a.775.775 0 00-.47.14.487.487 0 00-.19.4c0 .22.134.394.4.52.267.127.637.19 1.11.19zm-.04-6.45c.44 0 .82.07 1.14.21.327.14.577.337.75.59.18.254.27.55.27.89 0 .34-.09.637-.27.89-.173.254-.423.45-.75.59-.32.14-.7.21-1.14.21-.693 0-1.226-.153-1.6-.46-.366-.313-.55-.723-.55-1.23 0-.34.09-.636.27-.89.18-.253.43-.45.75-.59a2.85 2.85 0 011.13-.21zm0 .75c-.306 0-.563.087-.77.26-.2.167-.3.394-.3.68 0 .287.1.517.3.69.207.174.464.26.77.26.314 0 .57-.086.77-.26a.854.854 0 00.31-.69.827.827 0 00-.31-.68c-.2-.173-.456-.26-.77-.26zm5.711-.75c.486 0 .916.104 1.29.31.373.207.663.507.87.9.213.387.32.85.32 1.39 0 .54-.107 1.007-.32 1.4a2.151 2.151 0 01-.87.89 2.62 2.62 0 01-1.29.31c-.487 0-.917-.103-1.29-.31a2.205 2.205 0 01-.88-.89c-.214-.393-.32-.86-.32-1.4 0-.54.106-1.003.32-1.39a2.2 2.2 0 01.88-.9c.373-.206.803-.31 1.29-.31zm0 .84c-.3 0-.557.07-.77.21-.207.134-.367.33-.48.59-.114.26-.17.58-.17.96 0 .374.056.694.17.96.113.26.273.46.48.6.213.134.47.2.77.2.3 0 .553-.066.76-.2.206-.14.366-.34.48-.6.113-.266.17-.586.17-.96 0-.38-.057-.7-.17-.96a1.304 1.304 0 00-.48-.59c-.207-.14-.46-.21-.76-.21z" fill="#A19EA4"/>
  </g>
  <g filter="url(#jG4l_wsoDshIj)">
    <path d="M517.504 206.285c0-7.501-7.951-12.331-14.608-8.876l-71.852 37.301a10 10 0 00-5.392 8.875v171.127c0 7.5 7.95 12.331 14.607 8.875l71.852-37.3a10 10 0 005.393-8.876V206.285z" fill="url(#jG4l_wsoDshIk)" fill-opacity=".95"/>
  </g>
  <g filter="url(#jG4l_wsoDshIl)">
    <path d="M326.527 204.15c0-8.367 8.869-13.756 16.295-9.901L567.854 311.07a11.154 11.154 0 016.016 9.9v168.524c0 8.366-8.869 13.755-16.295 9.9l-225.032-116.82a11.155 11.155 0 01-6.016-9.9V204.15z" fill="url(#jG4l_wsoDshIm)" fill-opacity=".95"/>
  </g>
  <mask id="jG4l_wsoDshIo" style="mask-type:alpha" maskUnits="userSpaceOnUse" x="365" y="213" width="209" height="288">
    <path d="M365.4 224.33c0-8.367 8.869-13.756 16.295-9.901l186.16 96.641a11.153 11.153 0 016.015 9.9v168.524c0 8.366-8.869 13.755-16.295 9.9l-186.159-96.64a11.156 11.156 0 01-6.016-9.901V224.33z" fill="url(#jG4l_wsoDshIn)" fill-opacity=".95"/>
  </mask>
  <g mask="url(#jG4l_wsoDshIo)">
    <path fill-rule="evenodd" clip-rule="evenodd" d="M508.682 431.899c7.159 13.296 6.804 58.074 6.804 58.074l-83.704-27.419s-2.695-22.834 3.608-35.078c4.091-7.458 10.104-9.585 15.606-11.532 5.749-2.034 10.94-3.871 12.798-11.383 2.049-8.285-1.713-14.389-5.739-20.923-3.95-6.409-8.154-13.231-7.376-22.928.571-7.156 2.394-8.603 5.718-11.243 1.332-1.058 2.906-2.307 4.737-4.193 1.904-1.961 2.867-4.988 3.909-8.261 2.46-7.728 5.354-16.823 22.089-16.466 19.547.418 25.306 16.532 25.306 16.532s15.523-8.212 24.298 4.031c6.158 8.597 3.651 14.843.251 23.311-1.44 3.588-3.041 7.575-4.21 12.309-6.077 24.567 7.247 21.885 7.247 21.885-12.678 14.399-32.785-3.363-25.594-23.663 6.056-17.099 1-27.175-.038-29.244l-.035-.07c.808 2.161 4.76 14.649-5.899 28.491-2.275 2.954-4.704 5.064-7.068 7.117-4.314 3.747-8.411 7.306-10.958 15.459-2.523 8.084 2.201 13.801 8.147 20.997 3.338 4.04 7.061 8.545 10.103 14.197zm-18.233-79.326c-.221-2.039-1.999-3.543-3.971-3.369-1.974.174-3.4 1.963-3.179 4.003v.002c.217 2.036 1.997 3.541 3.966 3.367l.001-.001c1.973-.173 3.4-1.962 3.183-4.002zm-4.299-6.408c3.613-.318 6.855 2.438 7.256 6.15v.002c.395 3.708-2.198 6.979-5.811 7.298h-.001c-3.607.319-6.856-2.438-7.252-6.149-.4-3.712 2.195-6.983 5.807-7.301h.001zm2.851 31.868c-3.639 2.621-8.608 3.933-15.084 1.975l.387-1.452-.387 1.452c-13.032-3.939-15.618-15.987-14.385-22.234l2.903.671c-1.013 5.133 1.122 15.294 12.255 18.659 5.608 1.696 9.651.536 12.567-1.564 2.982-2.147 4.896-5.365 5.967-7.903l2.723 1.26c-1.186 2.81-3.372 6.562-6.946 9.136z" fill="url(#jG4l_wsoDshIp)" fill-opacity=".8"/>
  </g>
  <g filter="url(#jG4l_wsoDshIq)">
    <path d="M428.098 254.599c0-8.366-8.869-13.755-16.295-9.9L264.516 321.16a11.154 11.154 0 00-6.016 9.9v168.524c0 8.366 8.869 13.755 16.295 9.9l147.287-76.46a11.157 11.157 0 006.016-9.901V254.599z" fill="url(#jG4l_wsoDshIr)" fill-opacity=".95"/>
  </g>
  <mask id="jG4l_wsoDshIt" style="mask-type:alpha" maskUnits="userSpaceOnUse" x="258" y="223" width="209" height="288">
    <path d="M466.971 234.42c0-8.367-8.869-13.756-16.295-9.901l-186.16 96.641a11.153 11.153 0 00-6.015 9.9v168.524c0 8.366 8.869 13.755 16.295 9.9l186.159-96.64a11.156 11.156 0 006.016-9.901V234.42z" fill="url(#jG4l_wsoDshIs)" fill-opacity=".95"/>
  </mask>
  <g mask="url(#jG4l_wsoDshIt)">
    <path fill-rule="evenodd" clip-rule="evenodd" d="M315.128 358.12s-8.928 1.102-6.569 8.565c.957 3.029 2.691 2.867 5.192 2.633 3.661-.342 8.965-.838 15.888 8.296 0 0-7.826 3.906-3.97 9.522 3.855 5.616 9.616 1.082 9.616 1.082.997 2.217 2.96 5.012 5.21 8.215 6.239 8.883 14.679 20.9 10.814 32.409-1.726 5.14-6.966 8.345-12.705 11.855-6.225 3.809-13.036 7.975-16.58 15.358-7.272 15.15-2.111 42.937-2.111 42.937l87.285-29.429c.005-.531.016-1.169.03-1.897.144-7.853.482-26.182-5.892-33.813-3.243-3.883-8.552-5.18-13.909-6.488-7.15-1.745-14.384-3.512-16.903-11.479-1.903-6.02 1.255-8.169 5.474-11.04 22.912-22.166 3.942-41.352-7.228-52.649-1.471-1.488-2.807-2.84-3.894-4.043-5.01-5.544-5.801-11.469-6.42-16.114-.536-4.015-.944-7.074-3.839-8.103-6.245-2.222-8.191 6.011-8.191 6.011s-3.099-7.133-9.7-4.817c-6.601 2.316-5.411 8.594-5.411 8.594s-6.115-4.195-10.667.807c-4.552 5.002.223 10.363.223 10.363s-6.168-2.616-9.434 3.335c-3.265 5.951 3.691 9.89 3.691 9.89zm27.956 9.034c-.864-3.556 1.271-7.226 4.76-8.198 3.491-.972 7.019 1.123 7.882 4.677.863 3.556-1.272 7.226-4.761 8.198-3.49.971-7.019-1.123-7.881-4.677zm5.454-5.337c-1.94.54-3.125 2.58-2.645 4.554.479 1.975 2.44 3.138 4.379 2.599 1.938-.54 3.124-2.58 2.645-4.554-.48-1.976-2.44-3.139-4.379-2.599zm-.067 26.281c2.425 3.474 6.041 6.627 11.169 6.442 5.333-.193 8.904-2.733 11.173-5.245a18.953 18.953 0 002.467-3.452c.259-.466.445-.85.564-1.111a9.664 9.664 0 00.156-.361l.004-.01c-.001.001-.001.001 1.343.506 1.343.504 1.343.505 1.342.506v.001l-.002.004-.004.012-.014.033c-.01.028-.026.066-.045.113a18.616 18.616 0 01-.845 1.72 21.958 21.958 0 01-2.871 4.016c-2.67 2.958-6.945 5.993-13.238 6.221-6.503.234-10.889-3.811-13.56-7.638-1.346-1.928-2.301-3.86-2.919-5.304a28.081 28.081 0 01-.862-2.27l-.044-.141-.013-.04-.003-.012-.001-.004-.001-.002 1.382-.461 1.381-.46.001.003.007.024.018.056.016.05c.031.096.079.243.146.432.133.378.338.924.62 1.582.565 1.321 1.431 3.066 2.633 4.79z" fill="url(#jG4l_wsoDshIu)" fill-opacity=".8"/>
  </g>
  <defs>
    <linearGradient id="jG4l_wsoDshIc" x1="75" y1="204.164" x2="187.276" y2="14.698" gradientUnits="userSpaceOnUse">
      <stop stop-color="#FF8CF4" stop-opacity=".9"/>
      <stop offset="1" stop-color="#FFA9DE"/>
    </linearGradient>
    <linearGradient id="jG4l_wsoDshId" x1="169.5" y1="150.164" x2="184.183" y2="126.137" gradientUnits="userSpaceOnUse">
      <stop stop-color="#FF8CF4" stop-opacity=".9"/>
      <stop offset="1" stop-color="#FFA9DE"/>
    </linearGradient>
    <linearGradient id="jG4l_wsoDshIe" x1="175.5" y1="133.664" x2="188.925" y2="118.747" gradientUnits="userSpaceOnUse">
      <stop stop-color="#FF8CF4" stop-opacity=".9"/>
      <stop offset="1" stop-color="#FFA9DE"/>
    </linearGradient>
    <linearGradient id="jG4l_wsoDshIg" x1="291" y1="403.164" x2="298.699" y2="290.443" gradientUnits="userSpaceOnUse">
      <stop stop-color="#00D1B8" stop-opacity=".9"/>
      <stop offset="1" stop-color="#25CBD9"/>
      <stop offset="1" stop-color="#25CBD9"/>
    </linearGradient>
    <linearGradient id="jG4l_wsoDshIh" x1="196.5" y1="349.164" x2="197.523" y2="334.638" gradientUnits="userSpaceOnUse">
      <stop stop-color="#00D1B8" stop-opacity=".9"/>
      <stop offset="1" stop-color="#25CBD9"/>
      <stop offset="1" stop-color="#25CBD9"/>
    </linearGradient>
    <linearGradient id="jG4l_wsoDshIi" x1="190.5" y1="332.664" x2="191.726" y2="320.848" gradientUnits="userSpaceOnUse">
      <stop stop-color="#00D1B8" stop-opacity=".9"/>
      <stop offset="1" stop-color="#25CBD9"/>
      <stop offset="1" stop-color="#25CBD9"/>
    </linearGradient>
    <linearGradient id="jG4l_wsoDshIk" x1="517.504" y1="431.17" x2="357.042" y2="370.101" gradientUnits="userSpaceOnUse">
      <stop stop-color="#FF8CF4" stop-opacity=".9"/>
      <stop offset="1" stop-color="#FFA9DE"/>
    </linearGradient>
    <linearGradient id="jG4l_wsoDshIm" x1="573.87" y1="507.853" x2="615.69" y2="229.186" gradientUnits="userSpaceOnUse">
      <stop stop-color="#00D1B8" stop-opacity=".9"/>
      <stop offset="1" stop-color="#25CBD9"/>
      <stop offset="1" stop-color="#25CBD9"/>
    </linearGradient>
    <linearGradient id="jG4l_wsoDshIn" x1="573.87" y1="507.853" x2="617.24" y2="248.002" gradientUnits="userSpaceOnUse">
      <stop stop-color="#00D1B8" stop-opacity=".9"/>
      <stop offset="1" stop-color="#25CBD9"/>
      <stop offset="1" stop-color="#25CBD9"/>
    </linearGradient>
    <linearGradient id="jG4l_wsoDshIp" x1="514.894" y1="491.786" x2="580.028" y2="375.052" gradientUnits="userSpaceOnUse">
      <stop stop-color="#fff"/>
      <stop offset="1" stop-color="#fff"/>
    </linearGradient>
    <linearGradient id="jG4l_wsoDshIr" x1="428.098" y1="517.943" x2="179.139" y2="368.06" gradientUnits="userSpaceOnUse">
      <stop stop-color="#FF8CF4" stop-opacity=".9"/>
      <stop offset="1" stop-color="#FFA9DE"/>
    </linearGradient>
    <linearGradient id="jG4l_wsoDshIs" x1="466.971" y1="517.943" x2="184.659" y2="322.989" gradientUnits="userSpaceOnUse">
      <stop stop-color="#FF8CF4" stop-opacity=".9"/>
      <stop offset="1" stop-color="#FFA9DE"/>
    </linearGradient>
    <linearGradient id="jG4l_wsoDshIu" x1="414.849" y1="466.917" x2="393.922" y2="329.113" gradientUnits="userSpaceOnUse">
      <stop stop-color="#fff"/>
      <stop offset="1" stop-color="#fff"/>
    </linearGradient>
    <filter id="jG4l_wsoDshIa" x="-5" y="-3.836" width="376" height="528" filterUnits="userSpaceOnUse" color-interpolation-filters="sRGB">
      <feFlood flood-opacity="0" result="BackgroundImageFix"/>
      <feColorMatrix in="SourceAlpha" type="matrix" values="0 0 0 0 0 0 0 0 0 0 0 0 0 0 0 0 0 0 127 0" result="hardAlpha"/>
      <feOffset/>
      <feGaussianBlur stdDeviation="10"/>
      <feComposite in2="hardAlpha" operator="out"/>
      <feColorMatrix type="matrix" values="0 0 0 0 0.189306 0 0 0 0 0.231194 0 0 0 0 0.294028 0 0 0 0.1 0"/>
      <feBlend mode="normal" in2="BackgroundImageFix" result="effect1_dropShadow_1896_1210"/>
      <feBlend mode="normal" in="SourceGraphic" in2="effect1_dropShadow_1896_1210" result="shape"/>
    </filter>
    <filter id="jG4l_wsoDshIb" x="75" y="76.164" width="216" height="128" filterUnits="userSpaceOnUse" color-interpolation-filters="sRGB">
      <feFlood flood-opacity="0" result="BackgroundImageFix"/>
      <feBlend mode="normal" in="SourceGraphic" in2="BackgroundImageFix" result="shape"/>
      <feColorMatrix in="SourceAlpha" type="matrix" values="0 0 0 0 0 0 0 0 0 0 0 0 0 0 0 0 0 0 127 0" result="hardAlpha"/>
      <feOffset dy="-10"/>
      <feComposite in2="hardAlpha" operator="arithmetic" k2="-1" k3="1"/>
      <feColorMatrix type="matrix" values="0 0 0 0 1 0 0 0 0 1 0 0 0 0 1 0 0 0 0.25 0"/>
      <feBlend mode="normal" in2="shape" result="effect1_innerShadow_1896_1210"/>
    </filter>
    <filter id="jG4l_wsoDshIf" x="75" y="275.164" width="216" height="128" filterUnits="userSpaceOnUse" color-interpolation-filters="sRGB">
      <feFlood flood-opacity="0" result="BackgroundImageFix"/>
      <feBlend mode="normal" in="SourceGraphic" in2="BackgroundImageFix" result="shape"/>
      <feColorMatrix in="SourceAlpha" type="matrix" values="0 0 0 0 0 0 0 0 0 0 0 0 0 0 0 0 0 0 127 0" result="hardAlpha"/>
      <feOffset dy="-10"/>
      <feComposite in2="hardAlpha" operator="arithmetic" k2="-1" k3="1"/>
      <feColorMatrix type="matrix" values="0 0 0 0 1 0 0 0 0 1 0 0 0 0 1 0 0 0 0.25 0"/>
      <feBlend mode="normal" in2="shape" result="effect1_innerShadow_1896_1210"/>
    </filter>
    <filter id="jG4l_wsoDshIj" x="425.651" y="196.271" width="91.853" height="228.454" filterUnits="userSpaceOnUse" color-interpolation-filters="sRGB">
      <feFlood flood-opacity="0" result="BackgroundImageFix"/>
      <feBlend mode="normal" in="SourceGraphic" in2="BackgroundImageFix" result="shape"/>
      <feColorMatrix in="SourceAlpha" type="matrix" values="0 0 0 0 0 0 0 0 0 0 0 0 0 0 0 0 0 0 127 0" result="hardAlpha"/>
      <feOffset dx="10" dy="6"/>
      <feComposite in2="hardAlpha" operator="arithmetic" k2="-1" k3="1"/>
      <feColorMatrix type="matrix" values="0 0 0 0 1 0 0 0 0 1 0 0 0 0 1 0 0 0 0.25 0"/>
      <feBlend mode="normal" in2="shape" result="effect1_innerShadow_1896_1210"/>
    </filter>
    <filter id="jG4l_wsoDshIl" x="326.527" y="192.98" width="247.343" height="307.684" filterUnits="userSpaceOnUse" color-interpolation-filters="sRGB">
      <feFlood flood-opacity="0" result="BackgroundImageFix"/>
      <feBlend mode="normal" in="SourceGraphic" in2="BackgroundImageFix" result="shape"/>
      <feColorMatrix in="SourceAlpha" type="matrix" values="0 0 0 0 0 0 0 0 0 0 0 0 0 0 0 0 0 0 127 0" result="hardAlpha"/>
      <feOffset dx="-10" dy="6"/>
      <feComposite in2="hardAlpha" operator="arithmetic" k2="-1" k3="1"/>
      <feColorMatrix type="matrix" values="0 0 0 0 1 0 0 0 0 1 0 0 0 0 1 0 0 0 0.25 0"/>
      <feBlend mode="normal" in2="shape" result="effect1_innerShadow_1896_1210"/>
    </filter>
    <filter id="jG4l_wsoDshIq" x="258.5" y="243.429" width="169.598" height="267.324" filterUnits="userSpaceOnUse" color-interpolation-filters="sRGB">
      <feFlood flood-opacity="0" result="BackgroundImageFix"/>
      <feBlend mode="normal" in="SourceGraphic" in2="BackgroundImageFix" result="shape"/>
      <feColorMatrix in="SourceAlpha" type="matrix" values="0 0 0 0 0 0 0 0 0 0 0 0 0 0 0 0 0 0 127 0" result="hardAlpha"/>
      <feOffset dx="10" dy="6"/>
      <feComposite in2="hardAlpha" operator="arithmetic" k2="-1" k3="1"/>
      <feColorMatrix type="matrix" values="0 0 0 0 1 0 0 0 0 1 0 0 0 0 1 0 0 0 0.25 0"/>
      <feBlend mode="normal" in2="shape" result="effect1_innerShadow_1896_1210"/>
    </filter>
  </defs>
</svg>
